{
.appVersion = "1352";
DisplayStrings = (
"/numero"
);
classes = (
{
automatic = 1;

glyphs = (
{
glyphname = .notdef;
lastChange = "2021-12-01 12:49:26 +0000";
layers = (
{
layerId = "97B58FCF-3A12-4579-9B1E-E0D00032C06B";
paths = (
{
closed = 1;
nodes = (
"975 0 LINE",
"975 1278 LINE",
"185 1278 LINE",
"185 0 LINE"
);
},
{
closed = 1;
nodes = (
"224 1243 LINE",
"936 1243 LINE",
"936 35 LINE",
"224 35 LINE"
);
},
{
closed = 1;
nodes = (
"250 0 LINE",
"945 1266 LINE",
"905 1266 LINE",
"210 0 LINE"
);
},
{
closed = 1;
nodes = (
"255 1266 LINE",
"215 1266 LINE",
"910 0 LINE",
"950 0 LINE"
);
}
);
width = 1160;
},
{
layerId = "DF0EE8E4-AB0C-48FB-AB57-676AC09C8CC1";
paths = (
{
closed = 1;
nodes = (
"975 0 LINE",
"975 1278 LINE",
"185 1278 LINE",
"185 0 LINE"
);
},
{
closed = 1;
nodes = (
"224 1243 LINE",
"936 1243 LINE",
"936 35 LINE",
"224 35 LINE"
);
},
{
closed = 1;
nodes = (
"250 0 LINE",
"945 1266 LINE",
"905 1266 LINE",
"210 0 LINE"
);
},
{
closed = 1;
nodes = (
"255 1266 LINE",
"215 1266 LINE",
"910 0 LINE",
"950 0 LINE"
);
}
);
width = 1160;
},
{
layerId = "825A4CEE-7199-41F6-ACE2-F406C7380F94";
paths = (
{
closed = 1;
nodes = (
"975 0 LINE",
"975 1278 LINE",
"185 1278 LINE",
"185 0 LINE"
);
},
{
closed = 1;
nodes = (
"224 1243 LINE",
"936 1243 LINE",
"936 35 LINE",
"224 35 LINE"
);
},
{
closed = 1;
nodes = (
"250 0 LINE",
"945 1266 LINE",
"905 1266 LINE",
"210 0 LINE"
);
},
{
closed = 1;
nodes = (
"255 1266 LINE",
"215 1266 LINE",
"910 0 LINE",
"950 0 LINE"
);
}
);
width = 1160;
},
{
layerId = "3B7D2D6B-4C7F-469B-8FA8-9D341C52EB57";
paths = (
{
closed = 1;
nodes = (
"975 0 LINE",
"975 1278 LINE",
"185 1278 LINE",
"185 0 LINE"
);
},
{
closed = 1;
nodes = (
"224 1243 LINE",
"936 1243 LINE",
"936 35 LINE",
"224 35 LINE"
);
},
{
closed = 1;
nodes = (
"250 0 LINE",
"945 1266 LINE",
"905 1266 LINE",
"210 0 LINE"
);
},
{
closed = 1;
nodes = (
"255 1266 LINE",
"215 1266 LINE",
"910 0 LINE",
"950 0 LINE"
);
}
);
width = 1160;
},
{
layerId = "D1B4C6CF-B771-4849-A887-0D6177A69D8B";
paths = (
{
closed = 1;
nodes = (
"975 0 LINE",
"975 1278 LINE",
"185 1278 LINE",
"185 0 LINE"
);
},
{
closed = 1;
nodes = (
"224 1243 LINE",
"936 1243 LINE",
"936 35 LINE",
"224 35 LINE"
);
},
{
closed = 1;
nodes = (
"250 0 LINE",
"945 1266 LINE",
"905 1266 LINE",
"210 0 LINE"
);
},
{
closed = 1;
nodes = (
"255 1266 LINE",
"215 1266 LINE",
"910 0 LINE",
"950 0 LINE"
);
}
);
width = 1160;
},
{
layerId = "C57162E4-21E6-4CBA-854D-82A45BE477A0";
paths = (
{
closed = 1;
nodes = (
"975 0 LINE",
"975 1278 LINE",
"185 1278 LINE",
"185 0 LINE"
);
},
{
closed = 1;
nodes = (
"224 1243 LINE",
"936 1243 LINE",
"936 35 LINE",
"224 35 LINE"
);
},
{
closed = 1;
nodes = (
"250 0 LINE",
"945 1266 LINE",
"905 1266 LINE",
"210 0 LINE"
);
},
{
closed = 1;
nodes = (
"255 1266 LINE",
"215 1266 LINE",
"910 0 LINE",
"950 0 LINE"
);
}
);
width = 1160;
},
{
layerId = "D1180855-BCFE-435D-BBAD-373D6E72A0DF";
paths = (
{
closed = 1;
nodes = (
"975 0 LINE",
"975 1278 LINE",
"185 1278 LINE",
"185 0 LINE"
);
},
{
closed = 1;
nodes = (
"224 1243 LINE",
"936 1243 LINE",
"936 35 LINE",
"224 35 LINE"
);
},
{
closed = 1;
nodes = (
"250 0 LINE",
"945 1266 LINE",
"905 1266 LINE",
"210 0 LINE"
);
},
{
closed = 1;
nodes = (
"255 1266 LINE",
"215 1266 LINE",
"910 0 LINE",
"950 0 LINE"
);
}
);
width = 1160;
},
{
layerId = "13EBB120-61C6-43BE-BE80-275AFBEF3308";
paths = (
{
closed = 1;
nodes = (
"975 0 LINE",
"975 1278 LINE",
"185 1278 LINE",
"185 0 LINE"
);
},
{
closed = 1;
nodes = (
"224 1243 LINE",
"936 1243 LINE",
"936 35 LINE",
"224 35 LINE"
);
},
{
closed = 1;
nodes = (
"250 0 LINE",
"945 1266 LINE",
"905 1266 LINE",
"210 0 LINE"
);
},
{
closed = 1;
nodes = (
"255 1266 LINE",
"215 1266 LINE",
"910 0 LINE",
"950 0 LINE"
);
}
);
width = 1160;
},
{
layerId = "F908E90C-D8C5-4664-8A98-C6332077FED2";
paths = (
{
closed = 1;
nodes = (
"975 0 LINE",
"975 1278 LINE",
"185 1278 LINE",
"185 0 LINE"
);
},
{
closed = 1;
nodes = (
"224 1243 LINE",
"936 1243 LINE",
"936 35 LINE",
"224 35 LINE"
);
},
{
closed = 1;
nodes = (
"250 0 LINE",
"945 1266 LINE",
"905 1266 LINE",
"210 0 LINE"
);
},
{
closed = 1;
nodes = (
"255 1266 LINE",
"215 1266 LINE",
"910 0 LINE",
"950 0 LINE"
);
}
);
width = 1160;
}
);
},
{
glyphname = exclam;
lastChange = "2021-12-01 12:49:26 +0000";
layers = (
{
layerId = "97B58FCF-3A12-4579-9B1E-E0D00032C06B";
paths = (
{
closed = 1;
nodes = (
"174 1278 LINE",
"133 1278 LINE",
"139 357 LINE",
"168 357 LINE"
);
},
{
closed = 1;
nodes = (
"175 -9 OFFCURVE",
"183 9 OFFCURVE",
"183 50 CURVE SMOOTH",
"183 66 LINE SMOOTH",
"183 106 OFFCURVE",
"175 125 OFFCURVE",
"153 125 CURVE SMOOTH",
"131 125 OFFCURVE",
"124 106 OFFCURVE",
"124 66 CURVE SMOOTH",
"124 50 LINE SMOOTH",
"124 9 OFFCURVE",
"131 -9 OFFCURVE",
"153 -9 CURVE SMOOTH"
);
}
);
width = 307;
},
{
layerId = "DF0EE8E4-AB0C-48FB-AB57-676AC09C8CC1";
paths = (
{
closed = 1;
nodes = (
"384 1278 LINE",
"56 1278 LINE",
"97 429 LINE",
"343 429 LINE"
);
},
{
closed = 1;
nodes = (
"329 -28 OFFCURVE",
"384 38 OFFCURVE",
"384 154 CURVE SMOOTH",
"384 171 LINE SMOOTH",
"384 285 OFFCURVE",
"329 353 OFFCURVE",
"224 353 CURVE SMOOTH",
"115 353 OFFCURVE",
"64 285 OFFCURVE",
"64 171 CURVE SMOOTH",
"64 154 LINE SMOOTH",
"64 38 OFFCURVE",
"115 -28 OFFCURVE",
"224 -28 CURVE SMOOTH"
);
}
);
width = 440;
},
{
layerId = "825A4CEE-7199-41F6-ACE2-F406C7380F94";
paths = (
{
closed = 1;
nodes = (
"278 1278 LINE",
"237 1278 LINE",
"242 367 LINE",
"273 367 LINE"
);
},
{
closed = 1;
nodes = (
"295 -14 OFFCURVE",
"316 4 OFFCURVE",
"316 39 CURVE SMOOTH",
"316 43 LINE SMOOTH",
"316 77 OFFCURVE",
"295 94 OFFCURVE",
"257 94 CURVE SMOOTH",
"222 94 OFFCURVE",
"200 77 OFFCURVE",
"200 43 CURVE SMOOTH",
"200 39 LINE SMOOTH",
"200 4 OFFCURVE",
"222 -14 OFFCURVE",
"257 -14 CURVE SMOOTH"
);
}
);
width = 516;
},
{
layerId = "3B7D2D6B-4C7F-469B-8FA8-9D341C52EB57";
paths = (
{
closed = 1;
nodes = (
"532 1278 LINE",
"100 1278 LINE",
"143 434 LINE",
"490 434 LINE"
);
},
{
closed = 1;
nodes = (
"462 -33 OFFCURVE",
"528 38 OFFCURVE",
"528 151 CURVE SMOOTH",
"528 156 LINE SMOOTH",
"528 270 OFFCURVE",
"462 342 OFFCURVE",
"316 342 CURVE SMOOTH",
"170 342 OFFCURVE",
"105 270 OFFCURVE",
"105 156 CURVE SMOOTH",
"105 151 LINE SMOOTH",
"105 38 OFFCURVE",
"170 -33 OFFCURVE",
"316 -33 CURVE SMOOTH"
);
}
);
width = 632;
},
{
layerId = "D1180855-BCFE-435D-BBAD-373D6E72A0DF";
paths = (
{
closed = 1;
nodes = (
"279 1278 LINE",
"95 1278 LINE",
"118 383 LINE",
"256 383 LINE"
);
},
{
closed = 1;
nodes = (
"252 -18 OFFCURVE",
"284 25 OFFCURVE",
"284 103 CURVE SMOOTH",
"284 120 LINE SMOOTH",
"284 197 OFFCURVE",
"252 240 OFFCURVE",
"189 240 CURVE SMOOTH",
"123 240 OFFCURVE",
"94 197 OFFCURVE",
"94 120 CURVE SMOOTH",
"94 103 LINE SMOOTH",
"94 25 OFFCURVE",
"123 -18 OFFCURVE",
"189 -18 CURVE SMOOTH"
);
}
);
width = 374;
},
{
layerId = "13EBB120-61C6-43BE-BE80-275AFBEF3308";
paths = (
{
closed = 1;
nodes = (
"405 1278 LINE",
"169 1278 LINE",
"193 401 LINE",
"382 401 LINE"
);
},
{
closed = 1;
nodes = (
"382 -24 OFFCURVE",
"427 23 OFFCURVE",
"427 100 CURVE SMOOTH",
"427 104 LINE SMOOTH",
"427 181 OFFCURVE",
"382 228 OFFCURVE",
"287 228 CURVE SMOOTH",
"194 228 OFFCURVE",
"148 181 OFFCURVE",
"148 104 CURVE SMOOTH",
"148 100 LINE SMOOTH",
"148 23 OFFCURVE",
"194 -24 OFFCURVE",
"287 -24 CURVE SMOOTH"
);
}
);
width = 574;
},
{
layerId = "C57162E4-21E6-4CBA-854D-82A45BE477A0";
paths = (
{
closed = 1;
nodes = (
"232 1278 LINE",
"191 1278 LINE",
"197 362 LINE",
"227 362 LINE"
);
},
{
closed = 1;
nodes = (
"241 -12 OFFCURVE",
"256 7 OFFCURVE",
"256 45 CURVE SMOOTH",
"256 55 LINE SMOOTH",
"256 92 OFFCURVE",
"241 110 OFFCURVE",
"211 110 CURVE SMOOTH",
"183 110 OFFCURVE",
"168 92 OFFCURVE",
"168 55 CURVE SMOOTH",
"168 45 LINE SMOOTH",
"168 7 OFFCURVE",
"183 -12 OFFCURVE",
"211 -12 CURVE SMOOTH"
);
}
);
width = 424;
},
{
layerId = "D1B4C6CF-B771-4849-A887-0D6177A69D8B";
paths = (
{
closed = 1;
nodes = (
"458 1278 LINE",
"78 1278 LINE",
"120 432 LINE",
"417 432 LINE"
);
},
{
closed = 1;
nodes = (
"396 -30 OFFCURVE",
"456 39 OFFCURVE",
"456 154 CURVE SMOOTH",
"456 165 LINE SMOOTH",
"456 279 OFFCURVE",
"396 349 OFFCURVE",
"270 349 CURVE SMOOTH",
"143 349 OFFCURVE",
"85 279 OFFCURVE",
"85 165 CURVE SMOOTH",
"85 154 LINE SMOOTH",
"85 39 OFFCURVE",
"143 -30 OFFCURVE",
"270 -30 CURVE SMOOTH"
);
}
);
width = 536;
},
{
layerId = "F908E90C-D8C5-4664-8A98-C6332077FED2";
paths = (
{
closed = 1;
nodes = (
"342 1278 LINE",
"132 1278 LINE",
"155 402 LINE",
"319 402 LINE"
);
},
{
closed = 1;
nodes = (
"316 -21 OFFCURVE",
"354 24 OFFCURVE",
"354 102 CURVE SMOOTH",
"354 112 LINE SMOOTH",
"354 189 OFFCURVE",
"316 234 OFFCURVE",
"237 234 CURVE SMOOTH",
"157 234 OFFCURVE",
"120 189 OFFCURVE",
"120 112 CURVE SMOOTH",
"120 102 LINE SMOOTH",
"120 24 OFFCURVE",
"157 -21 OFFCURVE",
"237 -21 CURVE SMOOTH"
);
}
);
width = 474;
}
);
unicode = 0021;
},
{
glyphname = numbersign;
lastChange = "2021-12-01 12:49:26 +0000";
layers = (
{
layerId = "97B58FCF-3A12-4579-9B1E-E0D00032C06B";
paths = (
{
closed = 1;
nodes = (
"210 0 LINE",
"302 1278 LINE",
"267 1278 LINE",
"175 0 LINE"
);
},
{
closed = 1;
nodes = (
"685 398 LINE",
"685 429 LINE",
"52 429 LINE",
"52 398 LINE"
);
},
{
closed = 1;
nodes = (
"507 0 LINE",
"599 1278 LINE",
"564 1278 LINE",
"472 0 LINE"
);
},
{
closed = 1;
nodes = (
"722 860 LINE",
"722 892 LINE",
"89 892 LINE",
"89 860 LINE"
);
}
);
width = 774;
},
{
layerId = "DF0EE8E4-AB0C-48FB-AB57-676AC09C8CC1";
paths = (
{
closed = 1;
nodes = (
"332 0 LINE",
"468 1278 LINE",
"229 1278 LINE",
"93 0 LINE"
);
},
{
closed = 1;
nodes = (
"844 276 LINE",
"844 505 LINE",
"32 505 LINE",
"32 276 LINE"
);
},
{
closed = 1;
nodes = (
"693 0 LINE",
"827 1278 LINE",
"588 1278 LINE",
"453 0 LINE"
);
},
{
closed = 1;
nodes = (
"888 774 LINE",
"888 1002 LINE",
"78 1002 LINE",
"78 774 LINE"
);
}
);
width = 920;
},
{
layerId = "825A4CEE-7199-41F6-ACE2-F406C7380F94";
paths = (
{
closed = 1;
nodes = (
"399 0 LINE",
"609 1278 LINE",
"572 1278 LINE",
"362 0 LINE"
);
},
{
closed = 1;
nodes = (
"1386 370 LINE",
"1386 402 LINE",
"102 402 LINE",
"102 370 LINE"
);
},
{
closed = 1;
nodes = (
"1000 0 LINE",
"1206 1278 LINE",
"1169 1278 LINE",
"962 0 LINE"
);
},
{
closed = 1;
nodes = (
"1466 885 LINE",
"1466 917 LINE",
"186 917 LINE",
"186 885 LINE"
);
}
);
width = 1568;
},
{
layerId = "3B7D2D6B-4C7F-469B-8FA8-9D341C52EB57";
paths = (
{
closed = 1;
nodes = (
"500 0 LINE",
"710 1278 LINE",
"404 1278 LINE",
"194 0 LINE"
);
},
{
closed = 1;
nodes = (
"1329 240 LINE",
"1329 505 LINE",
"52 505 LINE",
"52 240 LINE"
);
},
{
closed = 1;
nodes = (
"1069 0 LINE",
"1269 1278 LINE",
"961 1278 LINE",
"761 0 LINE"
);
},
{
closed = 1;
nodes = (
"1404 764 LINE",
"1404 1029 LINE",
"127 1029 LINE",
"127 764 LINE"
);
}
);
width = 1456;
},
{
layerId = "D1180855-BCFE-435D-BBAD-373D6E72A0DF";
paths = (
{
closed = 1;
nodes = (
"271 0 LINE",
"385 1278 LINE",
"248 1278 LINE",
"134 0 LINE"
);
},
{
closed = 1;
nodes = (
"765 337 LINE",
"765 467 LINE",
"42 467 LINE",
"42 337 LINE"
);
},
{
closed = 1;
nodes = (
"600 0 LINE",
"713 1278 LINE",
"576 1278 LINE",
"463 0 LINE"
);
},
{
closed = 1;
nodes = (
"805 817 LINE",
"805 947 LINE",
"84 947 LINE",
"84 817 LINE"
);
}
);
width = 847;
},
{
layerId = "13EBB120-61C6-43BE-BE80-275AFBEF3308";
paths = (
{
closed = 1;
nodes = (
"453 0 LINE",
"663 1278 LINE",
"482 1278 LINE",
"272 0 LINE"
);
},
{
closed = 1;
nodes = (
"1356 301 LINE",
"1356 457 LINE",
"77 457 LINE",
"77 301 LINE"
);
},
{
closed = 1;
nodes = (
"1037 0 LINE",
"1240 1278 LINE",
"1058 1278 LINE",
"855 0 LINE"
);
},
{
closed = 1;
nodes = (
"1433 820 LINE",
"1433 977 LINE",
"156 977 LINE",
"156 820 LINE"
);
}
);
width = 1510;
},
{
layerId = "C57162E4-21E6-4CBA-854D-82A45BE477A0";
paths = (
{
closed = 1;
nodes = (
"310 0 LINE",
"462 1278 LINE",
"426 1278 LINE",
"274 0 LINE"
);
},
{
closed = 1;
nodes = (
"1042 384 LINE",
"1042 416 LINE",
"83 416 LINE",
"83 384 LINE"
);
},
{
closed = 1;
nodes = (
"760 0 LINE",
"909 1278 LINE",
"873 1278 LINE",
"723 0 LINE"
);
},
{
closed = 1;
nodes = (
"1100 873 LINE",
"1100 905 LINE",
"144 905 LINE",
"144 873 LINE"
);
}
);
width = 1183;
},
{
layerId = "D1B4C6CF-B771-4849-A887-0D6177A69D8B";
paths = (
{
closed = 1;
nodes = (
"416 0 LINE",
"589 1278 LINE",
"317 1278 LINE",
"144 0 LINE"
);
},
{
closed = 1;
nodes = (
"1087 258 LINE",
"1087 505 LINE",
"42 505 LINE",
"42 258 LINE"
);
},
{
closed = 1;
nodes = (
"881 0 LINE",
"1048 1278 LINE",
"775 1278 LINE",
"607 0 LINE"
);
},
{
closed = 1;
nodes = (
"1146 769 LINE",
"1146 1016 LINE",
"103 1016 LINE",
"103 769 LINE"
);
}
);
width = 1188;
},
{
layerId = "F908E90C-D8C5-4664-8A98-C6332077FED2";
paths = (
{
closed = 1;
nodes = (
"363 0 LINE",
"525 1278 LINE",
"366 1278 LINE",
"204 0 LINE"
);
},
{
closed = 1;
nodes = (
"1062 319 LINE",
"1062 462 LINE",
"61 462 LINE",
"61 319 LINE"
);
},
{
closed = 1;
nodes = (
"820 0 LINE",
"978 1278 LINE",
"818 1278 LINE",
"660 0 LINE"
);
},
{
closed = 1;
nodes = (
"1120 819 LINE",
"1120 962 LINE",
"121 962 LINE",
"121 819 LINE"
);
}
);
width = 1180;
}
);
unicode = 0023;
},
{
glyphname = percent;
lastChange = "2021-12-01 12:49:26 +0000";
layers = (
{
layerId = "97B58FCF-3A12-4579-9B1E-E0D00032C06B";
paths = (
{
closed = 1;
nodes = (
"266 0 LINE",
"735 1278 LINE",
"700 1278 LINE",
"231 0 LINE"
);
},
{
closed = 1;
nodes = (
"822 -15 OFFCURVE",
"873 55 OFFCURVE",
"873 178 CURVE",
"873 411 LINE",
"873 535 OFFCURVE",
"822 605 OFFCURVE",
"719 605 CURVE SMOOTH",
"616 605 OFFCURVE",
"564 535 OFFCURVE",
"564 411 CURVE",
"564 178 LINE",
"564 55 OFFCURVE",
"616 -15 OFFCURVE",
"719 -15 CURVE SMOOTH"
);
},
{
closed = 1;
nodes = (
"638 17 OFFCURVE",
"599 70 OFFCURVE",
"599 177 CURVE SMOOTH",
"599 413 LINE SMOOTH",
"599 520 OFFCURVE",
"638 573 OFFCURVE",
"719 573 CURVE SMOOTH",
"800 573 OFFCURVE",
"838 520 OFFCURVE",
"838 413 CURVE SMOOTH",
"838 177 LINE SMOOTH",
"838 70 OFFCURVE",
"800 17 OFFCURVE",
"719 17 CURVE SMOOTH"
);
},
{
closed = 1;
nodes = (
"351 673 OFFCURVE",
"402 743 OFFCURVE",
"402 866 CURVE",
"402 1099 LINE",
"402 1222 OFFCURVE",
"351 1292 OFFCURVE",
"248 1292 CURVE SMOOTH",
"145 1292 OFFCURVE",
"93 1222 OFFCURVE",
"93 1099 CURVE",
"93 866 LINE",
"93 743 OFFCURVE",
"145 673 OFFCURVE",
"248 673 CURVE SMOOTH"
);
},
{
closed = 1;
nodes = (
"167 704 OFFCURVE",
"128 757 OFFCURVE",
"128 864 CURVE SMOOTH",
"128 1101 LINE SMOOTH",
"128 1207 OFFCURVE",
"167 1261 OFFCURVE",
"248 1261 CURVE SMOOTH",
"329 1261 OFFCURVE",
"367 1207 OFFCURVE",
"367 1101 CURVE SMOOTH",
"367 864 LINE SMOOTH",
"367 757 OFFCURVE",
"329 704 OFFCURVE",
"248 704 CURVE SMOOTH"
);
}
);
width = 966;
},
{
layerId = "DF0EE8E4-AB0C-48FB-AB57-676AC09C8CC1";
paths = (
{
closed = 1;
nodes = (
"423 0 LINE",
"971 1278 LINE",
"780 1278 LINE",
"228 0 LINE"
);
},
{
closed = 1;
nodes = (
"1080 -24 OFFCURVE",
"1159 68 OFFCURVE",
"1159 234 CURVE SMOOTH",
"1159 389 LINE SMOOTH",
"1159 555 OFFCURVE",
"1080 647 OFFCURVE",
"918 647 CURVE SMOOTH",
"756 647 OFFCURVE",
"677 555 OFFCURVE",
"677 389 CURVE SMOOTH",
"677 234 LINE SMOOTH",
"677 68 OFFCURVE",
"756 -24 OFFCURVE",
"918 -24 CURVE SMOOTH"
);
},
{
closed = 1;
nodes = (
"881 134 OFFCURVE",
"868 162 OFFCURVE",
"868 224 CURVE SMOOTH",
"868 398 LINE SMOOTH",
"868 461 OFFCURVE",
"881 489 OFFCURVE",
"918 489 CURVE SMOOTH",
"955 489 OFFCURVE",
"968 461 OFFCURVE",
"968 398 CURVE SMOOTH",
"968 224 LINE SMOOTH",
"968 162 OFFCURVE",
"955 134 OFFCURVE",
"918 134 CURVE SMOOTH"
);
},
{
closed = 1;
nodes = (
"445 628 OFFCURVE",
"524 720 OFFCURVE",
"524 885 CURVE SMOOTH",
"524 1041 LINE SMOOTH",
"524 1206 OFFCURVE",
"445 1298 OFFCURVE",
"283 1298 CURVE SMOOTH",
"121 1298 OFFCURVE",
"42 1206 OFFCURVE",
"42 1041 CURVE SMOOTH",
"42 885 LINE SMOOTH",
"42 720 OFFCURVE",
"121 628 OFFCURVE",
"283 628 CURVE SMOOTH"
);
},
{
closed = 1;
nodes = (
"246 786 OFFCURVE",
"234 813 OFFCURVE",
"234 876 CURVE SMOOTH",
"234 1050 LINE SMOOTH",
"234 1113 OFFCURVE",
"246 1140 OFFCURVE",
"283 1140 CURVE SMOOTH",
"320 1140 OFFCURVE",
"333 1113 OFFCURVE",
"333 1050 CURVE SMOOTH",
"333 876 LINE SMOOTH",
"333 813 OFFCURVE",
"320 786 OFFCURVE",
"283 786 CURVE SMOOTH"
);
}
);
width = 1201;
},
{
layerId = "825A4CEE-7199-41F6-ACE2-F406C7380F94";
paths = (
{
closed = 1;
nodes = (
"386 0 LINE",
"1379 1278 LINE",
"1338 1278 LINE",
"345 0 LINE"
);
},
{
closed = 1;
nodes = (
"1482 -21 OFFCURVE",
"1596 94 OFFCURVE",
"1596 281 CURVE",
"1596 285 LINE",
"1596 472 OFFCURVE",
"1482 587 OFFCURVE",
"1297 587 CURVE SMOOTH",
"1114 587 OFFCURVE",
"998 472 OFFCURVE",
"998 285 CURVE",
"998 281 LINE",
"998 94 OFFCURVE",
"1112 -21 OFFCURVE",
"1297 -21 CURVE SMOOTH"
);
},
{
closed = 1;
nodes = (
"1137 11 OFFCURVE",
"1034 109 OFFCURVE",
"1034 281 CURVE SMOOTH",
"1034 285 LINE SMOOTH",
"1034 457 OFFCURVE",
"1135 555 OFFCURVE",
"1297 555 CURVE SMOOTH",
"1457 555 OFFCURVE",
"1560 457 OFFCURVE",
"1560 285 CURVE SMOOTH",
"1560 281 LINE SMOOTH",
"1560 109 OFFCURVE",
"1459 11 OFFCURVE",
"1297 11 CURVE SMOOTH"
);
},
{
closed = 1;
nodes = (
"610 691 OFFCURVE",
"726 806 OFFCURVE",
"726 993 CURVE",
"726 997 LINE",
"726 1184 OFFCURVE",
"612 1299 OFFCURVE",
"427 1299 CURVE SMOOTH",
"241 1299 OFFCURVE",
"128 1184 OFFCURVE",
"128 997 CURVE",
"128 993 LINE",
"128 806 OFFCURVE",
"241 691 OFFCURVE",
"427 691 CURVE SMOOTH"
);
},
{
closed = 1;
nodes = (
"266 723 OFFCURVE",
"163 820 OFFCURVE",
"163 993 CURVE SMOOTH",
"163 997 LINE SMOOTH",
"163 1169 OFFCURVE",
"265 1267 OFFCURVE",
"427 1267 CURVE SMOOTH",
"587 1267 OFFCURVE",
"690 1169 OFFCURVE",
"690 997 CURVE SMOOTH",
"690 993 LINE SMOOTH",
"690 820 OFFCURVE",
"589 723 OFFCURVE",
"427 723 CURVE SMOOTH"
);
}
);
width = 1724;
},
{
layerId = "3B7D2D6B-4C7F-469B-8FA8-9D341C52EB57";
paths = (
{
closed = 1;
nodes = (
"662 0 LINE",
"1690 1278 LINE",
"1334 1278 LINE",
"299 0 LINE"
);
},
{
closed = 1;
nodes = (
"1782 -45 OFFCURVE",
"1923 82 OFFCURVE",
"1923 306 CURVE",
"1923 315 LINE",
"1923 538 OFFCURVE",
"1780 664 OFFCURVE",
"1533 664 CURVE SMOOTH",
"1285 664 OFFCURVE",
"1147 534 OFFCURVE",
"1147 315 CURVE",
"1147 306 LINE",
"1147 82 OFFCURVE",
"1285 -45 OFFCURVE",
"1533 -45 CURVE SMOOTH"
);
},
{
closed = 1;
nodes = (
"1456 180 OFFCURVE",
"1414 224 OFFCURVE",
"1414 306 CURVE SMOOTH",
"1414 313 LINE SMOOTH",
"1414 393 OFFCURVE",
"1455 440 OFFCURVE",
"1533 440 CURVE SMOOTH",
"1613 440 OFFCURVE",
"1652 393 OFFCURVE",
"1652 313 CURVE SMOOTH",
"1652 306 LINE SMOOTH",
"1652 224 OFFCURVE",
"1613 180 OFFCURVE",
"1533 180 CURVE SMOOTH"
);
},
{
closed = 1;
nodes = (
"703 616 OFFCURVE",
"844 746 OFFCURVE",
"844 966 CURVE",
"844 975 LINE",
"844 1198 OFFCURVE",
"703 1324 OFFCURVE",
"454 1324 CURVE SMOOTH",
"207 1324 OFFCURVE",
"68 1198 OFFCURVE",
"68 975 CURVE",
"68 966 LINE",
"68 742 OFFCURVE",
"207 616 OFFCURVE",
"454 616 CURVE SMOOTH"
);
},
{
closed = 1;
nodes = (
"378 840 OFFCURVE",
"335 885 OFFCURVE",
"335 966 CURVE SMOOTH",
"335 974 LINE SMOOTH",
"335 1054 OFFCURVE",
"376 1100 OFFCURVE",
"454 1100 CURVE SMOOTH",
"534 1100 OFFCURVE",
"573 1054 OFFCURVE",
"573 974 CURVE SMOOTH",
"573 966 LINE SMOOTH",
"573 885 OFFCURVE",
"534 840 OFFCURVE",
"454 840 CURVE SMOOTH"
);
}
);
width = 1991;
},
{
layerId = "D1180855-BCFE-435D-BBAD-373D6E72A0DF";
paths = (
{
closed = 1;
nodes = (
"385 0 LINE",
"900 1278 LINE",
"751 1278 LINE",
"234 0 LINE"
);
},
{
closed = 1;
nodes = (
"1008 -22 OFFCURVE",
"1080 64 OFFCURVE",
"1080 219 CURVE SMOOTH",
"1080 395 LINE SMOOTH",
"1080 550 OFFCURVE",
"1008 636 OFFCURVE",
"862 636 CURVE SMOOTH",
"716 636 OFFCURVE",
"645 550 OFFCURVE",
"645 395 CURVE SMOOTH",
"645 219 LINE SMOOTH",
"645 64 OFFCURVE",
"716 -22 OFFCURVE",
"862 -22 CURVE SMOOTH"
);
},
{
closed = 1;
nodes = (
"813 102 OFFCURVE",
"793 137 OFFCURVE",
"793 211 CURVE SMOOTH",
"793 402 LINE SMOOTH",
"793 477 OFFCURVE",
"813 512 OFFCURVE",
"862 512 CURVE SMOOTH",
"911 512 OFFCURVE",
"931 477 OFFCURVE",
"931 402 CURVE SMOOTH",
"931 211 LINE SMOOTH",
"931 137 OFFCURVE",
"911 102 OFFCURVE",
"862 102 CURVE SMOOTH"
);
},
{
closed = 1;
nodes = (
"418 640 OFFCURVE",
"489 726 OFFCURVE",
"489 880 CURVE SMOOTH",
"489 1057 LINE SMOOTH",
"489 1210 OFFCURVE",
"418 1296 OFFCURVE",
"272 1296 CURVE SMOOTH",
"125 1296 OFFCURVE",
"54 1210 OFFCURVE",
"54 1057 CURVE SMOOTH",
"54 880 LINE SMOOTH",
"54 726 OFFCURVE",
"125 640 OFFCURVE",
"272 640 CURVE SMOOTH"
);
},
{
closed = 1;
nodes = (
"223 764 OFFCURVE",
"203 798 OFFCURVE",
"203 873 CURVE SMOOTH",
"203 1064 LINE SMOOTH",
"203 1138 OFFCURVE",
"223 1173 OFFCURVE",
"272 1173 CURVE SMOOTH",
"320 1173 OFFCURVE",
"340 1138 OFFCURVE",
"340 1064 CURVE SMOOTH",
"340 873 LINE SMOOTH",
"340 798 OFFCURVE",
"320 764 OFFCURVE",
"272 764 CURVE SMOOTH"
);
}
);
width = 1134;
},
{
layerId = "13EBB120-61C6-43BE-BE80-275AFBEF3308";
paths = (
{
closed = 1;
nodes = (
"532 0 LINE",
"1585 1278 LINE",
"1362 1278 LINE",
"308 0 LINE"
);
},
{
closed = 1;
nodes = (
"1662 -35 OFFCURVE",
"1792 87 OFFCURVE",
"1792 296 CURVE",
"1792 303 LINE",
"1792 511 OFFCURVE",
"1661 632 OFFCURVE",
"1440 632 CURVE SMOOTH",
"1219 632 OFFCURVE",
"1090 508 OFFCURVE",
"1090 303 CURVE",
"1090 296 LINE",
"1090 87 OFFCURVE",
"1218 -35 OFFCURVE",
"1440 -35 CURVE SMOOTH"
);
},
{
closed = 1;
nodes = (
"1328 110 OFFCURVE",
"1261 176 OFFCURVE",
"1261 296 CURVE SMOOTH",
"1261 301 LINE SMOOTH",
"1261 420 OFFCURVE",
"1327 488 OFFCURVE",
"1440 488 CURVE SMOOTH",
"1553 488 OFFCURVE",
"1619 420 OFFCURVE",
"1619 301 CURVE SMOOTH",
"1619 296 LINE SMOOTH",
"1619 176 OFFCURVE",
"1554 110 OFFCURVE",
"1440 110 CURVE SMOOTH"
);
},
{
closed = 1;
nodes = (
"669 647 OFFCURVE",
"800 771 OFFCURVE",
"800 977 CURVE",
"800 984 LINE",
"800 1192 OFFCURVE",
"670 1314 OFFCURVE",
"448 1314 CURVE SMOOTH",
"226 1314 OFFCURVE",
"98 1192 OFFCURVE",
"98 984 CURVE",
"98 977 LINE",
"98 769 OFFCURVE",
"226 647 OFFCURVE",
"448 647 CURVE SMOOTH"
);
},
{
closed = 1;
nodes = (
"336 791 OFFCURVE",
"268 858 OFFCURVE",
"268 977 CURVE SMOOTH",
"268 984 LINE SMOOTH",
"268 1102 OFFCURVE",
"335 1170 OFFCURVE",
"448 1170 CURVE SMOOTH",
"561 1170 OFFCURVE",
"627 1102 OFFCURVE",
"627 984 CURVE SMOOTH",
"627 977 LINE SMOOTH",
"627 858 OFFCURVE",
"562 791 OFFCURVE",
"448 791 CURVE SMOOTH"
);
}
);
width = 1890;
},
{
layerId = "C57162E4-21E6-4CBA-854D-82A45BE477A0";
paths = (
{
closed = 1;
nodes = (
"332 0 LINE",
"1063 1278 LINE",
"1025 1278 LINE",
"294 0 LINE"
);
},
{
closed = 1;
nodes = (
"1160 -18 OFFCURVE",
"1241 83 OFFCURVE",
"1241 238 CURVE",
"1241 340 LINE",
"1241 496 OFFCURVE",
"1161 596 OFFCURVE",
"1015 596 CURVE SMOOTH",
"869 596 OFFCURVE",
"788 496 OFFCURVE",
"788 340 CURVE",
"788 238 LINE",
"788 83 OFFCURVE",
"868 -18 OFFCURVE",
"1015 -18 CURVE SMOOTH"
);
},
{
closed = 1;
nodes = (
"892 14 OFFCURVE",
"823 95 OFFCURVE",
"823 237 CURVE SMOOTH",
"823 341 LINE SMOOTH",
"823 482 OFFCURVE",
"891 564 OFFCURVE",
"1015 564 CURVE SMOOTH",
"1137 564 OFFCURVE",
"1206 482 OFFCURVE",
"1206 341 CURVE SMOOTH",
"1206 237 LINE SMOOTH",
"1206 95 OFFCURVE",
"1138 14 OFFCURVE",
"1015 14 CURVE SMOOTH"
);
},
{
closed = 1;
nodes = (
"489 682 OFFCURVE",
"570 783 OFFCURVE",
"570 938 CURVE",
"570 1040 LINE",
"570 1196 OFFCURVE",
"490 1296 OFFCURVE",
"344 1296 CURVE SMOOTH",
"197 1296 OFFCURVE",
"117 1196 OFFCURVE",
"117 1040 CURVE",
"117 938 LINE",
"117 783 OFFCURVE",
"197 682 OFFCURVE",
"344 682 CURVE SMOOTH"
);
},
{
closed = 1;
nodes = (
"221 714 OFFCURVE",
"152 795 OFFCURVE",
"152 937 CURVE SMOOTH",
"152 1041 LINE SMOOTH",
"152 1182 OFFCURVE",
"220 1264 OFFCURVE",
"344 1264 CURVE SMOOTH",
"466 1264 OFFCURVE",
"535 1182 OFFCURVE",
"535 1041 CURVE SMOOTH",
"535 937 LINE SMOOTH",
"535 795 OFFCURVE",
"467 714 OFFCURVE",
"344 714 CURVE SMOOTH"
);
}
);
width = 1357;
},
{
layerId = "D1B4C6CF-B771-4849-A887-0D6177A69D8B";
paths = (
{
closed = 1;
nodes = (
"544 0 LINE",
"1333 1278 LINE",
"1055 1278 LINE",
"262 0 LINE"
);
},
{
closed = 1;
nodes = (
"1428 -35 OFFCURVE",
"1540 76 OFFCURVE",
"1540 279 CURVE SMOOTH",
"1540 341 LINE SMOOTH",
"1540 545 OFFCURVE",
"1428 654 OFFCURVE",
"1226 654 CURVE SMOOTH",
"1023 654 OFFCURVE",
"912 545 OFFCURVE",
"912 341 CURVE SMOOTH",
"912 279 LINE SMOOTH",
"912 74 OFFCURVE",
"1023 -35 OFFCURVE",
"1226 -35 CURVE SMOOTH"
);
},
{
closed = 1;
nodes = (
"1170 156 OFFCURVE",
"1143 192 OFFCURVE",
"1143 264 CURVE SMOOTH",
"1143 355 LINE SMOOTH",
"1143 427 OFFCURVE",
"1170 463 OFFCURVE",
"1226 463 CURVE SMOOTH",
"1282 463 OFFCURVE",
"1309 427 OFFCURVE",
"1309 355 CURVE SMOOTH",
"1309 264 LINE SMOOTH",
"1309 192 OFFCURVE",
"1282 156 OFFCURVE",
"1226 156 CURVE SMOOTH"
);
},
{
closed = 1;
nodes = (
"571 622 OFFCURVE",
"683 733 OFFCURVE",
"683 936 CURVE SMOOTH",
"683 998 LINE SMOOTH",
"683 1202 OFFCURVE",
"571 1311 OFFCURVE",
"369 1311 CURVE SMOOTH",
"166 1311 OFFCURVE",
"55 1202 OFFCURVE",
"55 998 CURVE SMOOTH",
"55 936 LINE SMOOTH",
"55 731 OFFCURVE",
"166 622 OFFCURVE",
"369 622 CURVE SMOOTH"
);
},
{
closed = 1;
nodes = (
"313 813 OFFCURVE",
"286 849 OFFCURVE",
"286 921 CURVE SMOOTH",
"286 1012 LINE SMOOTH",
"286 1084 OFFCURVE",
"313 1120 OFFCURVE",
"369 1120 CURVE SMOOTH",
"425 1120 OFFCURVE",
"452 1084 OFFCURVE",
"452 1012 CURVE SMOOTH",
"452 921 LINE SMOOTH",
"452 849 OFFCURVE",
"425 813 OFFCURVE",
"369 813 CURVE SMOOTH"
);
}
);
width = 1595;
},
{
layerId = "F908E90C-D8C5-4664-8A98-C6332077FED2";
paths = (
{
closed = 1;
nodes = (
"459 0 LINE",
"1247 1278 LINE",
"1061 1278 LINE",
"273 0 LINE"
);
},
{
closed = 1;
nodes = (
"1335 -26 OFFCURVE",
"1436 79 OFFCURVE",
"1436 261 CURVE SMOOTH",
"1436 350 LINE SMOOTH",
"1436 532 OFFCURVE",
"1335 635 OFFCURVE",
"1151 635 CURVE SMOOTH",
"968 635 OFFCURVE",
"868 530 OFFCURVE",
"868 350 CURVE SMOOTH",
"868 261 LINE SMOOTH",
"868 79 OFFCURVE",
"967 -26 OFFCURVE",
"1151 -26 CURVE SMOOTH"
);
},
{
closed = 1;
nodes = (
"1071 109 OFFCURVE",
"1027 160 OFFCURVE",
"1027 257 CURVE SMOOTH",
"1027 353 LINE SMOOTH",
"1027 450 OFFCURVE",
"1070 501 OFFCURVE",
"1151 501 CURVE SMOOTH",
"1232 501 OFFCURVE",
"1275 450 OFFCURVE",
"1275 353 CURVE SMOOTH",
"1275 257 LINE SMOOTH",
"1275 160 OFFCURVE",
"1233 109 OFFCURVE",
"1151 109 CURVE SMOOTH"
);
},
{
closed = 1;
nodes = (
"546 644 OFFCURVE",
"647 749 OFFCURVE",
"647 929 CURVE SMOOTH",
"647 1019 LINE SMOOTH",
"647 1199 OFFCURVE",
"546 1303 OFFCURVE",
"362 1303 CURVE SMOOTH",
"178 1303 OFFCURVE",
"78 1199 OFFCURVE",
"78 1019 CURVE SMOOTH",
"78 929 LINE SMOOTH",
"78 748 OFFCURVE",
"178 644 OFFCURVE",
"362 644 CURVE SMOOTH"
);
},
{
closed = 1;
nodes = (
"282 778 OFFCURVE",
"238 828 OFFCURVE",
"238 925 CURVE SMOOTH",
"238 1022 LINE SMOOTH",
"238 1118 OFFCURVE",
"281 1170 OFFCURVE",
"362 1170 CURVE SMOOTH",
"443 1170 OFFCURVE",
"486 1118 OFFCURVE",
"486 1022 CURVE SMOOTH",
"486 925 LINE SMOOTH",
"486 828 OFFCURVE",
"443 778 OFFCURVE",
"362 778 CURVE SMOOTH"
);
}
);
width = 1516;
}
);
unicode = 0025;
},
{
glyphname = ampersand;
lastChange = "2021-12-01 12:49:26 +0000";
layers = (
{
layerId = "97B58FCF-3A12-4579-9B1E-E0D00032C06B";
paths = (
{
closed = 1;
nodes = (
"681 0 LINE",
"681 2 LINE",
"653 50 OFFCURVE",
"549 227 OFFCURVE",
"516 282 CURVE SMOOTH",
"505 300 LINE",
"224 768 LINE SMOOTH",
"173 853 OFFCURVE",
"154 916 OFFCURVE",
"154 1014 CURVE SMOOTH",
"154 1030 LINE SMOOTH",
"154 1179 OFFCURVE",
"196 1257 OFFCURVE",
"310 1257 CURVE SMOOTH",
"380 1257 OFFCURVE",
"431 1229 OFFCURVE",
"479 1187 CURVE",
"473 1229 LINE",
"436 1265 OFFCURVE",
"382 1293 OFFCURVE",
"312 1293 CURVE SMOOTH",
"172 1293 OFFCURVE",
"115 1198 OFFCURVE",
"115 1030 CURVE SMOOTH",
"115 1015 LINE SMOOTH",
"115 912 OFFCURVE",
"137 837 OFFCURVE",
"189 753 CURVE SMOOTH",
"199 737 LINE",
"489 253 LINE",
"500 234 LINE SMOOTH",
"511 216 OFFCURVE",
"627 19 OFFCURVE",
"638 0 CURVE"
);
},
{
closed = 1;
nodes = (
"412 -15 OFFCURVE",
"475 72 OFFCURVE",
"510 250 CURVE",
"513 257 LINE",
"538 395 OFFCURVE",
"560 583 OFFCURVE",
"569 829 CURVE",
"531 829 LINE",
"521 612 OFFCURVE",
"507 434 OFFCURVE",
"486 298 CURVE",
"481 277 LINE",
"448 102 OFFCURVE",
"396 21 OFFCURVE",
"287 21 CURVE SMOOTH",
"173 21 OFFCURVE",
"119 92 OFFCURVE",
"119 254 CURVE SMOOTH",
"119 460 LINE SMOOTH",
"119 577 OFFCURVE",
"148 660 OFFCURVE",
"227 723 CURVE",
"205 754 LINE",
"101 672 OFFCURVE",
"80 567 OFFCURVE",
"80 456 CURVE SMOOTH",
"80 254 LINE SMOOTH",
"80 74 OFFCURVE",
"145 -15 OFFCURVE",
"286 -15 CURVE SMOOTH"
);
}
);
width = 664;
},
{
layerId = "DF0EE8E4-AB0C-48FB-AB57-676AC09C8CC1";
paths = (
{
closed = 1;
nodes = (
"1072 1 LINE",
"1072 20 LINE",
"960 185 OFFCURVE",
"883 298 OFFCURVE",
"782 429 CURVE SMOOTH",
"726 502 LINE",
"506 805 LINE SMOOTH",
"461 867 OFFCURVE",
"440 904 OFFCURVE",
"440 944 CURVE SMOOTH",
"440 947 LINE SMOOTH",
"440 1001 OFFCURVE",
"478 1028 OFFCURVE",
"549 1028 CURVE SMOOTH",
"622 1028 OFFCURVE",
"684 1009 OFFCURVE",
"727 991 CURVE",
"714 1247 LINE",
"653 1276 OFFCURVE",
"563 1300 OFFCURVE",
"447 1300 CURVE SMOOTH",
"244 1300 OFFCURVE",
"118 1183 OFFCURVE",
"118 1003 CURVE SMOOTH",
"118 994 LINE SMOOTH",
"118 875 OFFCURVE",
"160 800 OFFCURVE",
"243 690 CURVE SMOOTH",
"291 626 LINE",
"570 256 LINE",
"609 219 LINE",
"659 151 OFFCURVE",
"715 74 OFFCURVE",
"765 1 CURVE"
);
},
{
closed = 1;
nodes = (
"565 -22 OFFCURVE",
"645 42 OFFCURVE",
"711 147 CURVE",
"846 279 LINE",
"957 426 OFFCURVE",
"998 626 OFFCURVE",
"1005 832 CURVE",
"723 832 LINE",
"723 705 OFFCURVE",
"709 569 OFFCURVE",
"660 469 CURVE",
"561 323 LINE",
"542 277 OFFCURVE",
"510 246 OFFCURVE",
"438 246 CURVE SMOOTH",
"363 246 OFFCURVE",
"327 295 OFFCURVE",
"327 378 CURVE SMOOTH",
"327 417 LINE SMOOTH",
"327 480 OFFCURVE",
"334 519 OFFCURVE",
"377 545 CURVE",
"226 766 LINE",
"90 683 OFFCURVE",
"36 575 OFFCURVE",
"36 412 CURVE SMOOTH",
"36 361 LINE SMOOTH",
"36 113 OFFCURVE",
"157 -22 OFFCURVE",
"399 -22 CURVE SMOOTH"
);
}
);
width = 1054;
},
{
layerId = "825A4CEE-7199-41F6-ACE2-F406C7380F94";
paths = (
{
closed = 1;
nodes = (
"1621 0 LINE",
"1621 4 LINE",
"1492 95 OFFCURVE",
"1417 148 OFFCURVE",
"1280 245 CURVE",
"1269 253 LINE",
"502 767 LINE SMOOTH",
"414 826 OFFCURVE",
"334 892 OFFCURVE",
"334 1008 CURVE",
"334 1009 LINE",
"334 1162 OFFCURVE",
"442 1260 OFFCURVE",
"736 1260 CURVE SMOOTH",
"960 1260 OFFCURVE",
"1117 1196 OFFCURVE",
"1220 1127 CURVE",
"1215 1169 LINE",
"1133 1227 OFFCURVE",
"970 1297 OFFCURVE",
"738 1297 CURVE SMOOTH",
"416 1297 OFFCURVE",
"293 1186 OFFCURVE",
"293 1009 CURVE",
"293 1007 LINE",
"293 891 OFFCURVE",
"361 815 OFFCURVE",
"457 753 CURVE",
"467 746 LINE",
"1245 224 LINE",
"1253 218 LINE",
"1323 168 OFFCURVE",
"1513 34 OFFCURVE",
"1560 0 CURVE"
);
},
{
closed = 1;
nodes = (
"938 -21 OFFCURVE",
"1134 67 OFFCURVE",
"1273 221 CURVE",
"1282 230 LINE",
"1392 361 OFFCURVE",
"1464 538 OFFCURVE",
"1499 749 CURVE",
"1456 749 LINE",
"1424 545 OFFCURVE",
"1355 376 OFFCURVE",
"1251 250 CURVE",
"1241 240 LINE",
"1109 96 OFFCURVE",
"923 16 OFFCURVE",
"685 16 CURVE SMOOTH",
"366 16 OFFCURVE",
"189 143 OFFCURVE",
"189 369 CURVE SMOOTH",
"189 379 LINE SMOOTH",
"189 553 OFFCURVE",
"283 663 OFFCURVE",
"487 743 CURVE",
"459 770 LINE",
"248 686 OFFCURVE",
"148 562 OFFCURVE",
"148 377 CURVE SMOOTH",
"148 368 LINE SMOOTH",
"148 121 OFFCURVE",
"340 -21 OFFCURVE",
"682 -21 CURVE SMOOTH"
);
}
);
width = 1649;
},
{
layerId = "3B7D2D6B-4C7F-469B-8FA8-9D341C52EB57";
paths = (
{
closed = 1;
nodes = (
"1734 0 LINE",
"1734 37 LINE",
"1695 73 OFFCURVE",
"1408 319 OFFCURVE",
"1356 366 CURVE",
"1200 498 LINE",
"739 843 LINE SMOOTH",
"686 882 OFFCURVE",
"661 911 OFFCURVE",
"661 943 CURVE SMOOTH",
"661 946 LINE SMOOTH",
"661 986 OFFCURVE",
"690 1014 OFFCURVE",
"803 1014 CURVE SMOOTH",
"939 1014 OFFCURVE",
"1110 985 OFFCURVE",
"1249 940 CURVE",
"1200 1243 LINE",
"1082 1283 OFFCURVE",
"937 1314 OFFCURVE",
"728 1314 CURVE SMOOTH",
"399 1314 OFFCURVE",
"231 1194 OFFCURVE",
"231 988 CURVE SMOOTH",
"231 979 LINE SMOOTH",
"231 882 OFFCURVE",
"273 808 OFFCURVE",
"362 739 CURVE",
"448 651 LINE",
"976 267 LINE",
"1065 192 LINE",
"1098 163 OFFCURVE",
"1245 39 OFFCURVE",
"1294 0 CURVE"
);
},
{
closed = 1;
nodes = (
"931 -39 OFFCURVE",
"1093 31 OFFCURVE",
"1242 150 CURVE",
"1341 235 LINE",
"1490 388 OFFCURVE",
"1578 551 OFFCURVE",
"1633 789 CURVE",
"1236 789 LINE",
"1212 650 OFFCURVE",
"1168 530 OFFCURVE",
"1083 423 CURVE",
"998 343 LINE",
"923 294 OFFCURVE",
"830 263 OFFCURVE",
"721 263 CURVE SMOOTH",
"547 263 OFFCURVE",
"462 331 OFFCURVE",
"462 434 CURVE SMOOTH",
"462 441 LINE SMOOTH",
"462 525 OFFCURVE",
"512 573 OFFCURVE",
"598 607 CURVE",
"372 820 LINE",
"162 729 OFFCURVE",
"72 592 OFFCURVE",
"72 402 CURVE SMOOTH",
"72 393 LINE SMOOTH",
"72 134 OFFCURVE",
"267 -39 OFFCURVE",
"671 -39 CURVE SMOOTH"
);
}
);
width = 1704;
},
{
layerId = "D1180855-BCFE-435D-BBAD-373D6E72A0DF";
paths = (
{
closed = 1;
nodes = (
"869 0 LINE",
"869 11 LINE",
"805 117 OFFCURVE",
"711 262 OFFCURVE",
"650 359 CURVE SMOOTH",
"620 407 LINE",
"368 790 LINE SMOOTH",
"312 875 OFFCURVE",
"294 930 OFFCURVE",
"294 997 CURVE SMOOTH",
"294 1003 LINE SMOOTH",
"294 1078 OFFCURVE",
"335 1131 OFFCURVE",
"425 1131 CURVE SMOOTH",
"494 1131 OFFCURVE",
"547 1107 OFFCURVE",
"591 1077 CURVE",
"581 1243 LINE",
"539 1273 OFFCURVE",
"473 1297 OFFCURVE",
"386 1297 CURVE SMOOTH",
"211 1297 OFFCURVE",
"113 1187 OFFCURVE",
"113 1009 CURVE SMOOTH",
"113 1002 LINE SMOOTH",
"113 892 OFFCURVE",
"149 817 OFFCURVE",
"215 720 CURVE",
"246 673 LINE",
"536 243 LINE",
"551 221 LINE",
"579 179 OFFCURVE",
"659 48 OFFCURVE",
"689 0 CURVE"
);
},
{
closed = 1;
nodes = (
"525 -19 OFFCURVE",
"591 60 OFFCURVE",
"656 212 CURVE",
"689 264 LINE",
"755 408 OFFCURVE",
"786 604 OFFCURVE",
"794 831 CURVE",
"618 831 LINE",
"613 649 OFFCURVE",
"603 507 OFFCURVE",
"573 384 CURVE",
"539 304 LINE",
"502 198 OFFCURVE",
"454 135 OFFCURVE",
"365 135 CURVE SMOOTH",
"278 135 OFFCURVE",
"236 194 OFFCURVE",
"236 316 CURVE SMOOTH",
"236 441 LINE SMOOTH",
"236 530 OFFCURVE",
"249 581 OFFCURVE",
"305 629 CURVE",
"212 759 LINE",
"98 674 OFFCURVE",
"58 578 OFFCURVE",
"58 425 CURVE SMOOTH",
"58 308 LINE SMOOTH",
"58 94 OFFCURVE",
"149 -19 OFFCURVE",
"348 -19 CURVE SMOOTH"
);
}
);
width = 851;
},
{
layerId = "13EBB120-61C6-43BE-BE80-275AFBEF3308";
paths = (
{
closed = 1;
nodes = (
"1676 0 LINE",
"1676 22 LINE",
"1553 126 OFFCURVE",
"1448 207 OFFCURVE",
"1315 312 CURVE",
"1234 373 LINE",
"656 786 LINE SMOOTH",
"563 852 OFFCURVE",
"505 899 OFFCURVE",
"505 975 CURVE",
"505 977 LINE",
"505 1066 OFFCURVE",
"572 1124 OFFCURVE",
"765 1124 CURVE SMOOTH",
"947 1124 OFFCURVE",
"1113 1078 OFFCURVE",
"1236 1022 CURVE",
"1209 1212 LINE",
"1109 1259 OFFCURVE",
"954 1306 OFFCURVE",
"733 1306 CURVE SMOOTH",
"416 1306 OFFCURVE",
"271 1190 OFFCURVE",
"271 998 CURVE SMOOTH",
"271 992 LINE SMOOTH",
"271 877 OFFCURVE",
"326 798 OFFCURVE",
"441 717 CURVE",
"474 679 LINE",
"1113 228 LINE",
"1153 204 LINE",
"1192 173 OFFCURVE",
"1368 34 OFFCURVE",
"1413 0 CURVE"
);
},
{
closed = 1;
nodes = (
"953 -30 OFFCURVE",
"1132 48 OFFCURVE",
"1277 182 CURVE",
"1331 233 LINE",
"1451 359 OFFCURVE",
"1546 541 OFFCURVE",
"1583 763 CURVE",
"1363 763 LINE",
"1329 588 OFFCURVE",
"1265 458 OFFCURVE",
"1177 351 CURVE",
"1132 301 LINE",
"1027 203 OFFCURVE",
"883 151 OFFCURVE",
"706 151 CURVE SMOOTH",
"474 151 OFFCURVE",
"348 252 OFFCURVE",
"348 401 CURVE SMOOTH",
"348 409 LINE SMOOTH",
"348 537 OFFCURVE",
"421 608 OFFCURVE",
"558 658 CURVE",
"429 784 LINE",
"211 703 OFFCURVE",
"117 576 OFFCURVE",
"117 383 CURVE SMOOTH",
"117 374 LINE SMOOTH",
"117 133 OFFCURVE",
"310 -30 OFFCURVE",
"690 -30 CURVE SMOOTH"
);
}
);
width = 1664;
},
{
layerId = "C57162E4-21E6-4CBA-854D-82A45BE477A0";
paths = (
{
closed = 1;
nodes = (
"1165 0 LINE",
"1165 3 LINE",
"1085 84 OFFCURVE",
"980 188 OFFCURVE",
"908 261 CURVE",
"899 271 LINE",
"364 779 LINE SMOOTH",
"286 854 OFFCURVE",
"240 925 OFFCURVE",
"240 1023 CURVE SMOOTH",
"240 1031 LINE SMOOTH",
"240 1167 OFFCURVE",
"320 1259 OFFCURVE",
"522 1259 CURVE SMOOTH",
"674 1259 OFFCURVE",
"779 1213 OFFCURVE",
"856 1158 CURVE",
"850 1200 LINE",
"790 1247 OFFCURVE",
"680 1295 OFFCURVE",
"524 1295 CURVE SMOOTH",
"295 1295 OFFCURVE",
"200 1188 OFFCURVE",
"200 1030 CURVE SMOOTH",
"200 1022 LINE SMOOTH",
"200 918 OFFCURVE",
"244 843 OFFCURVE",
"328 761 CURVE",
"334 755 LINE",
"880 237 LINE",
"889 226 LINE",
"947 169 OFFCURVE",
"1046 68 OFFCURVE",
"1113 0 CURVE"
);
},
{
closed = 1;
nodes = (
"689 -18 OFFCURVE",
"816 76 OFFCURVE",
"913 234 CURVE",
"919 243 LINE",
"989 376 OFFCURVE",
"1036 556 OFFCURVE",
"1060 782 CURVE",
"1020 782 LINE",
"998 574 OFFCURVE",
"955 402 OFFCURVE",
"890 272 CURVE",
"882 257 LINE",
"791 105 OFFCURVE",
"674 18 OFFCURVE",
"497 18 CURVE SMOOTH",
"275 18 OFFCURVE",
"155 132 OFFCURVE",
"155 354 CURVE SMOOTH",
"155 409 LINE SMOOTH",
"155 580 OFFCURVE",
"212 685 OFFCURVE",
"363 751 CURVE",
"338 780 LINE",
"171 702 OFFCURVE",
"115 577 OFFCURVE",
"115 406 CURVE SMOOTH",
"115 353 LINE SMOOTH",
"115 112 OFFCURVE",
"248 -18 OFFCURVE",
"495 -18 CURVE SMOOTH"
);
}
);
width = 1169;
},
{
layerId = "D1B4C6CF-B771-4849-A887-0D6177A69D8B";
paths = (
{
closed = 1;
nodes = (
"1411 1 LINE",
"1411 29 LINE",
"1288 171 OFFCURVE",
"1191 270 OFFCURVE",
"1066 401 CURVE",
"982 489 LINE",
"635 825 LINE SMOOTH",
"580 878 OFFCURVE",
"553 909 OFFCURVE",
"553 946 CURVE SMOOTH",
"553 949 LINE SMOOTH",
"553 994 OFFCURVE",
"584 1021 OFFCURVE",
"672 1021 CURVE SMOOTH",
"779 1021 OFFCURVE",
"899 997 OFFCURVE",
"993 965 CURVE",
"961 1245 LINE",
"871 1280 OFFCURVE",
"752 1307 OFFCURVE",
"588 1307 CURVE SMOOTH",
"319 1307 OFFCURVE",
"178 1184 OFFCURVE",
"178 994 CURVE SMOOTH",
"178 985 LINE SMOOTH",
"178 878 OFFCURVE",
"220 801 OFFCURVE",
"314 710 CURVE",
"375 649 LINE",
"787 265 LINE",
"838 205 LINE",
"884 156 OFFCURVE",
"980 55 OFFCURVE",
"1033 1 CURVE"
);
},
{
closed = 1;
nodes = (
"754 -31 OFFCURVE",
"884 38 OFFCURVE",
"993 153 CURVE",
"1110 264 LINE",
"1246 423 OFFCURVE",
"1309 601 OFFCURVE",
"1335 810 CURVE",
"994 810 LINE",
"982 680 OFFCURVE",
"952 560 OFFCURVE",
"894 453 CURVE",
"797 340 LINE",
"747 289 OFFCURVE",
"681 255 OFFCURVE",
"584 255 CURVE SMOOTH",
"464 255 OFFCURVE",
"405 313 OFFCURVE",
"405 416 CURVE SMOOTH",
"405 428 LINE SMOOTH",
"405 515 OFFCURVE",
"431 558 OFFCURVE",
"494 587 CURVE",
"301 785 LINE",
"130 695 OFFCURVE",
"58 576 OFFCURVE",
"58 400 CURVE SMOOTH",
"58 384 LINE SMOOTH",
"58 124 OFFCURVE",
"213 -31 OFFCURVE",
"542 -31 CURVE SMOOTH"
);
}
);
width = 1377;
},
{
layerId = "F908E90C-D8C5-4664-8A98-C6332077FED2";
paths = (
{
closed = 1;
nodes = (
"1298 0 LINE",
"1298 16 LINE",
"1194 124 OFFCURVE",
"1091 228 OFFCURVE",
"990 325 CURVE",
"942 377 LINE",
"516 783 LINE SMOOTH",
"439 857 OFFCURVE",
"401 913 OFFCURVE",
"401 982 CURVE SMOOTH",
"401 987 LINE SMOOTH",
"401 1075 OFFCURVE",
"458 1128 OFFCURVE",
"602 1128 CURVE SMOOTH",
"729 1128 OFFCURVE",
"840 1092 OFFCURVE",
"927 1049 CURVE",
"908 1228 LINE",
"833 1267 OFFCURVE",
"723 1302 OFFCURVE",
"565 1302 CURVE SMOOTH",
"316 1302 OFFCURVE",
"195 1186 OFFCURVE",
"195 993 CURVE SMOOTH",
"195 986 LINE SMOOTH",
"195 877 OFFCURVE",
"235 807 OFFCURVE",
"323 716 CURVE",
"352 681 LINE",
"819 244 LINE",
"844 217 LINE",
"882 180 OFFCURVE",
"1025 42 OFFCURVE",
"1067 0 CURVE"
);
},
{
closed = 1;
nodes = (
"732 -24 OFFCURVE",
"864 53 OFFCURVE",
"968 187 CURVE",
"1022 243 LINE",
"1120 386 OFFCURVE",
"1173 574 OFFCURVE",
"1197 796 CURVE",
"1005 796 LINE",
"990 630 OFFCURVE",
"956 486 OFFCURVE",
"889 369 CURVE",
"837 304 LINE",
"769 200 OFFCURVE",
"675 143 OFFCURVE",
"538 143 CURVE SMOOTH",
"375 143 OFFCURVE",
"291 223 OFFCURVE",
"291 378 CURVE SMOOTH",
"291 408 LINE SMOOTH",
"291 527 OFFCURVE",
"331 595 OFFCURVE",
"429 642 CURVE",
"325 780 LINE",
"152 688 OFFCURVE",
"86 578 OFFCURVE",
"86 392 CURVE SMOOTH",
"86 360 LINE SMOOTH",
"86 114 OFFCURVE",
"229 -24 OFFCURVE",
"520 -24 CURVE SMOOTH"
);
}
);
width = 1280;
}
);
unicode = 0026;
},
{
glyphname = quotesingle;
lastChange = "2021-12-01 12:49:26 +0000";
layers = (
{
layerId = "97B58FCF-3A12-4579-9B1E-E0D00032C06B";
paths = (
{
closed = 1;
nodes = (
"122 1334 LINE",
"82 1334 LINE",
"87 920 LINE",
"117 920 LINE"
);
}
);
width = 204;
},
{
layerId = "DF0EE8E4-AB0C-48FB-AB57-676AC09C8CC1";
paths = (
{
closed = 1;
nodes = (
"320 1324 LINE",
"38 1324 LINE",
"66 824 LINE",
"292 824 LINE"
);
}
);
width = 358;
},
{
layerId = "825A4CEE-7199-41F6-ACE2-F406C7380F94";
paths = (
{
closed = 1;
nodes = (
"210 1324 LINE",
"170 1324 LINE",
"174 822 LINE",
"206 822 LINE"
);
}
);
width = 380;
},
{
layerId = "3B7D2D6B-4C7F-469B-8FA8-9D341C52EB57";
paths = (
{
closed = 1;
nodes = (
"456 1314 LINE",
"68 1314 LINE",
"108 758 LINE",
"411 758 LINE"
);
}
);
width = 524;
},
{
layerId = "D1180855-BCFE-435D-BBAD-373D6E72A0DF";
paths = (
{
closed = 1;
nodes = (
"231 1329 LINE",
"60 1329 LINE",
"77 872 LINE",
"215 872 LINE"
);
}
);
width = 291;
},
{
layerId = "13EBB120-61C6-43BE-BE80-275AFBEF3308";
paths = (
{
closed = 1;
nodes = (
"335 1319 LINE",
"119 1319 LINE",
"141 790 LINE",
"311 790 LINE"
);
}
);
width = 454;
},
{
layerId = "C57162E4-21E6-4CBA-854D-82A45BE477A0";
paths = (
{
closed = 1;
nodes = (
"172 1329 LINE",
"132 1329 LINE",
"137 871 LINE",
"168 871 LINE"
);
}
);
width = 304;
},
{
layerId = "D1B4C6CF-B771-4849-A887-0D6177A69D8B";
paths = (
{
closed = 1;
nodes = (
"388 1319 LINE",
"53 1319 LINE",
"87 791 LINE",
"352 791 LINE"
);
}
);
width = 441;
},
{
layerId = "F908E90C-D8C5-4664-8A98-C6332077FED2";
paths = (
{
closed = 1;
nodes = (
"283 1324 LINE",
"90 1324 LINE",
"109 831 LINE",
"263 831 LINE"
);
}
);
width = 373;
}
);
leftKerningGroup = quotesingle;
rightKerningGroup = quotesingle;
unicode = 0027;
},
{
glyphname = parenleft;
lastChange = "2021-12-01 12:49:26 +0000";
layers = (
{
layerId = "97B58FCF-3A12-4579-9B1E-E0D00032C06B";
paths = (
{
closed = 1;
nodes = (
"159 1001 OFFCURVE",
"178 1163 OFFCURVE",
"300 1352 CURVE",
"256 1352 LINE",
"143 1174 OFFCURVE",
"121 1016 OFFCURVE",
"121 721 CURVE SMOOTH",
"121 390 LINE SMOOTH",
"121 96 OFFCURVE",
"143 -63 OFFCURVE",
"256 -241 CURVE",
"300 -241 LINE",
"178 -52 OFFCURVE",
"159 110 OFFCURVE",
"159 396 CURVE SMOOTH",
"159 716 LINE SMOOTH"
);
}
);
width = 340;
},
{
layerId = "DF0EE8E4-AB0C-48FB-AB57-676AC09C8CC1";
paths = (
{
closed = 1;
nodes = (
"357 911 OFFCURVE",
"418 1132 OFFCURVE",
"521 1352 CURVE",
"218 1352 LINE",
"123 1163 OFFCURVE",
"62 935 OFFCURVE",
"62 607 CURVE SMOOTH",
"62 504 LINE SMOOTH",
"62 175 OFFCURVE",
"123 -50 OFFCURVE",
"218 -239 CURVE",
"521 -239 LINE",
"418 -24 OFFCURVE",
"357 197 OFFCURVE",
"357 513 CURVE SMOOTH",
"357 598 LINE SMOOTH"
);
}
);
width = 518;
},
{
layerId = "825A4CEE-7199-41F6-ACE2-F406C7380F94";
paths = (
{
closed = 1;
nodes = (
"255 881 OFFCURVE",
"365 1146 OFFCURVE",
"577 1347 CURVE",
"531 1347 LINE",
"324 1145 OFFCURVE",
"216 880 OFFCURVE",
"216 572 CURVE SMOOTH",
"216 551 LINE SMOOTH",
"216 237 OFFCURVE",
"324 -30 OFFCURVE",
"531 -231 CURVE",
"577 -231 LINE",
"365 -26 OFFCURVE",
"255 239 OFFCURVE",
"255 551 CURVE SMOOTH",
"255 572 LINE SMOOTH"
);
}
);
width = 705;
},
{
layerId = "3B7D2D6B-4C7F-469B-8FA8-9D341C52EB57";
paths = (
{
closed = 1;
nodes = (
"499 842 OFFCURVE",
"600 1102 OFFCURVE",
"821 1349 CURVE",
"428 1349 LINE",
"216 1116 OFFCURVE",
"120 870 OFFCURVE",
"120 552 CURVE SMOOTH",
"120 534 LINE SMOOTH",
"120 214 OFFCURVE",
"207 -25 OFFCURVE",
"422 -265 CURVE",
"821 -265 LINE",
"599 -16 OFFCURVE",
"499 251 OFFCURVE",
"499 534 CURVE SMOOTH",
"499 552 LINE SMOOTH"
);
}
);
width = 831;
},
{
layerId = "D1180855-BCFE-435D-BBAD-373D6E72A0DF";
paths = (
{
closed = 1;
nodes = (
"258 956 OFFCURVE",
"298 1148 OFFCURVE",
"411 1352 CURVE",
"237 1352 LINE",
"133 1169 OFFCURVE",
"92 976 OFFCURVE",
"92 664 CURVE SMOOTH",
"92 447 LINE SMOOTH",
"92 136 OFFCURVE",
"133 -57 OFFCURVE",
"237 -240 CURVE",
"411 -240 LINE",
"298 -38 OFFCURVE",
"258 154 OFFCURVE",
"258 455 CURVE SMOOTH",
"258 657 LINE SMOOTH"
);
}
);
width = 429;
},
{
layerId = "13EBB120-61C6-43BE-BE80-275AFBEF3308";
paths = (
{
closed = 1;
nodes = (
"384 852 OFFCURVE",
"490 1124 OFFCURVE",
"706 1348 CURVE",
"472 1348 LINE",
"268 1131 OFFCURVE",
"168 865 OFFCURVE",
"168 566 CURVE SMOOTH",
"168 547 LINE SMOOTH",
"168 236 OFFCURVE",
"263 -28 OFFCURVE",
"468 -248 CURVE",
"706 -248 LINE",
"489 -21 OFFCURVE",
"384 255 OFFCURVE",
"384 547 CURVE SMOOTH",
"384 566 LINE SMOOTH"
);
}
);
width = 774;
},
{
layerId = "C57162E4-21E6-4CBA-854D-82A45BE477A0";
paths = (
{
closed = 1;
nodes = (
"213 953 OFFCURVE",
"288 1155 OFFCURVE",
"445 1350 CURVE",
"400 1350 LINE",
"250 1160 OFFCURVE",
"175 960 OFFCURVE",
"175 647 CURVE SMOOTH",
"175 467 LINE SMOOTH",
"175 154 OFFCURVE",
"250 -46 OFFCURVE",
"400 -236 CURVE",
"445 -236 LINE",
"288 -40 OFFCURVE",
"213 161 OFFCURVE",
"213 470 CURVE SMOOTH",
"213 644 LINE SMOOTH"
);
}
);
width = 535;
},
{
layerId = "D1B4C6CF-B771-4849-A887-0D6177A69D8B";
paths = (
{
closed = 1;
nodes = (
"428 883 OFFCURVE",
"509 1118 OFFCURVE",
"671 1351 CURVE",
"323 1351 LINE",
"180 1155 OFFCURVE",
"91 914 OFFCURVE",
"91 583 CURVE SMOOTH",
"91 516 LINE SMOOTH",
"91 185 OFFCURVE",
"179 -56 OFFCURVE",
"320 -252 CURVE",
"671 -252 LINE",
"509 -19 OFFCURVE",
"428 216 OFFCURVE",
"428 530 CURVE SMOOTH",
"428 569 LINE SMOOTH"
);
}
);
width = 675;
},
{
layerId = "F908E90C-D8C5-4664-8A98-C6332077FED2";
paths = (
{
closed = 1;
nodes = (
"319 903 OFFCURVE",
"392 1139 OFFCURVE",
"557 1351 CURVE",
"355 1351 LINE",
"201 1150 OFFCURVE",
"130 920 OFFCURVE",
"130 613 CURVE SMOOTH",
"130 495 LINE SMOOTH",
"130 185 OFFCURVE",
"198 -44 OFFCURVE",
"353 -244 CURVE",
"557 -244 LINE",
"392 -30 OFFCURVE",
"319 205 OFFCURVE",
"319 501 CURVE SMOOTH",
"319 608 LINE SMOOTH"
);
}
);
width = 597;
}
);
leftKerningGroup = parenleft;
rightKerningGroup = parenleft;
unicode = 0028;
},
{
glyphname = parenright;
lastChange = "2021-12-01 12:49:26 +0000";
layers = (
{
layerId = "97B58FCF-3A12-4579-9B1E-E0D00032C06B";
paths = (
{
closed = 1;
nodes = (
"181 396 LINE SMOOTH",
"181 110 OFFCURVE",
"162 -52 OFFCURVE",
"40 -241 CURVE",
"84 -241 LINE",
"197 -63 OFFCURVE",
"219 96 OFFCURVE",
"219 390 CURVE SMOOTH",
"219 721 LINE SMOOTH",
"219 1016 OFFCURVE",
"197 1174 OFFCURVE",
"84 1352 CURVE",
"40 1352 LINE",
"162 1163 OFFCURVE",
"181 1001 OFFCURVE",
"181 716 CURVE SMOOTH"
);
}
);
width = 340;
},
{
layerId = "DF0EE8E4-AB0C-48FB-AB57-676AC09C8CC1";
paths = (
{
closed = 1;
nodes = (
"161 513 LINE SMOOTH",
"161 197 OFFCURVE",
"100 -24 OFFCURVE",
"-3 -239 CURVE",
"300 -239 LINE",
"395 -50 OFFCURVE",
"456 175 OFFCURVE",
"456 504 CURVE SMOOTH",
"456 607 LINE SMOOTH",
"456 935 OFFCURVE",
"395 1163 OFFCURVE",
"300 1352 CURVE",
"-3 1352 LINE",
"100 1132 OFFCURVE",
"161 911 OFFCURVE",
"161 598 CURVE SMOOTH"
);
}
);
width = 518;
},
{
layerId = "825A4CEE-7199-41F6-ACE2-F406C7380F94";
paths = (
{
closed = 1;
nodes = (
"450 551 LINE SMOOTH",
"450 239 OFFCURVE",
"340 -26 OFFCURVE",
"128 -231 CURVE",
"174 -231 LINE",
"381 -30 OFFCURVE",
"489 237 OFFCURVE",
"489 551 CURVE SMOOTH",
"489 572 LINE SMOOTH",
"489 880 OFFCURVE",
"381 1145 OFFCURVE",
"174 1347 CURVE",
"128 1347 LINE",
"340 1146 OFFCURVE",
"450 881 OFFCURVE",
"450 572 CURVE SMOOTH"
);
}
);
width = 705;
},
{
layerId = "3B7D2D6B-4C7F-469B-8FA8-9D341C52EB57";
paths = (
{
closed = 1;
nodes = (
"332 534 LINE SMOOTH",
"332 251 OFFCURVE",
"232 -16 OFFCURVE",
"10 -265 CURVE",
"409 -265 LINE",
"624 -25 OFFCURVE",
"711 214 OFFCURVE",
"711 534 CURVE SMOOTH",
"711 552 LINE SMOOTH",
"711 870 OFFCURVE",
"615 1116 OFFCURVE",
"403 1349 CURVE",
"10 1349 LINE",
"231 1102 OFFCURVE",
"332 842 OFFCURVE",
"332 552 CURVE SMOOTH"
);
}
);
width = 831;
},
{
layerId = "D1180855-BCFE-435D-BBAD-373D6E72A0DF";
paths = (
{
closed = 1;
nodes = (
"171 455 LINE SMOOTH",
"171 154 OFFCURVE",
"131 -38 OFFCURVE",
"18 -240 CURVE",
"192 -240 LINE",
"296 -57 OFFCURVE",
"337 136 OFFCURVE",
"337 447 CURVE SMOOTH",
"337 664 LINE SMOOTH",
"337 976 OFFCURVE",
"296 1169 OFFCURVE",
"192 1352 CURVE",
"18 1352 LINE",
"131 1148 OFFCURVE",
"171 956 OFFCURVE",
"171 657 CURVE SMOOTH"
);
}
);
width = 429;
},
{
layerId = "13EBB120-61C6-43BE-BE80-275AFBEF3308";
paths = (
{
closed = 1;
nodes = (
"390 547 LINE SMOOTH",
"390 255 OFFCURVE",
"285 -21 OFFCURVE",
"68 -248 CURVE",
"306 -248 LINE",
"511 -28 OFFCURVE",
"606 236 OFFCURVE",
"606 547 CURVE SMOOTH",
"606 566 LINE SMOOTH",
"606 865 OFFCURVE",
"506 1131 OFFCURVE",
"302 1348 CURVE",
"68 1348 LINE",
"284 1124 OFFCURVE",
"390 852 OFFCURVE",
"390 566 CURVE SMOOTH"
);
}
);
width = 774;
},
{
layerId = "C57162E4-21E6-4CBA-854D-82A45BE477A0";
paths = (
{
closed = 1;
nodes = (
"322 470 LINE SMOOTH",
"322 161 OFFCURVE",
"247 -40 OFFCURVE",
"90 -236 CURVE",
"135 -236 LINE",
"285 -46 OFFCURVE",
"360 154 OFFCURVE",
"360 467 CURVE SMOOTH",
"360 647 LINE SMOOTH",
"360 960 OFFCURVE",
"285 1160 OFFCURVE",
"135 1350 CURVE",
"90 1350 LINE",
"247 1155 OFFCURVE",
"322 953 OFFCURVE",
"322 644 CURVE SMOOTH"
);
}
);
width = 535;
},
{
layerId = "D1B4C6CF-B771-4849-A887-0D6177A69D8B";
paths = (
{
closed = 1;
nodes = (
"247 530 LINE SMOOTH",
"247 216 OFFCURVE",
"166 -19 OFFCURVE",
"4 -252 CURVE",
"355 -252 LINE",
"496 -56 OFFCURVE",
"584 185 OFFCURVE",
"584 516 CURVE SMOOTH",
"584 583 LINE SMOOTH",
"584 914 OFFCURVE",
"495 1155 OFFCURVE",
"352 1351 CURVE",
"4 1351 LINE",
"166 1118 OFFCURVE",
"247 883 OFFCURVE",
"247 569 CURVE SMOOTH"
);
}
);
width = 675;
},
{
layerId = "F908E90C-D8C5-4664-8A98-C6332077FED2";
paths = (
{
closed = 1;
nodes = (
"280 501 LINE SMOOTH",
"280 205 OFFCURVE",
"207 -30 OFFCURVE",
"42 -244 CURVE",
"246 -244 LINE",
"401 -44 OFFCURVE",
"469 185 OFFCURVE",
"469 495 CURVE SMOOTH",
"469 613 LINE SMOOTH",
"469 920 OFFCURVE",
"398 1150 OFFCURVE",
"244 1351 CURVE",
"42 1351 LINE",
"207 1139 OFFCURVE",
"280 903 OFFCURVE",
"280 608 CURVE SMOOTH"
);
}
);
width = 599;
}
);
leftKerningGroup = parenright;
rightKerningGroup = parenright;
unicode = 0029;
},
{
glyphname = asterisk;
lastChange = "2021-12-01 12:49:26 +0000";
layers = (
{
layerId = "97B58FCF-3A12-4579-9B1E-E0D00032C06B";
paths = (
{
closed = 1;
nodes = (
"302 991 LINE",
"298 991 LINE",
"442 772 LINE",
"475 792 LINE",
"319 1009 LINE",
"315 1000 LINE",
"549 1065 LINE",
"539 1101 LINE",
"307 1026 LINE",
"315 1019 LINE",
"319 1278 LINE",
"282 1278 LINE",
"285 1019 LINE",
"293 1026 LINE",
"61 1101 LINE",
"52 1065 LINE",
"285 1000 LINE",
"282 1009 LINE",
"125 792 LINE",
"158 772 LINE"
);
}
);
width = 601;
},
{
layerId = "DF0EE8E4-AB0C-48FB-AB57-676AC09C8CC1";
paths = (
{
closed = 1;
nodes = (
"324 803 LINE",
"330 803 LINE",
"406 649 LINE",
"600 777 LINE",
"487 903 LINE",
"488 910 LINE",
"631 928 LINE",
"579 1167 LINE",
"430 1109 LINE",
"426 1113 LINE",
"458 1278 LINE",
"196 1278 LINE",
"227 1113 LINE",
"223 1109 LINE",
"75 1167 LINE",
"23 928 LINE",
"166 910 LINE",
"168 903 LINE",
"54 777 LINE",
"248 649 LINE"
);
}
);
width = 654;
},
{
layerId = "825A4CEE-7199-41F6-ACE2-F406C7380F94";
paths = (
{
closed = 1;
nodes = (
"442 942 LINE",
"431 942 LINE",
"646 676 LINE",
"675 703 LINE",
"450 959 LINE",
"449 947 LINE",
"776 1034 LINE",
"767 1070 LINE",
"443 974 LINE",
"450 966 LINE",
"456 1278 LINE",
"417 1278 LINE",
"424 966 LINE",
"429 974 LINE",
"105 1070 LINE",
"96 1034 LINE",
"424 947 LINE",
"422 959 LINE",
"198 703 LINE",
"226 676 LINE"
);
}
);
width = 872;
},
{
layerId = "3B7D2D6B-4C7F-469B-8FA8-9D341C52EB57";
paths = (
{
closed = 1;
nodes = (
"472 714 LINE",
"479 714 LINE",
"625 495 LINE",
"862 666 LINE",
"668 833 LINE",
"670 840 LINE",
"919 872 LINE",
"844 1146 LINE",
"598 1032 LINE",
"593 1036 LINE",
"630 1278 LINE",
"321 1278 LINE",
"358 1036 LINE",
"353 1032 LINE",
"107 1146 LINE",
"32 872 LINE",
"282 840 LINE",
"283 833 LINE",
"89 666 LINE",
"328 495 LINE"
);
}
);
width = 951;
},
{
layerId = "D1180855-BCFE-435D-BBAD-373D6E72A0DF";
paths = (
{
closed = 1;
nodes = (
"311 884 LINE",
"315 884 LINE",
"422 711 LINE",
"540 785 LINE",
"412 952 LINE",
"413 956 LINE",
"590 997 LINE",
"559 1134 LINE",
"376 1071 LINE",
"374 1073 LINE",
"389 1278 LINE",
"239 1278 LINE",
"253 1073 LINE",
"251 1071 LINE",
"68 1134 LINE",
"38 997 LINE",
"214 956 LINE",
"215 952 LINE",
"87 785 LINE",
"204 711 LINE"
);
}
);
width = 628;
},
{
layerId = "13EBB120-61C6-43BE-BE80-275AFBEF3308";
paths = (
{
closed = 1;
nodes = (
"461 816 LINE",
"460 816 LINE",
"634 576 LINE",
"782 686 LINE",
"574 891 LINE",
"575 890 LINE",
"857 943 LINE",
"810 1116 LINE",
"532 1008 LINE",
"532 1007 LINE",
"558 1278 LINE",
"363 1278 LINE",
"390 1007 LINE",
"389 1008 LINE",
"111 1116 LINE",
"64 943 LINE",
"346 890 LINE",
"346 891 LINE",
"138 686 LINE",
"289 576 LINE"
);
}
);
width = 921;
},
{
layerId = "C57162E4-21E6-4CBA-854D-82A45BE477A0";
paths = (
{
closed = 1;
nodes = (
"378 966 LINE",
"371 966 LINE",
"550 724 LINE",
"581 748 LINE",
"391 984 LINE",
"388 974 LINE",
"669 1050 LINE",
"659 1086 LINE",
"381 1000 LINE",
"389 992 LINE",
"394 1278 LINE",
"356 1278 LINE",
"361 992 LINE",
"367 1000 LINE",
"89 1086 LINE",
"80 1050 LINE",
"361 974 LINE",
"358 984 LINE",
"168 748 LINE",
"198 724 LINE"
);
}
);
width = 749;
},
{
layerId = "D1B4C6CF-B771-4849-A887-0D6177A69D8B";
paths = (
{
closed = 1;
nodes = (
"398 759 LINE",
"405 759 LINE",
"516 572 LINE",
"731 722 LINE",
"578 868 LINE",
"579 875 LINE",
"775 900 LINE",
"712 1157 LINE",
"514 1071 LINE",
"510 1075 LINE",
"544 1278 LINE",
"259 1278 LINE",
"293 1075 LINE",
"288 1071 LINE",
"91 1157 LINE",
"28 900 LINE",
"224 875 LINE",
"226 868 LINE",
"72 722 LINE",
"288 572 LINE"
);
}
);
width = 803;
},
{
layerId = "F908E90C-D8C5-4664-8A98-C6332077FED2";
paths = (
{
closed = 1;
nodes = (
"382 848 LINE",
"386 848 LINE",
"525 644 LINE",
"658 736 LINE",
"489 920 LINE",
"490 924 LINE",
"721 970 LINE",
"682 1125 LINE",
"452 1036 LINE",
"449 1038 LINE",
"471 1278 LINE",
"298 1278 LINE",
"320 1038 LINE",
"317 1036 LINE",
"87 1125 LINE",
"48 970 LINE",
"278 924 LINE",
"279 920 LINE",
"110 736 LINE",
"244 644 LINE"
);
}
);
width = 769;
}
);
unicode = 002A;
},
{
glyphname = plus;
lastChange = "2021-12-01 12:49:26 +0000";
layers = (
{
layerId = "97B58FCF-3A12-4579-9B1E-E0D00032C06B";
paths = (
{
closed = 1;
nodes = (
"322 955 LINE",
"287 955 LINE",
"287 318 LINE",
"322 318 LINE"
);
},
{
closed = 1;
nodes = (
"547 620 LINE",
"547 653 LINE",
"61 653 LINE",
"61 620 LINE"
);
}
);
width = 608;
},
{
layerId = "DF0EE8E4-AB0C-48FB-AB57-676AC09C8CC1";
paths = (
{
closed = 1;
nodes = (
"500 974 LINE",
"234 974 LINE",
"234 299 LINE",
"500 299 LINE"
);
},
{
closed = 1;
nodes = (
"680 508 LINE",
"680 765 LINE",
"53 765 LINE",
"53 508 LINE"
);
}
);
width = 733;
},
{
layerId = "825A4CEE-7199-41F6-ACE2-F406C7380F94";
paths = (
{
closed = 1;
nodes = (
"695 1124 LINE",
"657 1124 LINE",
"657 104 LINE",
"695 104 LINE"
);
},
{
closed = 1;
nodes = (
"1185 597 LINE",
"1185 631 LINE",
"166 631 LINE",
"166 597 LINE"
);
}
);
width = 1351;
},
{
layerId = "3B7D2D6B-4C7F-469B-8FA8-9D341C52EB57";
paths = (
{
closed = 1;
nodes = (
"825 1129 LINE",
"497 1129 LINE",
"497 69 LINE",
"825 69 LINE"
);
},
{
closed = 1;
nodes = (
"1207 448 LINE",
"1207 750 LINE",
"115 750 LINE",
"115 448 LINE"
);
}
);
width = 1322;
},
{
layerId = "D1180855-BCFE-435D-BBAD-373D6E72A0DF";
paths = (
{
closed = 1;
nodes = (
"410 964 LINE",
"260 964 LINE",
"260 309 LINE",
"410 309 LINE"
);
},
{
closed = 1;
nodes = (
"613 564 LINE",
"613 709 LINE",
"57 709 LINE",
"57 564 LINE"
);
}
);
width = 670;
},
{
layerId = "13EBB120-61C6-43BE-BE80-275AFBEF3308";
paths = (
{
closed = 1;
nodes = (
"761 1125 LINE",
"576 1125 LINE",
"576 87 LINE",
"761 87 LINE"
);
},
{
closed = 1;
nodes = (
"1196 521 LINE",
"1196 691 LINE",
"141 691 LINE",
"141 521 LINE"
);
}
);
width = 1337;
},
{
layerId = "C57162E4-21E6-4CBA-854D-82A45BE477A0";
paths = (
{
closed = 1;
nodes = (
"515 1040 LINE",
"478 1040 LINE",
"478 211 LINE",
"515 211 LINE"
);
},
{
closed = 1;
nodes = (
"872 609 LINE",
"872 642 LINE",
"120 642 LINE",
"120 609 LINE"
);
}
);
width = 992;
},
{
layerId = "D1B4C6CF-B771-4849-A887-0D6177A69D8B";
paths = (
{
closed = 1;
nodes = (
"663 1052 LINE",
"366 1052 LINE",
"366 184 LINE",
"663 184 LINE"
);
},
{
closed = 1;
nodes = (
"944 478 LINE",
"944 758 LINE",
"84 758 LINE",
"84 478 LINE"
);
}
);
width = 1028;
},
{
layerId = "F908E90C-D8C5-4664-8A98-C6332077FED2";
paths = (
{
closed = 1;
nodes = (
"586 1044 LINE",
"418 1044 LINE",
"418 198 LINE",
"586 198 LINE"
);
},
{
closed = 1;
nodes = (
"905 542 LINE",
"905 700 LINE",
"99 700 LINE",
"99 542 LINE"
);
}
);
width = 1004;
}
);
leftKerningGroup = plus;
leftMetricsKey = minus;
rightKerningGroup = plus;
rightMetricsKey = minus;
unicode = 002B;
},
{
glyphname = comma;
lastChange = "2021-12-01 12:49:26 +0000";
layers = (
{
layerId = "97B58FCF-3A12-4579-9B1E-E0D00032C06B";
paths = (
{
closed = 1;
nodes = (
"88 206 LINE",
"93 169 OFFCURVE",
"97 129 OFFCURVE",
"97 90 CURVE SMOOTH",
"97 -37 OFFCURVE",
"66 -145 OFFCURVE",
"12 -237 CURVE",
"31 -263 LINE",
"104 -155 OFFCURVE",
"134 -42 OFFCURVE",
"134 90 CURVE SMOOTH",
"134 140 OFFCURVE",
"128 188 OFFCURVE",
"125 206 CURVE"
);
}
);
width = 212;
},
{
layerId = "DF0EE8E4-AB0C-48FB-AB57-676AC09C8CC1";
paths = (
{
closed = 1;
nodes = (
"59 348 LINE",
"63 294 OFFCURVE",
"65 258 OFFCURVE",
"65 210 CURVE SMOOTH",
"65 57 OFFCURVE",
"32 -57 OFFCURVE",
"-18 -158 CURVE",
"186 -208 LINE",
"302 -81 OFFCURVE",
"350 57 OFFCURVE",
"350 223 CURVE SMOOTH",
"350 272 OFFCURVE",
"346 309 OFFCURVE",
"341 348 CURVE"
);
}
);
width = 398;
},
{
layerId = "825A4CEE-7199-41F6-ACE2-F406C7380F94";
paths = (
{
closed = 1;
nodes = (
"172 240 LINE",
"178 206 OFFCURVE",
"181 171 OFFCURVE",
"181 132 CURVE SMOOTH",
"181 -27 OFFCURVE",
"146 -146 OFFCURVE",
"44 -272 CURVE",
"67 -294 LINE",
"181 -162 OFFCURVE",
"219 -32 OFFCURVE",
"219 134 CURVE SMOOTH",
"219 180 OFFCURVE",
"213 219 OFFCURVE",
"210 240 CURVE"
);
}
);
width = 363;
},
{
layerId = "3B7D2D6B-4C7F-469B-8FA8-9D341C52EB57";
paths = (
{
closed = 1;
nodes = (
"107 342 LINE",
"111 295 OFFCURVE",
"113 255 OFFCURVE",
"113 208 CURVE SMOOTH",
"113 46 OFFCURVE",
"82 -85 OFFCURVE",
"20 -206 CURVE",
"298 -262 LINE",
"428 -119 OFFCURVE",
"481 36 OFFCURVE",
"481 221 CURVE SMOOTH",
"481 263 OFFCURVE",
"476 308 OFFCURVE",
"470 342 CURVE"
);
}
);
width = 581;
},
{
layerId = "D1180855-BCFE-435D-BBAD-373D6E72A0DF";
paths = (
{
closed = 1;
nodes = (
"75 277 LINE",
"79 233 OFFCURVE",
"81 194 OFFCURVE",
"81 150 CURVE SMOOTH",
"81 10 OFFCURVE",
"49 -101 OFFCURVE",
"-3 -198 CURVE",
"117 -239 LINE",
"211 -120 OFFCURVE",
"250 7 OFFCURVE",
"250 157 CURVE SMOOTH",
"250 205 OFFCURVE",
"245 249 OFFCURVE",
"241 277 CURVE"
);
}
);
width = 313;
},
{
layerId = "13EBB120-61C6-43BE-BE80-275AFBEF3308";
paths = (
{
closed = 1;
nodes = (
"140 291 LINE",
"145 251 OFFCURVE",
"147 213 OFFCURVE",
"147 170 CURVE SMOOTH",
"147 10 OFFCURVE",
"114 -115 OFFCURVE",
"32 -238 CURVE",
"193 -279 LINE",
"315 -142 OFFCURVE",
"360 2 OFFCURVE",
"360 178 CURVE SMOOTH",
"360 222 OFFCURVE",
"355 264 OFFCURVE",
"350 291 CURVE"
);
}
);
width = 482;
},
{
layerId = "C57162E4-21E6-4CBA-854D-82A45BE477A0";
paths = (
{
closed = 1;
nodes = (
"136 223 LINE",
"142 188 OFFCURVE",
"145 150 OFFCURVE",
"145 111 CURVE SMOOTH",
"145 -33 OFFCURVE",
"112 -147 OFFCURVE",
"32 -257 CURVE",
"55 -279 LINE",
"149 -159 OFFCURVE",
"183 -37 OFFCURVE",
"183 112 CURVE SMOOTH",
"183 160 OFFCURVE",
"177 204 OFFCURVE",
"174 223 CURVE"
);
}
);
width = 300;
},
{
layerId = "D1B4C6CF-B771-4849-A887-0D6177A69D8B";
paths = (
{
closed = 1;
nodes = (
"83 345 LINE",
"87 295 OFFCURVE",
"89 257 OFFCURVE",
"89 209 CURVE SMOOTH",
"89 52 OFFCURVE",
"57 -71 OFFCURVE",
"1 -182 CURVE",
"242 -235 LINE",
"365 -100 OFFCURVE",
"416 47 OFFCURVE",
"416 222 CURVE SMOOTH",
"416 268 OFFCURVE",
"411 309 OFFCURVE",
"406 345 CURVE"
);
}
);
width = 490;
},
{
layerId = "F908E90C-D8C5-4664-8A98-C6332077FED2";
paths = (
{
closed = 1;
nodes = (
"107 284 LINE",
"112 242 OFFCURVE",
"114 204 OFFCURVE",
"114 160 CURVE SMOOTH",
"114 10 OFFCURVE",
"82 -109 OFFCURVE",
"15 -219 CURVE",
"152 -259 LINE",
"262 -130 OFFCURVE",
"305 5 OFFCURVE",
"305 168 CURVE SMOOTH",
"305 214 OFFCURVE",
"299 257 OFFCURVE",
"295 284 CURVE"
);
}
);
width = 397;
}
);
unicode = 002C;
},
{
glyphname = hyphen;
lastChange = "2021-12-01 12:49:26 +0000";
layers = (
{
layerId = "97B58FCF-3A12-4579-9B1E-E0D00032C06B";
paths = (
{
closed = 1;
nodes = (
"468 521 LINE",
"468 554 LINE",
"111 554 LINE",
"111 521 LINE"
);
}
);
width = 579;
},
{
layerId = "DF0EE8E4-AB0C-48FB-AB57-676AC09C8CC1";
paths = (
{
closed = 1;
nodes = (
"504 368 LINE",
"504 626 LINE",
"63 626 LINE",
"63 368 LINE"
);
}
);
width = 567;
},
{
layerId = "825A4CEE-7199-41F6-ACE2-F406C7380F94";
paths = (
{
closed = 1;
nodes = (
"955 513 LINE",
"955 547 LINE",
"186 547 LINE",
"186 513 LINE"
);
}
);
width = 1141;
},
{
layerId = "3B7D2D6B-4C7F-469B-8FA8-9D341C52EB57";
paths = (
{
closed = 1;
nodes = (
"808 367 LINE",
"808 669 LINE",
"94 669 LINE",
"94 367 LINE"
);
}
);
width = 902;
},
{
layerId = "D1180855-BCFE-435D-BBAD-373D6E72A0DF";
paths = (
{
closed = 1;
nodes = (
"486 444 LINE",
"486 591 LINE",
"87 591 LINE",
"87 444 LINE"
);
}
);
width = 573;
},
{
layerId = "13EBB120-61C6-43BE-BE80-275AFBEF3308";
paths = (
{
closed = 1;
nodes = (
"882 438 LINE",
"882 610 LINE",
"140 610 LINE",
"140 438 LINE"
);
}
);
width = 1022;
},
{
layerId = "C57162E4-21E6-4CBA-854D-82A45BE477A0";
paths = (
{
closed = 1;
nodes = (
"718 517 LINE",
"718 551 LINE",
"155 551 LINE",
"155 517 LINE"
);
}
);
width = 872;
},
{
layerId = "D1B4C6CF-B771-4849-A887-0D6177A69D8B";
paths = (
{
closed = 1;
nodes = (
"656 368 LINE",
"656 648 LINE",
"79 648 LINE",
"79 368 LINE"
);
}
);
width = 735;
},
{
layerId = "F908E90C-D8C5-4664-8A98-C6332077FED2";
paths = (
{
closed = 1;
nodes = (
"684 442 LINE",
"684 602 LINE",
"114 602 LINE",
"114 442 LINE"
);
}
);
width = 798;
}
);
leftKerningGroup = hyphen;
rightKerningGroup = hyphen;
unicode = 002D;
},
{
glyphname = period;
lastChange = "2021-12-01 12:49:26 +0000";
layers = (
{
layerId = "97B58FCF-3A12-4579-9B1E-E0D00032C06B";
paths = (
{
closed = 1;
nodes = (
"119 -9 OFFCURVE",
"127 9 OFFCURVE",
"127 50 CURVE SMOOTH",
"127 68 LINE SMOOTH",
"127 108 OFFCURVE",
"119 127 OFFCURVE",
"97 127 CURVE SMOOTH",
"75 127 OFFCURVE",
"68 108 OFFCURVE",
"68 68 CURVE SMOOTH",
"68 50 LINE SMOOTH",
"68 9 OFFCURVE",
"75 -9 OFFCURVE",
"97 -9 CURVE SMOOTH"
);
}
);
width = 195;
},
{
layerId = "DF0EE8E4-AB0C-48FB-AB57-676AC09C8CC1";
paths = (
{
closed = 1;
nodes = (
"305 -26 OFFCURVE",
"360 40 OFFCURVE",
"360 156 CURVE SMOOTH",
"360 173 LINE SMOOTH",
"360 287 OFFCURVE",
"305 355 OFFCURVE",
"200 355 CURVE SMOOTH",
"91 355 OFFCURVE",
"40 287 OFFCURVE",
"40 173 CURVE SMOOTH",
"40 156 LINE SMOOTH",
"40 40 OFFCURVE",
"91 -26 OFFCURVE",
"200 -26 CURVE SMOOTH"
);
}
);
width = 400;
},
{
layerId = "825A4CEE-7199-41F6-ACE2-F406C7380F94";
paths = (
{
closed = 1;
nodes = (
"235 -14 OFFCURVE",
"256 4 OFFCURVE",
"256 39 CURVE SMOOTH",
"256 43 LINE SMOOTH",
"256 77 OFFCURVE",
"235 94 OFFCURVE",
"197 94 CURVE SMOOTH",
"162 94 OFFCURVE",
"140 77 OFFCURVE",
"140 43 CURVE SMOOTH",
"140 39 LINE SMOOTH",
"140 4 OFFCURVE",
"162 -14 OFFCURVE",
"197 -14 CURVE SMOOTH"
);
}
);
width = 396;
},
{
layerId = "3B7D2D6B-4C7F-469B-8FA8-9D341C52EB57";
paths = (
{
closed = 1;
nodes = (
"456 -34 OFFCURVE",
"524 39 OFFCURVE",
"524 157 CURVE SMOOTH",
"524 162 LINE SMOOTH",
"524 281 OFFCURVE",
"456 356 OFFCURVE",
"307 356 CURVE SMOOTH",
"157 356 OFFCURVE",
"90 281 OFFCURVE",
"90 162 CURVE SMOOTH",
"90 157 LINE SMOOTH",
"90 39 OFFCURVE",
"157 -34 OFFCURVE",
"307 -34 CURVE SMOOTH"
);
}
);
width = 614;
},
{
layerId = "D1180855-BCFE-435D-BBAD-373D6E72A0DF";
paths = (
{
closed = 1;
nodes = (
"212 -18 OFFCURVE",
"244 25 OFFCURVE",
"244 103 CURVE SMOOTH",
"244 120 LINE SMOOTH",
"244 197 OFFCURVE",
"212 240 OFFCURVE",
"149 240 CURVE SMOOTH",
"83 240 OFFCURVE",
"54 197 OFFCURVE",
"54 120 CURVE SMOOTH",
"54 103 LINE SMOOTH",
"54 25 OFFCURVE",
"83 -18 OFFCURVE",
"149 -18 CURVE SMOOTH"
);
}
);
width = 298;
},
{
layerId = "13EBB120-61C6-43BE-BE80-275AFBEF3308";
paths = (
{
closed = 1;
nodes = (
"349 -24 OFFCURVE",
"394 23 OFFCURVE",
"394 100 CURVE SMOOTH",
"394 104 LINE SMOOTH",
"394 181 OFFCURVE",
"349 228 OFFCURVE",
"254 228 CURVE SMOOTH",
"161 228 OFFCURVE",
"115 181 OFFCURVE",
"115 104 CURVE SMOOTH",
"115 100 LINE SMOOTH",
"115 23 OFFCURVE",
"161 -24 OFFCURVE",
"254 -24 CURVE SMOOTH"
);
}
);
width = 509;
},
{
layerId = "C57162E4-21E6-4CBA-854D-82A45BE477A0";
paths = (
{
closed = 1;
nodes = (
"183 -12 OFFCURVE",
"198 7 OFFCURVE",
"198 45 CURVE SMOOTH",
"198 55 LINE SMOOTH",
"198 92 OFFCURVE",
"183 110 OFFCURVE",
"153 110 CURVE SMOOTH",
"125 110 OFFCURVE",
"110 92 OFFCURVE",
"110 55 CURVE SMOOTH",
"110 45 LINE SMOOTH",
"110 7 OFFCURVE",
"125 -12 OFFCURVE",
"153 -12 CURVE SMOOTH"
);
}
);
width = 308;
},
{
layerId = "D1B4C6CF-B771-4849-A887-0D6177A69D8B";
paths = (
{
closed = 1;
nodes = (
"381 -30 OFFCURVE",
"442 40 OFFCURVE",
"442 157 CURVE SMOOTH",
"442 168 LINE SMOOTH",
"442 284 OFFCURVE",
"381 356 OFFCURVE",
"254 356 CURVE SMOOTH",
"124 356 OFFCURVE",
"65 284 OFFCURVE",
"65 168 CURVE SMOOTH",
"65 157 LINE SMOOTH",
"65 40 OFFCURVE",
"124 -30 OFFCURVE",
"254 -30 CURVE SMOOTH"
);
}
);
width = 507;
},
{
layerId = "F908E90C-D8C5-4664-8A98-C6332077FED2";
paths = (
{
closed = 1;
nodes = (
"280 -21 OFFCURVE",
"318 24 OFFCURVE",
"318 102 CURVE SMOOTH",
"318 112 LINE SMOOTH",
"318 189 OFFCURVE",
"280 234 OFFCURVE",
"201 234 CURVE SMOOTH",
"121 234 OFFCURVE",
"84 189 OFFCURVE",
"84 112 CURVE SMOOTH",
"84 102 LINE SMOOTH",
"84 24 OFFCURVE",
"121 -21 OFFCURVE",
"201 -21 CURVE SMOOTH"
);
}
);
width = 402;
}
);
leftKerningGroup = period;
rightKerningGroup = period;
unicode = 002E;
},
{
glyphname = slash;
lastChange = "2021-12-01 12:49:26 +0000";
layers = (
{
layerId = "97B58FCF-3A12-4579-9B1E-E0D00032C06B";
paths = (
{
closed = 1;
nodes = (
"86 -241 LINE",
"404 1352 LINE",
"368 1352 LINE",
"50 -241 LINE"
);
}
);
width = 454;
},
{
layerId = "DF0EE8E4-AB0C-48FB-AB57-676AC09C8CC1";
paths = (
{
closed = 1;
nodes = (
"271 -239 LINE",
"612 1352 LINE",
"341 1352 LINE",
"0 -239 LINE"
);
}
);
width = 612;
},
{
layerId = "825A4CEE-7199-41F6-ACE2-F406C7380F94";
paths = (
{
closed = 1;
nodes = (
"126 -221 LINE",
"972 1317 LINE",
"928 1317 LINE",
"82 -221 LINE"
);
}
);
width = 1054;
},
{
layerId = "3B7D2D6B-4C7F-469B-8FA8-9D341C52EB57";
paths = (
{
closed = 1;
nodes = (
"326 -265 LINE",
"1325 1349 LINE",
"953 1349 LINE",
"-48 -265 LINE"
);
}
);
width = 1277;
},
{
layerId = "D1180855-BCFE-435D-BBAD-373D6E72A0DF";
paths = (
{
closed = 1;
nodes = (
"185 -240 LINE",
"514 1352 LINE",
"355 1352 LINE",
"25 -240 LINE"
);
}
);
width = 539;
},
{
layerId = "13EBB120-61C6-43BE-BE80-275AFBEF3308";
paths = (
{
closed = 1;
nodes = (
"236 -243 LINE",
"1149 1333 LINE",
"931 1333 LINE",
"17 -243 LINE"
);
}
);
width = 1166;
},
{
layerId = "C57162E4-21E6-4CBA-854D-82A45BE477A0";
paths = (
{
closed = 1;
nodes = (
"112 -231 LINE",
"694 1335 LINE",
"654 1335 LINE",
"72 -231 LINE"
);
}
);
width = 766;
},
{
layerId = "D1B4C6CF-B771-4849-A887-0D6177A69D8B";
paths = (
{
closed = 1;
nodes = (
"284 -252 LINE",
"969 1351 LINE",
"661 1351 LINE",
"-24 -252 LINE"
);
}
);
width = 945;
},
{
layerId = "F908E90C-D8C5-4664-8A98-C6332077FED2";
paths = (
{
closed = 1;
nodes = (
"203 -242 LINE",
"829 1343 LINE",
"648 1343 LINE",
"21 -242 LINE"
);
}
);
width = 850;
}
);
leftKerningGroup = slash;
rightKerningGroup = slash;
unicode = 002F;
},
{
glyphname = zero;
lastChange = "2021-12-01 12:49:26 +0000";
layers = (
{
layerId = "97B58FCF-3A12-4579-9B1E-E0D00032C06B";
paths = (
{
closed = 1;
nodes = (
"449 -15 OFFCURVE",
"516 75 OFFCURVE",
"516 253 CURVE",
"516 1024 LINE",
"516 1203 OFFCURVE",
"449 1293 OFFCURVE",
"309 1293 CURVE SMOOTH",
"169 1293 OFFCURVE",
"102 1203 OFFCURVE",
"102 1024 CURVE",
"102 253 LINE",
"102 75 OFFCURVE",
"169 -15 OFFCURVE",
"309 -15 CURVE SMOOTH"
);
},
{
closed = 1;
nodes = (
"194 20 OFFCURVE",
"140 99 OFFCURVE",
"140 251 CURVE SMOOTH",
"140 1027 LINE SMOOTH",
"140 1179 OFFCURVE",
"194 1258 OFFCURVE",
"309 1258 CURVE SMOOTH",
"424 1258 OFFCURVE",
"478 1179 OFFCURVE",
"478 1027 CURVE SMOOTH",
"478 251 LINE SMOOTH",
"478 99 OFFCURVE",
"424 20 OFFCURVE",
"309 20 CURVE SMOOTH"
);
}
);
width = 618;
},
{
layerId = "DF0EE8E4-AB0C-48FB-AB57-676AC09C8CC1";
paths = (
{
closed = 1;
nodes = (
"717 -22 OFFCURVE",
"850 124 OFFCURVE",
"850 415 CURVE",
"850 863 LINE",
"850 1152 OFFCURVE",
"717 1300 OFFCURVE",
"452 1300 CURVE SMOOTH",
"187 1300 OFFCURVE",
"55 1152 OFFCURVE",
"55 863 CURVE",
"55 415 LINE",
"55 124 OFFCURVE",
"187 -22 OFFCURVE",
"452 -22 CURVE SMOOTH"
);
},
{
closed = 1;
nodes = (
"395 245 OFFCURVE",
"377 287 OFFCURVE",
"377 388 CURVE SMOOTH",
"377 890 LINE SMOOTH",
"377 991 OFFCURVE",
"395 1033 OFFCURVE",
"452 1033 CURVE SMOOTH",
"509 1033 OFFCURVE",
"528 991 OFFCURVE",
"528 890 CURVE SMOOTH",
"528 388 LINE SMOOTH",
"528 287 OFFCURVE",
"509 245 OFFCURVE",
"452 245 CURVE SMOOTH"
);
}
);
width = 905;
},
{
layerId = "825A4CEE-7199-41F6-ACE2-F406C7380F94";
paths = (
{
closed = 1;
nodes = (
"1137 -21 OFFCURVE",
"1337 216 OFFCURVE",
"1337 627 CURVE",
"1337 648 LINE",
"1337 1058 OFFCURVE",
"1137 1298 OFFCURVE",
"742 1298 CURVE SMOOTH",
"348 1298 OFFCURVE",
"148 1058 OFFCURVE",
"148 648 CURVE",
"148 627 LINE",
"148 216 OFFCURVE",
"348 -21 OFFCURVE",
"742 -21 CURVE SMOOTH"
);
},
{
closed = 1;
nodes = (
"373 16 OFFCURVE",
"189 241 OFFCURVE",
"189 627 CURVE SMOOTH",
"189 648 LINE SMOOTH",
"189 1036 OFFCURVE",
"373 1261 OFFCURVE",
"742 1261 CURVE SMOOTH",
"1112 1261 OFFCURVE",
"1296 1036 OFFCURVE",
"1296 648 CURVE SMOOTH",
"1296 627 LINE SMOOTH",
"1296 241 OFFCURVE",
"1112 16 OFFCURVE",
"742 16 CURVE SMOOTH"
);
}
);
width = 1485;
},
{
layerId = "3B7D2D6B-4C7F-469B-8FA8-9D341C52EB57";
paths = (
{
closed = 1;
nodes = (
"1257 -45 OFFCURVE",
"1500 190 OFFCURVE",
"1500 632 CURVE",
"1500 646 LINE",
"1500 1085 OFFCURVE",
"1257 1321 OFFCURVE",
"796 1321 CURVE SMOOTH",
"335 1321 OFFCURVE",
"92 1085 OFFCURVE",
"92 646 CURVE",
"92 632 LINE",
"92 190 OFFCURVE",
"337 -45 OFFCURVE",
"796 -45 CURVE SMOOTH"
);
},
{
closed = 1;
nodes = (
"600 285 OFFCURVE",
"508 408 OFFCURVE",
"508 630 CURVE SMOOTH",
"508 646 LINE SMOOTH",
"508 866 OFFCURVE",
"597 991 OFFCURVE",
"796 991 CURVE SMOOTH",
"995 991 OFFCURVE",
"1084 868 OFFCURVE",
"1084 646 CURVE SMOOTH",
"1084 630 LINE SMOOTH",
"1084 408 OFFCURVE",
"995 285 OFFCURVE",
"796 285 CURVE SMOOTH"
);
}
);
width = 1592;
},
{
layerId = "D1180855-BCFE-435D-BBAD-373D6E72A0DF";
paths = (
{
closed = 1;
nodes = (
"583 -19 OFFCURVE",
"683 100 OFFCURVE",
"683 334 CURVE",
"683 944 LINE",
"683 1178 OFFCURVE",
"583 1297 OFFCURVE",
"381 1297 CURVE SMOOTH",
"178 1297 OFFCURVE",
"79 1178 OFFCURVE",
"79 944 CURVE",
"79 334 LINE",
"79 100 OFFCURVE",
"178 -19 OFFCURVE",
"381 -19 CURVE SMOOTH"
);
},
{
closed = 1;
nodes = (
"295 133 OFFCURVE",
"259 193 OFFCURVE",
"259 320 CURVE SMOOTH",
"259 959 LINE SMOOTH",
"259 1085 OFFCURVE",
"295 1146 OFFCURVE",
"381 1146 CURVE SMOOTH",
"467 1146 OFFCURVE",
"503 1085 OFFCURVE",
"503 959 CURVE SMOOTH",
"503 320 LINE SMOOTH",
"503 193 OFFCURVE",
"467 133 OFFCURVE",
"381 133 CURVE SMOOTH"
);
}
);
width = 762;
},
{
layerId = "13EBB120-61C6-43BE-BE80-275AFBEF3308";
paths = (
{
closed = 1;
nodes = (
"1197 -33 OFFCURVE",
"1419 203 OFFCURVE",
"1419 630 CURVE",
"1419 647 LINE",
"1419 1072 OFFCURVE",
"1197 1310 OFFCURVE",
"769 1310 CURVE SMOOTH",
"342 1310 OFFCURVE",
"120 1072 OFFCURVE",
"120 647 CURVE",
"120 630 LINE",
"120 203 OFFCURVE",
"343 -33 OFFCURVE",
"769 -33 CURVE SMOOTH"
);
},
{
closed = 1;
nodes = (
"487 150 OFFCURVE",
"349 324 OFFCURVE",
"349 629 CURVE SMOOTH",
"349 647 LINE SMOOTH",
"349 952 OFFCURVE",
"485 1127 OFFCURVE",
"769 1127 CURVE SMOOTH",
"1054 1127 OFFCURVE",
"1190 953 OFFCURVE",
"1190 647 CURVE SMOOTH",
"1190 629 LINE SMOOTH",
"1190 324 OFFCURVE",
"1054 150 OFFCURVE",
"769 150 CURVE SMOOTH"
);
}
);
width = 1539;
},
{
layerId = "C57162E4-21E6-4CBA-854D-82A45BE477A0";
paths = (
{
closed = 1;
nodes = (
"797 -18 OFFCURVE",
"931 146 OFFCURVE",
"931 440 CURVE",
"931 836 LINE",
"931 1131 OFFCURVE",
"797 1296 OFFCURVE",
"531 1296 CURVE SMOOTH",
"265 1296 OFFCURVE",
"131 1131 OFFCURVE",
"131 836 CURVE",
"131 440 LINE",
"131 146 OFFCURVE",
"265 -18 OFFCURVE",
"531 -18 CURVE SMOOTH"
);
},
{
closed = 1;
nodes = (
"289 18 OFFCURVE",
"170 170 OFFCURVE",
"170 439 CURVE SMOOTH",
"170 838 LINE SMOOTH",
"170 1108 OFFCURVE",
"289 1260 OFFCURVE",
"531 1260 CURVE SMOOTH",
"773 1260 OFFCURVE",
"892 1108 OFFCURVE",
"892 838 CURVE SMOOTH",
"892 439 LINE SMOOTH",
"892 170 OFFCURVE",
"773 18 OFFCURVE",
"531 18 CURVE SMOOTH"
);
}
);
width = 1062;
},
{
layerId = "D1B4C6CF-B771-4849-A887-0D6177A69D8B";
paths = (
{
closed = 1;
nodes = (
"987 -29 OFFCURVE",
"1175 162 OFFCURVE",
"1175 529 CURVE",
"1175 750 LINE",
"1175 1114 OFFCURVE",
"987 1306 OFFCURVE",
"624 1306 CURVE SMOOTH",
"261 1306 OFFCURVE",
"74 1114 OFFCURVE",
"74 750 CURVE",
"74 529 LINE",
"74 162 OFFCURVE",
"262 -29 OFFCURVE",
"624 -29 CURVE SMOOTH"
);
},
{
closed = 1;
nodes = (
"498 269 OFFCURVE",
"443 352 OFFCURVE",
"443 513 CURVE SMOOTH",
"443 764 LINE SMOOTH",
"443 925 OFFCURVE",
"496 1008 OFFCURVE",
"624 1008 CURVE SMOOTH",
"752 1008 OFFCURVE",
"806 926 OFFCURVE",
"806 764 CURVE SMOOTH",
"806 513 LINE SMOOTH",
"806 352 OFFCURVE",
"752 269 OFFCURVE",
"624 269 CURVE SMOOTH"
);
}
);
width = 1249;
},
{
layerId = "F908E90C-D8C5-4664-8A98-C6332077FED2";
paths = (
{
closed = 1;
nodes = (
"890 -26 OFFCURVE",
"1051 152 OFFCURVE",
"1051 482 CURVE",
"1051 796 LINE",
"1051 1125 OFFCURVE",
"890 1304 OFFCURVE",
"575 1304 CURVE SMOOTH",
"260 1304 OFFCURVE",
"100 1125 OFFCURVE",
"100 796 CURVE",
"100 482 LINE",
"100 152 OFFCURVE",
"261 -26 OFFCURVE",
"575 -26 CURVE SMOOTH"
);
},
{
closed = 1;
nodes = (
"391 141 OFFCURVE",
"304 258 OFFCURVE",
"304 473 CURVE SMOOTH",
"304 804 LINE SMOOTH",
"304 1020 OFFCURVE",
"390 1137 OFFCURVE",
"575 1137 CURVE SMOOTH",
"760 1137 OFFCURVE",
"847 1020 OFFCURVE",
"847 804 CURVE SMOOTH",
"847 473 LINE SMOOTH",
"847 258 OFFCURVE",
"760 141 OFFCURVE",
"575 141 CURVE SMOOTH"
);
}
);
width = 1151;
}
);
leftKerningGroup = zero;
rightKerningGroup = zero;
unicode = 0030;
},
{
glyphname = one;
lastChange = "2021-12-01 12:49:26 +0000";
layers = (
{
layerId = "97B58FCF-3A12-4579-9B1E-E0D00032C06B";
paths = (
{
closed = 1;
nodes = (
"287 0 LINE",
"287 1278 LINE",
"222 1278 LINE",
"28 1064 LINE",
"28 1014 LINE",
"240 1245 LINE",
"249 1245 LINE",
"249 0 LINE"
);
}
);
width = 405;
},
{
layerId = "DF0EE8E4-AB0C-48FB-AB57-676AC09C8CC1";
paths = (
{
closed = 1;
nodes = (
"524 0 LINE",
"524 1278 LINE",
"268 1278 LINE",
"26 1154 LINE",
"18 825 LINE",
"193 918 LINE",
"208 918 LINE",
"208 0 LINE"
);
}
);
width = 596;
},
{
layerId = "825A4CEE-7199-41F6-ACE2-F406C7380F94";
paths = (
{
closed = 1;
nodes = (
"584 0 LINE",
"584 1278 LINE",
"520 1278 LINE",
"93 1054 LINE",
"90 1013 LINE",
"531 1242 LINE",
"545 1242 LINE",
"545 0 LINE"
);
}
);
width = 818;
},
{
layerId = "3B7D2D6B-4C7F-469B-8FA8-9D341C52EB57";
paths = (
{
closed = 1;
nodes = (
"785 0 LINE",
"785 1278 LINE",
"419 1278 LINE",
"51 1154 LINE",
"42 805 LINE",
"367 913 LINE",
"382 913 LINE",
"382 0 LINE"
);
}
);
width = 918;
},
{
layerId = "D1180855-BCFE-435D-BBAD-373D6E72A0DF";
paths = (
{
closed = 1;
nodes = (
"406 0 LINE",
"406 1278 LINE",
"239 1278 LINE",
"23 1103 LINE",
"23 910 LINE",
"217 1067 LINE",
"229 1067 LINE",
"229 0 LINE"
);
}
);
width = 501;
},
{
layerId = "13EBB120-61C6-43BE-BE80-275AFBEF3308";
paths = (
{
closed = 1;
nodes = (
"684 0 LINE",
"684 1278 LINE",
"469 1278 LINE",
"76 1104 LINE",
"66 909 LINE",
"447 1074 LINE",
"462 1074 LINE",
"462 0 LINE"
);
}
);
width = 868;
},
{
layerId = "C57162E4-21E6-4CBA-854D-82A45BE477A0";
paths = (
{
closed = 1;
nodes = (
"442 0 LINE",
"442 1278 LINE",
"377 1278 LINE",
"67 1059 LINE",
"65 1014 LINE",
"392 1244 LINE",
"403 1244 LINE",
"403 0 LINE"
);
}
);
width = 624;
},
{
layerId = "D1B4C6CF-B771-4849-A887-0D6177A69D8B";
paths = (
{
closed = 1;
nodes = (
"654 0 LINE",
"654 1278 LINE",
"344 1278 LINE",
"40 1151 LINE",
"30 814 LINE",
"282 916 LINE",
"295 916 LINE",
"295 0 LINE"
);
}
);
width = 757;
},
{
layerId = "F908E90C-D8C5-4664-8A98-C6332077FED2";
paths = (
{
closed = 1;
nodes = (
"546 0 LINE",
"546 1278 LINE",
"354 1278 LINE",
"50 1104 LINE",
"45 910 LINE",
"332 1071 LINE",
"346 1071 LINE",
"346 0 LINE"
);
}
);
width = 685;
}
);
unicode = 0031;
},
{
glyphname = two;
lastChange = "2021-12-01 12:49:26 +0000";
layers = (
{
layerId = "97B58FCF-3A12-4579-9B1E-E0D00032C06B";
paths = (
{
closed = 1;
nodes = (
"422 0 LINE",
"422 34 LINE",
"72 34 LINE",
"85 12 LINE",
"85 40 LINE",
"247 410 LINE SMOOTH",
"359 666 OFFCURVE",
"412 791 OFFCURVE",
"412 962 CURVE SMOOTH",
"412 1022 LINE SMOOTH",
"412 1197 OFFCURVE",
"354 1293 OFFCURVE",
"220 1293 CURVE SMOOTH",
"147 1293 OFFCURVE",
"91 1259 OFFCURVE",
"58 1229 CURVE",
"52 1187 LINE",
"102 1228 OFFCURVE",
"150 1257 OFFCURVE",
"219 1257 CURVE SMOOTH",
"328 1257 OFFCURVE",
"374 1174 OFFCURVE",
"374 1022 CURVE SMOOTH",
"374 961 LINE SMOOTH",
"374 810 OFFCURVE",
"324 682 OFFCURVE",
"214 425 CURVE SMOOTH",
"50 41 LINE",
"50 0 LINE"
);
}
);
width = 486;
},
{
layerId = "DF0EE8E4-AB0C-48FB-AB57-676AC09C8CC1";
paths = (
{
closed = 1;
nodes = (
"673 0 LINE",
"673 283 LINE",
"213 283 LINE",
"356 246 LINE",
"356 294 LINE",
"489 485 LINE SMOOTH",
"603 648 OFFCURVE",
"670 767 OFFCURVE",
"670 921 CURVE SMOOTH",
"670 947 LINE SMOOTH",
"670 1160 OFFCURVE",
"555 1298 OFFCURVE",
"323 1298 CURVE SMOOTH",
"204 1298 OFFCURVE",
"118 1263 OFFCURVE",
"63 1225 CURVE",
"45 955 LINE",
"92 984 OFFCURVE",
"151 1015 OFFCURVE",
"225 1015 CURVE SMOOTH",
"309 1015 OFFCURVE",
"352 975 OFFCURVE",
"352 895 CURVE SMOOTH",
"352 878 LINE SMOOTH",
"352 813 OFFCURVE",
"323 759 OFFCURVE",
"252 647 CURVE SMOOTH",
"34 305 LINE",
"34 0 LINE"
);
}
);
width = 707;
},
{
layerId = "825A4CEE-7199-41F6-ACE2-F406C7380F94";
paths = (
{
closed = 1;
nodes = (
"1165 0 LINE",
"1165 37 LINE",
"136 37 LINE",
"154 25 LINE",
"154 46 LINE",
"617 341 LINE SMOOTH",
"902 525 OFFCURVE",
"1131 664 OFFCURVE",
"1131 914 CURVE SMOOTH",
"1131 921 LINE SMOOTH",
"1131 1165 OFFCURVE",
"958 1298 OFFCURVE",
"644 1298 CURVE SMOOTH",
"397 1298 OFFCURVE",
"227 1207 OFFCURVE",
"118 1133 CURVE",
"112 1088 LINE",
"245 1179 OFFCURVE",
"421 1261 OFFCURVE",
"642 1261 CURVE SMOOTH",
"934 1261 OFFCURVE",
"1090 1140 OFFCURVE",
"1090 921 CURVE SMOOTH",
"1090 916 LINE SMOOTH",
"1090 677 OFFCURVE",
"865 547 OFFCURVE",
"598 373 CURVE SMOOTH",
"110 58 LINE",
"110 0 LINE"
);
}
);
width = 1287;
},
{
layerId = "3B7D2D6B-4C7F-469B-8FA8-9D341C52EB57";
paths = (
{
closed = 1;
nodes = (
"1244 0 LINE",
"1244 322 LINE",
"513 322 LINE",
"690 256 LINE",
"690 335 LINE",
"876 424 LINE SMOOTH",
"1141 551 OFFCURVE",
"1226 677 OFFCURVE",
"1226 870 CURVE SMOOTH",
"1226 884 LINE SMOOTH",
"1226 1159 OFFCURVE",
"1022 1312 OFFCURVE",
"639 1312 CURVE SMOOTH",
"415 1312 OFFCURVE",
"241 1265 OFFCURVE",
"121 1210 CURVE",
"77 870 LINE",
"201 922 OFFCURVE",
"375 975 OFFCURVE",
"553 975 CURVE SMOOTH",
"762 975 OFFCURVE",
"809 909 OFFCURVE",
"809 826 CURVE SMOOTH",
"809 819 LINE SMOOTH",
"809 719 OFFCURVE",
"717 654 OFFCURVE",
"469 535 CURVE SMOOTH",
"66 342 LINE",
"66 0 LINE"
);
}
);
width = 1316;
},
{
layerId = "D1180855-BCFE-435D-BBAD-373D6E72A0DF";
paths = (
{
closed = 1;
nodes = (
"548 0 LINE",
"548 160 LINE",
"143 160 LINE",
"220 130 LINE",
"220 168 LINE",
"367 448 LINE SMOOTH",
"477 658 OFFCURVE",
"541 779 OFFCURVE",
"541 942 CURVE SMOOTH",
"541 975 LINE SMOOTH",
"541 1175 OFFCURVE",
"452 1296 OFFCURVE",
"262 1296 CURVE SMOOTH",
"174 1296 OFFCURVE",
"103 1265 OFFCURVE",
"61 1234 CURVE",
"49 1067 LINE",
"97 1102 OFFCURVE",
"151 1132 OFFCURVE",
"222 1132 CURVE SMOOTH",
"318 1132 OFFCURVE",
"362 1071 OFFCURVE",
"362 955 CURVE SMOOTH",
"362 920 LINE SMOOTH",
"362 812 OFFCURVE",
"328 718 OFFCURVE",
"232 536 CURVE SMOOTH",
"42 176 LINE",
"42 0 LINE"
);
}
);
width = 597;
},
{
layerId = "13EBB120-61C6-43BE-BE80-275AFBEF3308";
paths = (
{
closed = 1;
nodes = (
"1205 0 LINE",
"1205 183 LINE",
"325 183 LINE",
"416 144 LINE",
"416 193 LINE",
"749 381 LINE SMOOTH",
"1023 536 OFFCURVE",
"1179 672 OFFCURVE",
"1179 893 CURVE SMOOTH",
"1179 904 LINE SMOOTH",
"1179 1162 OFFCURVE",
"990 1305 OFFCURVE",
"642 1305 CURVE SMOOTH",
"416 1305 OFFCURVE",
"234 1240 OFFCURVE",
"120 1179 CURVE",
"95 977 LINE",
"226 1050 OFFCURVE",
"404 1119 OFFCURVE",
"608 1119 CURVE SMOOTH",
"842 1119 OFFCURVE",
"950 1029 OFFCURVE",
"950 884 CURVE SMOOTH",
"950 878 LINE SMOOTH",
"950 716 OFFCURVE",
"798 615 OFFCURVE",
"576 486 CURVE SMOOTH",
"88 203 LINE",
"88 0 LINE"
);
}
);
width = 1302;
},
{
layerId = "C57162E4-21E6-4CBA-854D-82A45BE477A0";
paths = (
{
closed = 1;
nodes = (
"802 0 LINE",
"802 36 LINE",
"110 36 LINE",
"127 19 LINE",
"127 42 LINE",
"438 376 LINE SMOOTH",
"640 593 OFFCURVE",
"778 737 OFFCURVE",
"778 949 CURVE SMOOTH",
"778 962 LINE SMOOTH",
"778 1179 OFFCURVE",
"661 1295 OFFCURVE",
"435 1295 CURVE SMOOTH",
"276 1295 OFFCURVE",
"164 1233 OFFCURVE",
"94 1181 CURVE",
"88 1138 LINE",
"179 1204 OFFCURVE",
"292 1259 OFFCURVE",
"434 1259 CURVE SMOOTH",
"637 1259 OFFCURVE",
"739 1154 OFFCURVE",
"739 962 CURVE SMOOTH",
"739 950 LINE SMOOTH",
"739 753 OFFCURVE",
"606 611 OFFCURVE",
"410 400 CURVE SMOOTH",
"86 50 LINE",
"86 0 LINE"
);
}
);
width = 899;
},
{
layerId = "D1B4C6CF-B771-4849-A887-0D6177A69D8B";
paths = (
{
closed = 1;
nodes = (
"959 0 LINE",
"959 304 LINE",
"363 304 LINE",
"520 252 LINE",
"520 316 LINE",
"685 454 LINE SMOOTH",
"870 609 OFFCURVE",
"948 718 OFFCURVE",
"948 903 CURVE SMOOTH",
"948 917 LINE SMOOTH",
"948 1161 OFFCURVE",
"789 1306 OFFCURVE",
"481 1306 CURVE SMOOTH",
"310 1306 OFFCURVE",
"180 1268 OFFCURVE",
"92 1224 CURVE",
"61 914 LINE",
"146 954 OFFCURVE",
"261 996 OFFCURVE",
"385 996 CURVE SMOOTH",
"531 996 OFFCURVE",
"579 943 OFFCURVE",
"579 868 CURVE SMOOTH",
"579 859 LINE SMOOTH",
"579 770 OFFCURVE",
"511 706 OFFCURVE",
"361 581 CURVE SMOOTH",
"50 323 LINE",
"50 0 LINE"
);
}
);
width = 1012;
},
{
layerId = "F908E90C-D8C5-4664-8A98-C6332077FED2";
paths = (
{
closed = 1;
nodes = (
"878 0 LINE",
"878 170 LINE",
"234 170 LINE",
"316 136 LINE",
"316 179 LINE",
"561 415 LINE SMOOTH",
"754 601 OFFCURVE",
"860 728 OFFCURVE",
"860 926 CURVE SMOOTH",
"860 940 LINE SMOOTH",
"860 1170 OFFCURVE",
"723 1301 OFFCURVE",
"449 1301 CURVE SMOOTH",
"287 1301 OFFCURVE",
"168 1252 OFFCURVE",
"90 1205 CURVE",
"72 1026 LINE",
"160 1079 OFFCURVE",
"277 1128 OFFCURVE",
"408 1128 CURVE SMOOTH",
"581 1128 OFFCURVE",
"656 1049 OFFCURVE",
"656 915 CURVE SMOOTH",
"656 905 LINE SMOOTH",
"656 762 OFFCURVE",
"558 658 OFFCURVE",
"383 491 CURVE SMOOTH",
"65 187 LINE",
"65 0 LINE"
);
}
);
width = 950;
}
);
unicode = 0032;
},
{
glyphname = three;
lastChange = "2021-12-01 12:49:26 +0000";
layers = (
{
layerId = "97B58FCF-3A12-4579-9B1E-E0D00032C06B";
paths = (
{
closed = 1;
nodes = (
"367 -15 OFFCURVE",
"426 87 OFFCURVE",
"426 260 CURVE SMOOTH",
"426 413 LINE SMOOTH",
"426 558 OFFCURVE",
"379 659 OFFCURVE",
"235 671 CURVE",
"235 669 LINE",
"235 667 LINE",
"377 675 OFFCURVE",
"420 779 OFFCURVE",
"420 914 CURVE SMOOTH",
"420 1021 LINE SMOOTH",
"420 1195 OFFCURVE",
"367 1293 OFFCURVE",
"220 1293 CURVE SMOOTH",
"148 1293 OFFCURVE",
"91 1265 OFFCURVE",
"53 1229 CURVE",
"47 1188 LINE",
"96 1230 OFFCURVE",
"150 1258 OFFCURVE",
"220 1258 CURVE SMOOTH",
"341 1258 OFFCURVE",
"382 1175 OFFCURVE",
"382 1021 CURVE SMOOTH",
"382 913 LINE SMOOTH",
"382 769 OFFCURVE",
"334 686 OFFCURVE",
"188 682 CURVE SMOOTH",
"115 680 LINE",
"115 651 LINE",
"186 649 LINE SMOOTH",
"327 645 OFFCURVE",
"388 577 OFFCURVE",
"388 413 CURVE SMOOTH",
"388 260 LINE SMOOTH",
"388 107 OFFCURVE",
"339 20 OFFCURVE",
"215 20 CURVE SMOOTH",
"143 20 OFFCURVE",
"90 48 OFFCURVE",
"40 90 CURVE",
"46 47 LINE",
"81 15 OFFCURVE",
"141 -15 OFFCURVE",
"215 -15 CURVE SMOOTH"
);
}
);
width = 506;
},
{
layerId = "DF0EE8E4-AB0C-48FB-AB57-676AC09C8CC1";
paths = (
{
closed = 1;
nodes = (
"560 -20 OFFCURVE",
"676 125 OFFCURVE",
"676 343 CURVE SMOOTH",
"676 374 LINE SMOOTH",
"676 544 OFFCURVE",
"609 634 OFFCURVE",
"441 656 CURVE",
"455 617 LINE",
"455 665 LINE",
"594 691 OFFCURVE",
"670 776 OFFCURVE",
"670 945 CURVE SMOOTH",
"670 973 LINE SMOOTH",
"670 1174 OFFCURVE",
"563 1298 OFFCURVE",
"328 1298 CURVE SMOOTH",
"205 1298 OFFCURVE",
"117 1266 OFFCURVE",
"59 1233 CURVE",
"41 967 LINE",
"93 993 OFFCURVE",
"155 1018 OFFCURVE",
"235 1018 CURVE SMOOTH",
"321 1018 OFFCURVE",
"354 977 OFFCURVE",
"354 904 CURVE SMOOTH",
"354 896 LINE SMOOTH",
"354 818 OFFCURVE",
"313 785 OFFCURVE",
"214 780 CURVE SMOOTH",
"136 776 LINE",
"136 506 LINE",
"214 503 LINE SMOOTH",
"318 499 OFFCURVE",
"354 465 OFFCURVE",
"354 387 CURVE SMOOTH",
"354 377 LINE SMOOTH",
"354 301 OFFCURVE",
"323 263 OFFCURVE",
"223 263 CURVE SMOOTH",
"152 263 OFFCURVE",
"88 289 OFFCURVE",
"30 320 CURVE",
"48 42 LINE",
"101 9 OFFCURVE",
"199 -20 OFFCURVE",
"301 -20 CURVE SMOOTH"
);
}
);
width = 712;
},
{
layerId = "825A4CEE-7199-41F6-ACE2-F406C7380F94";
paths = (
{
closed = 1;
nodes = (
"1053 -21 OFFCURVE",
"1235 123 OFFCURVE",
"1235 341 CURVE SMOOTH",
"1235 361 LINE SMOOTH",
"1235 556 OFFCURVE",
"1093 672 OFFCURVE",
"765 674 CURVE",
"747 667 LINE",
"747 661 LINE",
"1085 663 OFFCURVE",
"1217 795 OFFCURVE",
"1217 963 CURVE SMOOTH",
"1217 977 LINE SMOOTH",
"1217 1175 OFFCURVE",
"1058 1297 OFFCURVE",
"704 1297 CURVE SMOOTH",
"436 1297 OFFCURVE",
"246 1220 OFFCURVE",
"150 1157 CURVE",
"145 1115 LINE",
"268 1192 OFFCURVE",
"445 1260 OFFCURVE",
"702 1260 CURVE SMOOTH",
"1029 1260 OFFCURVE",
"1176 1157 OFFCURVE",
"1176 977 CURVE SMOOTH",
"1176 963 LINE SMOOTH",
"1176 806 OFFCURVE",
"1057 686 OFFCURVE",
"726 685 CURVE SMOOTH",
"402 684 LINE",
"402 652 LINE",
"724 651 LINE SMOOTH",
"1071 650 OFFCURVE",
"1194 538 OFFCURVE",
"1194 359 CURVE SMOOTH",
"1194 343 LINE SMOOTH",
"1194 144 OFFCURVE",
"1025 16 OFFCURVE",
"677 16 CURVE SMOOTH",
"450 16 OFFCURVE",
"256 80 OFFCURVE",
"138 145 CURVE",
"143 100 LINE",
"230 56 OFFCURVE",
"422 -21 OFFCURVE",
"677 -21 CURVE SMOOTH"
);
}
);
width = 1375;
},
{
layerId = "3B7D2D6B-4C7F-469B-8FA8-9D341C52EB57";
paths = (
{
closed = 1;
nodes = (
"1077 -34 OFFCURVE",
"1298 107 OFFCURVE",
"1298 348 CURVE SMOOTH",
"1298 363 LINE SMOOTH",
"1298 539 OFFCURVE",
"1207 647 OFFCURVE",
"941 667 CURVE",
"970 630 LINE",
"970 680 LINE",
"1201 691 OFFCURVE",
"1288 781 OFFCURVE",
"1288 949 CURVE SMOOTH",
"1288 960 LINE SMOOTH",
"1288 1196 OFFCURVE",
"1074 1313 OFFCURVE",
"652 1313 CURVE SMOOTH",
"420 1313 OFFCURVE",
"246 1277 OFFCURVE",
"109 1229 CURVE",
"75 916 LINE",
"205 951 OFFCURVE",
"402 996 OFFCURVE",
"600 996 CURVE SMOOTH",
"815 996 OFFCURVE",
"872 971 OFFCURVE",
"872 903 CURVE SMOOTH",
"872 900 LINE SMOOTH",
"872 833 OFFCURVE",
"823 810 OFFCURVE",
"674 806 CURVE SMOOTH",
"267 796 LINE",
"267 506 LINE",
"676 496 LINE SMOOTH",
"825 492 OFFCURVE",
"875 470 OFFCURVE",
"875 403 CURVE SMOOTH",
"875 397 LINE SMOOTH",
"875 327 OFFCURVE",
"822 288 OFFCURVE",
"584 288 CURVE SMOOTH",
"383 288 OFFCURVE",
"206 324 OFFCURVE",
"66 367 CURVE",
"100 39 LINE",
"214 5 OFFCURVE",
"395 -34 OFFCURVE",
"618 -34 CURVE SMOOTH"
);
}
);
width = 1368;
},
{
layerId = "D1180855-BCFE-435D-BBAD-373D6E72A0DF";
paths = (
{
closed = 1;
nodes = (
"463 -18 OFFCURVE",
"551 106 OFFCURVE",
"551 302 CURVE SMOOTH",
"551 404 LINE SMOOTH",
"551 544 OFFCURVE",
"502 635 OFFCURVE",
"362 661 CURVE",
"369 643 LINE",
"369 669 LINE",
"493 695 OFFCURVE",
"545 785 OFFCURVE",
"545 920 CURVE SMOOTH",
"545 998 LINE SMOOTH",
"545 1186 OFFCURVE",
"464 1297 OFFCURVE",
"272 1297 CURVE SMOOTH",
"176 1297 OFFCURVE",
"104 1269 OFFCURVE",
"56 1237 CURVE",
"44 1075 LINE",
"95 1105 OFFCURVE",
"157 1134 OFFCURVE",
"228 1134 CURVE SMOOTH",
"330 1134 OFFCURVE",
"367 1072 OFFCURVE",
"367 959 CURVE SMOOTH",
"367 907 LINE SMOOTH",
"367 796 OFFCURVE",
"322 738 OFFCURVE",
"201 733 CURVE SMOOTH",
"126 730 LINE",
"126 577 LINE",
"200 574 LINE SMOOTH",
"322 569 OFFCURVE",
"371 519 OFFCURVE",
"371 398 CURVE SMOOTH",
"371 322 LINE SMOOTH",
"371 208 OFFCURVE",
"333 147 OFFCURVE",
"223 147 CURVE SMOOTH",
"151 147 OFFCURVE",
"90 175 OFFCURVE",
"35 212 CURVE",
"47 40 LINE",
"92 10 OFFCURVE",
"169 -18 OFFCURVE",
"256 -18 CURVE SMOOTH"
);
}
);
width = 609;
},
{
layerId = "13EBB120-61C6-43BE-BE80-275AFBEF3308";
paths = (
{
closed = 1;
nodes = (
"1064 -29 OFFCURVE",
"1267 118 OFFCURVE",
"1267 357 CURVE SMOOTH",
"1267 370 LINE SMOOTH",
"1267 549 OFFCURVE",
"1176 645 OFFCURVE",
"977 673 CURVE",
"983 651 LINE",
"983 682 LINE",
"1167 705 OFFCURVE",
"1253 798 OFFCURVE",
"1253 955 CURVE SMOOTH",
"1253 968 LINE SMOOTH",
"1253 1187 OFFCURVE",
"1066 1306 OFFCURVE",
"678 1306 CURVE SMOOTH",
"430 1306 OFFCURVE",
"249 1251 OFFCURVE",
"134 1195 CURVE",
"110 1005 LINE",
"237 1065 OFFCURVE",
"444 1124 OFFCURVE",
"651 1124 CURVE SMOOTH",
"922 1124 OFFCURVE",
"1024 1061 OFFCURVE",
"1024 942 CURVE SMOOTH",
"1024 934 LINE SMOOTH",
"1024 825 OFFCURVE",
"946 756 OFFCURVE",
"714 752 CURVE SMOOTH",
"335 746 LINE",
"335 572 LINE",
"714 568 LINE SMOOTH",
"954 565 OFFCURVE",
"1035 499 OFFCURVE",
"1035 377 CURVE SMOOTH",
"1035 366 LINE SMOOTH",
"1035 241 OFFCURVE",
"924 161 OFFCURVE",
"638 161 CURVE SMOOTH",
"417 161 OFFCURVE",
"231 216 OFFCURVE",
"102 276 CURVE",
"126 69 LINE",
"223 29 OFFCURVE",
"413 -29 OFFCURVE",
"648 -29 CURVE SMOOTH"
);
}
);
width = 1372;
},
{
layerId = "C57162E4-21E6-4CBA-854D-82A45BE477A0";
paths = (
{
closed = 1;
nodes = (
"716 -18 OFFCURVE",
"837 113 OFFCURVE",
"837 321 CURVE SMOOTH",
"837 364 LINE SMOOTH",
"837 547 OFFCURVE",
"748 661 OFFCURVE",
"526 668 CURVE",
"522 661 LINE",
"528 657 LINE",
"744 662 OFFCURVE",
"825 785 OFFCURVE",
"825 947 CURVE SMOOTH",
"825 976 LINE SMOOTH",
"825 1176 OFFCURVE",
"719 1295 OFFCURVE",
"468 1295 CURVE SMOOTH",
"301 1295 OFFCURVE",
"175 1243 OFFCURVE",
"108 1193 CURVE",
"102 1152 LINE",
"188 1211 OFFCURVE",
"307 1259 OFFCURVE",
"467 1259 CURVE SMOOTH",
"692 1259 OFFCURVE",
"786 1158 OFFCURVE",
"786 976 CURVE SMOOTH",
"786 946 LINE SMOOTH",
"786 787 OFFCURVE",
"711 679 OFFCURVE",
"492 677 CURVE SMOOTH",
"265 675 LINE",
"265 644 LINE",
"484 643 LINE SMOOTH",
"712 642 OFFCURVE",
"798 544 OFFCURVE",
"798 363 CURVE SMOOTH",
"798 322 LINE SMOOTH",
"798 134 OFFCURVE",
"689 18 OFFCURVE",
"452 18 CURVE SMOOTH",
"310 18 OFFCURVE",
"179 64 OFFCURVE",
"95 119 CURVE",
"101 74 LINE",
"162 36 OFFCURVE",
"291 -18 OFFCURVE",
"452 -18 CURVE SMOOTH"
);
}
);
width = 953;
},
{
layerId = "D1B4C6CF-B771-4849-A887-0D6177A69D8B";
paths = (
{
closed = 1;
nodes = (
"817 -29 OFFCURVE",
"987 114 OFFCURVE",
"987 344 CURVE SMOOTH",
"987 367 LINE SMOOTH",
"987 540 OFFCURVE",
"911 636 OFFCURVE",
"697 663 CURVE",
"719 623 LINE",
"719 671 LINE",
"900 694 OFFCURVE",
"979 780 OFFCURVE",
"979 946 CURVE SMOOTH",
"979 966 LINE SMOOTH",
"979 1185 OFFCURVE",
"817 1306 OFFCURVE",
"488 1306 CURVE SMOOTH",
"314 1306 OFFCURVE",
"185 1273 OFFCURVE",
"88 1233 CURVE",
"58 942 LINE",
"149 972 OFFCURVE",
"279 1007 OFFCURVE",
"418 1007 CURVE SMOOTH",
"568 1007 OFFCURVE",
"613 974 OFFCURVE",
"613 903 CURVE SMOOTH",
"613 897 LINE SMOOTH",
"613 827 OFFCURVE",
"567 796 OFFCURVE",
"442 792 CURVE SMOOTH",
"202 785 LINE",
"202 505 LINE",
"443 499 LINE SMOOTH",
"571 496 OFFCURVE",
"615 465 OFFCURVE",
"615 393 CURVE SMOOTH",
"615 385 LINE SMOOTH",
"615 312 OFFCURVE",
"573 274 OFFCURVE",
"404 274 CURVE SMOOTH",
"268 274 OFFCURVE",
"147 305 OFFCURVE",
"48 342 CURVE",
"78 34 LINE",
"161 3 OFFCURVE",
"298 -29 OFFCURVE",
"458 -29 CURVE SMOOTH"
);
}
);
width = 1040;
},
{
layerId = "F908E90C-D8C5-4664-8A98-C6332077FED2";
paths = (
{
closed = 1;
nodes = (
"763 -23 OFFCURVE",
"909 114 OFFCURVE",
"909 344 CURVE SMOOTH",
"909 378 LINE SMOOTH",
"909 547 OFFCURVE",
"836 634 OFFCURVE",
"661 667 CURVE",
"667 646 LINE",
"667 676 LINE",
"828 704 OFFCURVE",
"899 802 OFFCURVE",
"899 953 CURVE SMOOTH",
"899 973 LINE SMOOTH",
"899 1181 OFFCURVE",
"765 1301 OFFCURVE",
"474 1301 CURVE SMOOTH",
"302 1301 OFFCURVE",
"177 1258 OFFCURVE",
"94 1211 CURVE",
"77 1037 LINE",
"170 1086 OFFCURVE",
"298 1131 OFFCURVE",
"440 1131 CURVE SMOOTH",
"627 1131 OFFCURVE",
"696 1066 OFFCURVE",
"696 942 CURVE SMOOTH",
"696 928 LINE SMOOTH",
"696 811 OFFCURVE",
"629 744 OFFCURVE",
"441 740 CURVE SMOOTH",
"231 735 LINE",
"231 576 LINE",
"440 572 LINE SMOOTH",
"633 568 OFFCURVE",
"703 509 OFFCURVE",
"703 376 CURVE SMOOTH",
"703 357 LINE SMOOTH",
"703 227 OFFCURVE",
"629 153 OFFCURVE",
"429 153 CURVE SMOOTH",
"283 153 OFFCURVE",
"159 196 OFFCURVE",
"69 246 CURVE",
"88 52 LINE",
"157 19 OFFCURVE",
"282 -23 OFFCURVE",
"446 -23 CURVE SMOOTH"
);
}
);
width = 991;
}
);
unicode = 0033;
},
{
glyphname = four;
lastChange = "2021-12-01 12:49:26 +0000";
layers = (
{
layerId = "97B58FCF-3A12-4579-9B1E-E0D00032C06B";
paths = (
{
closed = 1;
nodes = (
"418 0 LINE",
"418 1278 LINE",
"335 1278 LINE",
"36 296 LINE",
"36 253 LINE",
"529 253 LINE",
"529 287 LINE",
"58 287 LINE",
"73 267 LINE",
"73 294 LINE",
"361 1245 LINE",
"382 1245 LINE",
"380 989 LINE",
"380 0 LINE"
);
}
);
width = 555;
},
{
layerId = "DF0EE8E4-AB0C-48FB-AB57-676AC09C8CC1";
paths = (
{
closed = 1;
nodes = (
"733 0 LINE",
"733 1278 LINE",
"235 1278 LINE",
"35 475 LINE",
"35 202 LINE",
"825 202 LINE",
"825 455 LINE",
"185 455 LINE",
"309 368 LINE",
"309 465 LINE",
"442 1066 LINE",
"459 1066 LINE",
"447 663 LINE",
"447 0 LINE"
);
}
);
width = 852;
},
{
layerId = "825A4CEE-7199-41F6-ACE2-F406C7380F94";
paths = (
{
closed = 1;
nodes = (
"1050 0 LINE",
"1050 1278 LINE",
"949 1278 LINE",
"78 373 LINE",
"78 309 LINE",
"1324 309 LINE",
"1324 345 LINE",
"102 345 LINE",
"119 320 LINE",
"119 362 LINE",
"969 1244 LINE",
"1012 1244 LINE",
"1011 998 LINE",
"1011 0 LINE"
);
}
);
width = 1352;
},
{
layerId = "3B7D2D6B-4C7F-469B-8FA8-9D341C52EB57";
paths = (
{
closed = 1;
nodes = (
"1281 0 LINE",
"1281 1278 LINE",
"690 1278 LINE",
"64 581 LINE",
"64 215 LINE",
"1456 215 LINE",
"1456 524 LINE",
"333 524 LINE",
"468 364 LINE",
"468 545 LINE",
"874 1000 LINE",
"907 1000 LINE",
"903 739 LINE",
"903 0 LINE"
);
}
);
width = 1500;
},
{
layerId = "D1180855-BCFE-435D-BBAD-373D6E72A0DF";
paths = (
{
closed = 1;
nodes = (
"576 0 LINE",
"576 1278 LINE",
"280 1278 LINE",
"36 391 LINE",
"36 218 LINE",
"677 218 LINE",
"677 373 LINE",
"122 373 LINE",
"199 320 LINE",
"199 383 LINE",
"399 1150 LINE",
"418 1150 LINE",
"409 826 LINE",
"409 0 LINE"
);
}
);
width = 704;
},
{
layerId = "13EBB120-61C6-43BE-BE80-275AFBEF3308";
paths = (
{
closed = 1;
nodes = (
"1166 0 LINE",
"1166 1278 LINE",
"802 1278 LINE",
"71 477 LINE",
"71 257 LINE",
"1390 257 LINE",
"1390 439 LINE",
"230 439 LINE",
"316 346 LINE",
"316 458 LINE",
"920 1122 LINE",
"953 1122 LINE",
"950 869 LINE",
"950 0 LINE"
);
}
);
width = 1426;
},
{
layerId = "C57162E4-21E6-4CBA-854D-82A45BE477A0";
paths = (
{
closed = 1;
nodes = (
"741 0 LINE",
"741 1278 LINE",
"648 1278 LINE",
"63 335 LINE",
"63 281 LINE",
"933 281 LINE",
"933 316 LINE",
"86 316 LINE",
"102 294 LINE",
"102 327 LINE",
"672 1245 LINE",
"703 1245 LINE",
"702 994 LINE",
"702 0 LINE"
);
}
);
width = 966;
},
{
layerId = "D1B4C6CF-B771-4849-A887-0D6177A69D8B";
paths = (
{
closed = 1;
nodes = (
"1007 0 LINE",
"1007 1278 LINE",
"444 1278 LINE",
"50 531 LINE",
"50 202 LINE",
"1141 202 LINE",
"1141 494 LINE",
"259 494 LINE",
"397 372 LINE",
"397 511 LINE",
"655 1031 LINE",
"679 1031 LINE",
"664 681 LINE",
"664 0 LINE"
);
}
);
width = 1176;
},
{
layerId = "F908E90C-D8C5-4664-8A98-C6332077FED2";
paths = (
{
closed = 1;
nodes = (
"871 0 LINE",
"871 1278 LINE",
"541 1278 LINE",
"54 434 LINE",
"54 238 LINE",
"1034 238 LINE",
"1034 406 LINE",
"176 406 LINE",
"253 333 LINE",
"253 421 LINE",
"661 1139 LINE",
"687 1139 LINE",
"680 848 LINE",
"680 0 LINE"
);
}
);
width = 1065;
}
);
unicode = 0034;
},
{
glyphname = five;
lastChange = "2021-12-01 12:49:26 +0000";
layers = (
{
layerId = "97B58FCF-3A12-4579-9B1E-E0D00032C06B";
paths = (
{
closed = 1;
nodes = (
"404 -20 OFFCURVE",
"463 74 OFFCURVE",
"463 245 CURVE SMOOTH",
"463 519 LINE SMOOTH",
"463 682 OFFCURVE",
"406 781 OFFCURVE",
"287 781 CURVE SMOOTH",
"195 781 OFFCURVE",
"145 724 OFFCURVE",
"127 645 CURVE",
"130 640 LINE",
"134 824 LINE",
"134 1244 LINE",
"454 1244 LINE",
"454 1278 LINE",
"97 1278 LINE",
"97 612 LINE",
"130 608 LINE",
"156 697 OFFCURVE",
"197 747 OFFCURVE",
"279 747 CURVE SMOOTH",
"385 747 OFFCURVE",
"425 657 OFFCURVE",
"425 514 CURVE SMOOTH",
"425 245 LINE SMOOTH",
"425 95 OFFCURVE",
"377 15 OFFCURVE",
"267 15 CURVE SMOOTH",
"197 15 OFFCURVE",
"143 45 OFFCURVE",
"92 86 CURVE",
"98 43 LINE",
"129 14 OFFCURVE",
"190 -20 OFFCURVE",
"267 -20 CURVE SMOOTH"
);
}
);
width = 552;
},
{
layerId = "DF0EE8E4-AB0C-48FB-AB57-676AC09C8CC1";
paths = (
{
closed = 1;
nodes = (
"625 -18 OFFCURVE",
"737 131 OFFCURVE",
"737 412 CURVE SMOOTH",
"737 502 LINE SMOOTH",
"737 722 OFFCURVE",
"685 846 OFFCURVE",
"540 846 CURVE SMOOTH",
"428 846 OFFCURVE",
"378 786 OFFCURVE",
"359 673 CURVE",
"347 673 LINE",
"351 842 LINE",
"351 1000 LINE",
"691 1000 LINE",
"691 1278 LINE",
"63 1278 LINE",
"63 503 LINE",
"343 476 LINE",
"343 546 OFFCURVE",
"352 586 OFFCURVE",
"390 586 CURVE SMOOTH",
"426 586 OFFCURVE",
"437 557 OFFCURVE",
"437 486 CURVE SMOOTH",
"437 410 LINE SMOOTH",
"437 307 OFFCURVE",
"397 265 OFFCURVE",
"283 265 CURVE SMOOTH",
"196 265 OFFCURVE",
"118 294 OFFCURVE",
"57 326 CURVE",
"76 44 LINE",
"132 13 OFFCURVE",
"220 -18 OFFCURVE",
"337 -18 CURVE SMOOTH"
);
}
);
width = 779;
},
{
layerId = "825A4CEE-7199-41F6-ACE2-F406C7380F94";
paths = (
{
closed = 1;
nodes = (
"1107 -16 OFFCURVE",
"1297 148 OFFCURVE",
"1297 400 CURVE SMOOTH",
"1297 414 LINE SMOOTH",
"1297 667 OFFCURVE",
"1128 813 OFFCURVE",
"795 813 CURVE SMOOTH",
"513 813 OFFCURVE",
"346 706 OFFCURVE",
"235 571 CURVE",
"248 569 LINE",
"250 857 LINE",
"250 1242 LINE",
"1243 1242 LINE",
"1243 1278 LINE",
"212 1278 LINE",
"212 549 LINE",
"243 542 LINE",
"375 699 OFFCURVE",
"541 777 OFFCURVE",
"797 777 CURVE SMOOTH",
"1103 777 OFFCURVE",
"1256 643 OFFCURVE",
"1256 413 CURVE SMOOTH",
"1256 402 LINE SMOOTH",
"1256 164 OFFCURVE",
"1078 21 OFFCURVE",
"744 21 CURVE SMOOTH",
"497 21 OFFCURVE",
"323 84 OFFCURVE",
"200 153 CURVE",
"207 109 LINE",
"307 53 OFFCURVE",
"475 -16 OFFCURVE",
"744 -16 CURVE SMOOTH"
);
}
);
width = 1429;
},
{
layerId = "3B7D2D6B-4C7F-469B-8FA8-9D341C52EB57";
paths = (
{
closed = 1;
nodes = (
"1217 -36 OFFCURVE",
"1375 165 OFFCURVE",
"1375 424 CURVE SMOOTH",
"1375 440 LINE SMOOTH",
"1375 698 OFFCURVE",
"1226 848 OFFCURVE",
"924 848 CURVE SMOOTH",
"679 848 OFFCURVE",
"551 759 OFFCURVE",
"498 638 CURVE",
"488 638 LINE",
"491 791 LINE",
"489 963 LINE",
"1318 963 LINE",
"1318 1278 LINE",
"117 1278 LINE",
"117 533 LINE",
"454 465 LINE",
"518 518 OFFCURVE",
"617 559 OFFCURVE",
"763 559 CURVE SMOOTH",
"911 559 OFFCURVE",
"970 511 OFFCURVE",
"970 434 CURVE SMOOTH",
"970 427 LINE SMOOTH",
"970 355 OFFCURVE",
"922 287 OFFCURVE",
"666 287 CURVE SMOOTH",
"452 287 OFFCURVE",
"237 344 OFFCURVE",
"110 392 CURVE",
"151 53 LINE",
"251 14 OFFCURVE",
"456 -36 OFFCURVE",
"690 -36 CURVE SMOOTH"
);
}
);
width = 1449;
},
{
layerId = "D1180855-BCFE-435D-BBAD-373D6E72A0DF";
paths = (
{
closed = 1;
nodes = (
"514 -19 OFFCURVE",
"600 104 OFFCURVE",
"600 331 CURVE SMOOTH",
"600 511 LINE SMOOTH",
"600 702 OFFCURVE",
"546 814 OFFCURVE",
"415 814 CURVE SMOOTH",
"322 814 OFFCURVE",
"277 767 OFFCURVE",
"254 689 CURVE",
"245 689 LINE",
"249 863 LINE",
"249 1118 LINE",
"573 1118 LINE",
"573 1278 LINE",
"77 1278 LINE",
"77 558 LINE",
"243 542 LINE",
"256 619 OFFCURVE",
"280 663 OFFCURVE",
"338 663 CURVE SMOOTH",
"402 663 OFFCURVE",
"422 606 OFFCURVE",
"422 506 CURVE SMOOTH",
"422 332 LINE SMOOTH",
"422 205 OFFCURVE",
"379 144 OFFCURVE",
"270 144 CURVE SMOOTH",
"193 144 OFFCURVE",
"127 174 OFFCURVE",
"72 211 CURVE",
"84 39 LINE",
"129 11 OFFCURVE",
"201 -19 OFFCURVE",
"298 -19 CURVE SMOOTH"
);
}
);
width = 666;
},
{
layerId = "13EBB120-61C6-43BE-BE80-275AFBEF3308";
paths = (
{
closed = 1;
nodes = (
"1153 -26 OFFCURVE",
"1336 155 OFFCURVE",
"1336 412 CURVE SMOOTH",
"1336 427 LINE SMOOTH",
"1336 685 OFFCURVE",
"1179 835 OFFCURVE",
"863 835 CURVE SMOOTH",
"621 835 OFFCURVE",
"466 747 OFFCURVE",
"386 633 CURVE",
"378 633 LINE",
"380 824 LINE",
"380 1097 LINE",
"1281 1097 LINE",
"1281 1278 LINE",
"165 1278 LINE",
"165 533 LINE",
"357 493 LINE",
"454 594 OFFCURVE",
"598 657 OFFCURVE",
"786 657 CURVE SMOOTH",
"1011 657 OFFCURVE",
"1113 570 OFFCURVE",
"1113 425 CURVE SMOOTH",
"1113 416 LINE SMOOTH",
"1113 266 OFFCURVE",
"1000 164 OFFCURVE",
"705 164 CURVE SMOOTH",
"475 164 OFFCURVE",
"280 225 OFFCURVE",
"155 285 CURVE",
"179 78 LINE",
"279 32 OFFCURVE",
"466 -26 OFFCURVE",
"717 -26 CURVE SMOOTH"
);
}
);
width = 1439;
},
{
layerId = "C57162E4-21E6-4CBA-854D-82A45BE477A0";
paths = (
{
closed = 1;
nodes = (
"758 -18 OFFCURVE",
"886 120 OFFCURVE",
"886 346 CURVE SMOOTH",
"886 442 LINE SMOOTH",
"886 664 OFFCURVE",
"772 794 OFFCURVE",
"545 794 CURVE SMOOTH",
"369 794 OFFCURVE",
"252 713 OFFCURVE",
"187 607 CURVE",
"195 602 LINE",
"198 838 LINE",
"198 1244 LINE",
"864 1244 LINE",
"864 1278 LINE",
"161 1278 LINE",
"161 578 LINE",
"191 569 LINE",
"270 694 OFFCURVE",
"385 759 OFFCURVE",
"542 759 CURVE SMOOTH",
"749 759 OFFCURVE",
"847 638 OFFCURVE",
"847 439 CURVE SMOOTH",
"847 347 LINE SMOOTH",
"847 138 OFFCURVE",
"730 18 OFFCURVE",
"507 18 CURVE SMOOTH",
"354 18 OFFCURVE",
"244 64 OFFCURVE",
"160 118 CURVE",
"167 73 LINE",
"230 32 OFFCURVE",
"340 -18 OFFCURVE",
"507 -18 CURVE SMOOTH"
);
}
);
width = 1003;
},
{
layerId = "D1B4C6CF-B771-4849-A887-0D6177A69D8B";
paths = (
{
closed = 1;
nodes = (
"921 -29 OFFCURVE",
"1056 145 OFFCURVE",
"1056 422 CURVE SMOOTH",
"1056 455 LINE SMOOTH",
"1056 702 OFFCURVE",
"956 844 OFFCURVE",
"731 844 CURVE SMOOTH",
"553 844 OFFCURVE",
"467 769 OFFCURVE",
"428 653 CURVE",
"417 653 LINE",
"420 814 LINE",
"420 982 LINE",
"1008 982 LINE",
"1008 1278 LINE",
"90 1278 LINE",
"90 517 LINE",
"396 470 LINE",
"431 526 OFFCURVE",
"486 572 OFFCURVE",
"575 572 CURVE SMOOTH",
"669 572 OFFCURVE",
"708 530 OFFCURVE",
"708 446 CURVE SMOOTH",
"708 429 LINE SMOOTH",
"708 335 OFFCURVE",
"660 277 OFFCURVE",
"477 277 CURVE SMOOTH",
"325 277 OFFCURVE",
"178 320 OFFCURVE",
"84 360 CURVE",
"114 42 LINE",
"192 9 OFFCURVE",
"337 -29 OFFCURVE",
"512 -29 CURVE SMOOTH"
);
}
);
width = 1114;
},
{
layerId = "F908E90C-D8C5-4664-8A98-C6332077FED2";
paths = (
{
closed = 1;
nodes = (
"826 -23 OFFCURVE",
"968 135 OFFCURVE",
"968 386 CURVE SMOOTH",
"968 449 LINE SMOOTH",
"968 683 OFFCURVE",
"857 825 OFFCURVE",
"626 825 CURVE SMOOTH",
"467 825 OFFCURVE",
"372 755 OFFCURVE",
"322 661 CURVE",
"314 661 LINE",
"317 829 LINE",
"317 1108 LINE",
"929 1108 LINE",
"929 1278 LINE",
"123 1278 LINE",
"123 548 LINE",
"299 518 LINE",
"355 604 OFFCURVE",
"436 660 OFFCURVE",
"556 660 CURVE SMOOTH",
"703 660 OFFCURVE",
"768 580 OFFCURVE",
"768 443 CURVE SMOOTH",
"768 388 LINE SMOOTH",
"768 240 OFFCURVE",
"688 154 OFFCURVE",
"482 154 CURVE SMOOTH",
"332 154 OFFCURVE",
"205 199 OFFCURVE",
"117 248 CURVE",
"137 57 LINE",
"206 21 OFFCURVE",
"332 -23 OFFCURVE",
"500 -23 CURVE SMOOTH"
);
}
);
width = 1053;
}
);
unicode = 0035;
},
{
glyphname = six;
lastChange = "2021-12-01 12:49:26 +0000";
layers = (
{
layerId = "97B58FCF-3A12-4579-9B1E-E0D00032C06B";
paths = (
{
closed = 1;
nodes = (
"439 -20 OFFCURVE",
"503 70 OFFCURVE",
"503 248 CURVE",
"503 517 LINE",
"503 691 OFFCURVE",
"439 792 OFFCURVE",
"315 792 CURVE SMOOTH",
"194 792 OFFCURVE",
"129 706 OFFCURVE",
"128 561 CURVE",
"113 561 LINE",
"135 539 LINE",
"148 688 OFFCURVE",
"205 758 OFFCURVE",
"310 758 CURVE SMOOTH",
"417 758 OFFCURVE",
"465 666 OFFCURVE",
"465 512 CURVE",
"465 245 LINE",
"465 93 OFFCURVE",
"414 14 OFFCURVE",
"303 14 CURVE SMOOTH",
"192 14 OFFCURVE",
"140 93 OFFCURVE",
"140 245 CURVE SMOOTH",
"140 1009 LINE SMOOTH",
"140 1167 OFFCURVE",
"189 1257 OFFCURVE",
"319 1257 CURVE SMOOTH",
"387 1257 OFFCURVE",
"438 1228 OFFCURVE",
"486 1187 CURVE",
"481 1229 LINE",
"446 1260 OFFCURVE",
"392 1293 OFFCURVE",
"319 1293 CURVE SMOOTH",
"166 1293 OFFCURVE",
"102 1190 OFFCURVE",
"102 1009 CURVE SMOOTH",
"102 248 LINE SMOOTH",
"102 70 OFFCURVE",
"167 -20 OFFCURVE",
"303 -20 CURVE SMOOTH"
);
}
);
width = 588;
},
{
layerId = "DF0EE8E4-AB0C-48FB-AB57-676AC09C8CC1";
paths = (
{
closed = 1;
nodes = (
"682 -20 OFFCURVE",
"806 121 OFFCURVE",
"806 397 CURVE SMOOTH",
"806 463 LINE SMOOTH",
"806 709 OFFCURVE",
"747 847 OFFCURVE",
"578 847 CURVE SMOOTH",
"434 847 OFFCURVE",
"386 747 OFFCURVE",
"373 646 CURVE",
"319 646 LINE",
"358 511 LINE",
"365 561 OFFCURVE",
"389 591 OFFCURVE",
"435 591 CURVE SMOOTH",
"489 591 OFFCURVE",
"505 550 OFFCURVE",
"505 458 CURVE SMOOTH",
"505 390 LINE",
"505 289 OFFCURVE",
"489 247 OFFCURVE",
"434 247 CURVE SMOOTH",
"378 247 OFFCURVE",
"362 289 OFFCURVE",
"362 390 CURVE",
"362 792 LINE SMOOTH",
"362 956 OFFCURVE",
"418 1017 OFFCURVE",
"551 1017 CURVE SMOOTH",
"636 1017 OFFCURVE",
"699 993 OFFCURVE",
"747 971 CURVE",
"725 1245 LINE",
"675 1269 OFFCURVE",
"588 1297 OFFCURVE",
"471 1297 CURVE SMOOTH",
"192 1297 OFFCURVE",
"52 1129 OFFCURVE",
"52 817 CURVE",
"52 407 LINE",
"52 121 OFFCURVE",
"176 -20 OFFCURVE",
"428 -20 CURVE SMOOTH"
);
}
);
width = 848;
},
{
layerId = "825A4CEE-7199-41F6-ACE2-F406C7380F94";
paths = (
{
closed = 1;
nodes = (
"1108 -16 OFFCURVE",
"1305 139 OFFCURVE",
"1305 403 CURVE SMOOTH",
"1305 417 LINE SMOOTH",
"1305 663 OFFCURVE",
"1132 804 OFFCURVE",
"800 804 CURVE SMOOTH",
"454 804 OFFCURVE",
"252 610 OFFCURVE",
"190 409 CURVE",
"181 409 LINE",
"201 377 LINE",
"277 594 OFFCURVE",
"475 769 OFFCURVE",
"798 769 CURVE SMOOTH",
"1108 769 OFFCURVE",
"1264 640 OFFCURVE",
"1264 417 CURVE SMOOTH",
"1264 407 LINE SMOOTH",
"1264 164 OFFCURVE",
"1084 21 OFFCURVE",
"761 21 CURVE SMOOTH",
"418 21 OFFCURVE",
"183 229 OFFCURVE",
"183 605 CURVE SMOOTH",
"183 627 LINE SMOOTH",
"183 1024 OFFCURVE",
"373 1260 OFFCURVE",
"754 1260 CURVE SMOOTH",
"979 1260 OFFCURVE",
"1099 1211 OFFCURVE",
"1221 1144 CURVE",
"1216 1187 LINE",
"1119 1240 OFFCURVE",
"990 1297 OFFCURVE",
"754 1297 CURVE SMOOTH",
"349 1297 OFFCURVE",
"142 1046 OFFCURVE",
"142 627 CURVE",
"142 605 LINE",
"142 212 OFFCURVE",
"389 -16 OFFCURVE",
"761 -16 CURVE SMOOTH"
);
}
);
width = 1435;
},
{
layerId = "3B7D2D6B-4C7F-469B-8FA8-9D341C52EB57";
paths = (
{
closed = 1;
nodes = (
"1222 -45 OFFCURVE",
"1446 114 OFFCURVE",
"1446 404 CURVE",
"1446 423 LINE SMOOTH",
"1446 677 OFFCURVE",
"1270 822 OFFCURVE",
"956 822 CURVE SMOOTH",
"693 822 OFFCURVE",
"549 733 OFFCURVE",
"500 590 CURVE",
"440 590 LINE",
"493 441 LINE",
"558 503 OFFCURVE",
"677 546 OFFCURVE",
"813 546 CURVE SMOOTH",
"1011 546 OFFCURVE",
"1044 479 OFFCURVE",
"1044 416 CURVE SMOOTH",
"1044 409 LINE",
"1044 331 OFFCURVE",
"973 278 OFFCURVE",
"813 278 CURVE SMOOTH",
"592 278 OFFCURVE",
"490 379 OFFCURVE",
"490 599 CURVE",
"490 613 LINE",
"490 880 OFFCURVE",
"627 992 OFFCURVE",
"936 992 CURVE SMOOTH",
"1110 992 OFFCURVE",
"1256 956 OFFCURVE",
"1386 906 CURVE",
"1341 1229 LINE",
"1214 1277 OFFCURVE",
"1046 1311 OFFCURVE",
"845 1311 CURVE SMOOTH",
"356 1311 OFFCURVE",
"84 1054 OFFCURVE",
"84 612 CURVE",
"84 596 LINE",
"84 187 OFFCURVE",
"346 -45 OFFCURVE",
"802 -45 CURVE SMOOTH"
);
}
);
width = 1526;
},
{
layerId = "D1180855-BCFE-435D-BBAD-373D6E72A0DF";
paths = (
{
closed = 1;
nodes = (
"561 -20 OFFCURVE",
"655 93 OFFCURVE",
"655 313 CURVE SMOOTH",
"655 500 LINE SMOOTH",
"655 704 OFFCURVE",
"593 820 OFFCURVE",
"445 820 CURVE SMOOTH",
"332 820 OFFCURVE",
"280 759 OFFCURVE",
"260 674 CURVE",
"222 674 LINE",
"249 537 LINE",
"263 611 OFFCURVE",
"304 670 OFFCURVE",
"372 670 CURVE SMOOTH",
"452 670 OFFCURVE",
"481 609 OFFCURVE",
"481 491 CURVE SMOOTH",
"481 309 LINE SMOOTH",
"481 189 OFFCURVE",
"449 132 OFFCURVE",
"367 132 CURVE SMOOTH",
"284 132 OFFCURVE",
"251 189 OFFCURVE",
"251 309 CURVE SMOOTH",
"251 901 LINE SMOOTH",
"251 1058 OFFCURVE",
"304 1132 OFFCURVE",
"435 1132 CURVE SMOOTH",
"512 1132 OFFCURVE",
"569 1106 OFFCURVE",
"617 1074 CURVE",
"603 1237 LINE",
"561 1265 OFFCURVE",
"489 1295 OFFCURVE",
"393 1295 CURVE SMOOTH",
"180 1295 OFFCURVE",
"77 1160 OFFCURVE",
"77 913 CURVE SMOOTH",
"77 318 LINE SMOOTH",
"77 93 OFFCURVE",
"172 -20 OFFCURVE",
"366 -20 CURVE SMOOTH"
);
}
);
width = 718;
},
{
layerId = "13EBB120-61C6-43BE-BE80-275AFBEF3308";
paths = (
{
closed = 1;
nodes = (
"1165 -31 OFFCURVE",
"1376 127 OFFCURVE",
"1376 404 CURVE SMOOTH",
"1376 420 LINE SMOOTH",
"1376 676 OFFCURVE",
"1201 823 OFFCURVE",
"878 823 CURVE SMOOTH",
"571 823 OFFCURVE",
"410 696 OFFCURVE",
"350 536 CURVE",
"317 536 LINE",
"347 400 LINE",
"418 542 OFFCURVE",
"576 653 OFFCURVE",
"806 653 CURVE SMOOTH",
"1057 653 OFFCURVE",
"1153 557 OFFCURVE",
"1153 416 CURVE SMOOTH",
"1153 407 LINE SMOOTH",
"1153 249 OFFCURVE",
"1028 152 OFFCURVE",
"787 152 CURVE SMOOTH",
"505 152 OFFCURVE",
"337 305 OFFCURVE",
"337 602 CURVE SMOOTH",
"337 620 LINE SMOOTH",
"337 949 OFFCURVE",
"506 1122 OFFCURVE",
"825 1122 CURVE SMOOTH",
"1048 1122 OFFCURVE",
"1178 1076 OFFCURVE",
"1304 1012 CURVE",
"1279 1209 LINE",
"1167 1259 OFFCURVE",
"1018 1304 OFFCURVE",
"800 1304 CURVE SMOOTH",
"353 1304 OFFCURVE",
"113 1050 OFFCURVE",
"113 620 CURVE",
"113 601 LINE",
"113 200 OFFCURVE",
"368 -31 OFFCURVE",
"782 -31 CURVE SMOOTH"
);
}
);
width = 1481;
},
{
layerId = "C57162E4-21E6-4CBA-854D-82A45BE477A0";
paths = (
{
closed = 1;
nodes = (
"787 -18 OFFCURVE",
"910 131 OFFCURVE",
"910 349 CURVE SMOOTH",
"910 441 LINE SMOOTH",
"910 665 OFFCURVE",
"791 799 OFFCURVE",
"561 799 CURVE SMOOTH",
"326 799 OFFCURVE",
"192 655 OFFCURVE",
"155 477 CURVE",
"143 477 LINE",
"164 450 LINE",
"215 637 OFFCURVE",
"342 764 OFFCURVE",
"557 764 CURVE SMOOTH",
"768 764 OFFCURVE",
"871 640 OFFCURVE",
"871 439 CURVE SMOOTH",
"871 349 LINE SMOOTH",
"871 155 OFFCURVE",
"762 18 OFFCURVE",
"536 18 CURVE SMOOTH",
"306 18 OFFCURVE",
"167 155 OFFCURVE",
"167 421 CURVE SMOOTH",
"167 838 LINE SMOOTH",
"167 1106 OFFCURVE",
"286 1259 OFFCURVE",
"543 1259 CURVE SMOOTH",
"689 1259 OFFCURVE",
"775 1220 OFFCURVE",
"860 1166 CURVE",
"855 1208 LINE",
"789 1250 OFFCURVE",
"697 1295 OFFCURVE",
"543 1295 CURVE SMOOTH",
"264 1295 OFFCURVE",
"128 1128 OFFCURVE",
"128 838 CURVE SMOOTH",
"128 421 LINE SMOOTH",
"128 135 OFFCURVE",
"278 -18 OFFCURVE",
"536 -18 CURVE SMOOTH"
);
}
);
width = 1024;
},
{
layerId = "D1B4C6CF-B771-4849-A887-0D6177A69D8B";
paths = (
{
closed = 1;
nodes = (
"951 -27 OFFCURVE",
"1126 126 OFFCURVE",
"1126 413 CURVE SMOOTH",
"1126 436 LINE SMOOTH",
"1126 695 OFFCURVE",
"1009 839 OFFCURVE",
"767 839 CURVE SMOOTH",
"564 839 OFFCURVE",
"468 744 OFFCURVE",
"436 622 CURVE",
"379 622 LINE",
"421 465 LINE",
"455 530 OFFCURVE",
"530 573 OFFCURVE",
"622 573 CURVE SMOOTH",
"739 573 OFFCURVE",
"776 519 OFFCURVE",
"776 428 CURVE SMOOTH",
"776 416 LINE SMOOTH",
"776 320 OFFCURVE",
"730 270 OFFCURVE",
"619 270 CURVE SMOOTH",
"486 270 OFFCURVE",
"426 343 OFFCURVE",
"426 501 CURVE SMOOTH",
"426 700 LINE SMOOTH",
"426 912 OFFCURVE",
"522 1007 OFFCURVE",
"732 1007 CURVE SMOOTH",
"868 1007 OFFCURVE",
"976 978 OFFCURVE",
"1067 941 CURVE",
"1033 1238 LINE",
"945 1275 OFFCURVE",
"816 1306 OFFCURVE",
"656 1306 CURVE SMOOTH",
"266 1306 OFFCURVE",
"68 1091 OFFCURVE",
"68 709 CURVE",
"68 506 LINE",
"68 162 OFFCURVE",
"260 -27 OFFCURVE",
"611 -27 CURVE SMOOTH"
);
}
);
width = 1187;
},
{
layerId = "F908E90C-D8C5-4664-8A98-C6332077FED2";
paths = (
{
closed = 1;
nodes = (
"859 -26 OFFCURVE",
"1011 131 OFFCURVE",
"1011 373 CURVE SMOOTH",
"1011 431 LINE SMOOTH",
"1011 679 OFFCURVE",
"888 822 OFFCURVE",
"646 822 CURVE SMOOTH",
"451 822 OFFCURVE",
"345 729 OFFCURVE",
"304 605 CURVE",
"271 605 LINE",
"285 433 LINE",
"327 575 OFFCURVE",
"439 662 OFFCURVE",
"587 662 CURVE SMOOTH",
"752 662 OFFCURVE",
"813 571 OFFCURVE",
"813 428 CURVE SMOOTH",
"813 376 LINE SMOOTH",
"813 238 OFFCURVE",
"735 141 OFFCURVE",
"570 141 CURVE SMOOTH",
"394 141 OFFCURVE",
"294 251 OFFCURVE",
"294 471 CURVE",
"294 762 LINE SMOOTH",
"294 1005 OFFCURVE",
"404 1128 OFFCURVE",
"626 1128 CURVE SMOOTH",
"776 1128 OFFCURVE",
"870 1092 OFFCURVE",
"957 1044 CURVE",
"937 1224 LINE",
"860 1263 OFFCURVE",
"750 1301 OFFCURVE",
"593 1301 CURVE SMOOTH",
"266 1301 OFFCURVE",
"95 1106 OFFCURVE",
"95 768 CURVE SMOOTH",
"95 494 LINE SMOOTH",
"95 150 OFFCURVE",
"267 -26 OFFCURVE",
"566 -26 CURVE SMOOTH"
);
}
);
width = 1096;
}
);
unicode = 0036;
},
{
glyphname = seven;
lastChange = "2021-12-01 12:49:26 +0000";
layers = (
{
layerId = "97B58FCF-3A12-4579-9B1E-E0D00032C06B";
paths = (
{
closed = 1;
nodes = (
"163 0 LINE",
"430 1246 LINE",
"430 1278 LINE",
"38 1278 LINE",
"38 1244 LINE",
"392 1244 LINE",
"123 0 LINE"
);
}
);
width = 466;
},
{
layerId = "DF0EE8E4-AB0C-48FB-AB57-676AC09C8CC1";
paths = (
{
closed = 1;
nodes = (
"411 0 LINE",
"667 981 LINE",
"667 1278 LINE",
"28 1278 LINE",
"28 994 LINE",
"353 994 LINE",
"85 0 LINE"
);
}
);
width = 705;
},
{
layerId = "825A4CEE-7199-41F6-ACE2-F406C7380F94";
paths = (
{
closed = 1;
nodes = (
"421 0 LINE",
"1162 1241 LINE",
"1162 1278 LINE",
"94 1278 LINE",
"94 1242 LINE",
"1121 1242 LINE",
"375 0 LINE"
);
}
);
width = 1248;
},
{
layerId = "3B7D2D6B-4C7F-469B-8FA8-9D341C52EB57";
paths = (
{
closed = 1;
nodes = (
"668 0 LINE",
"1246 953 LINE",
"1246 1278 LINE",
"60 1278 LINE",
"60 956 LINE",
"808 956 LINE",
"216 0 LINE"
);
}
);
width = 1314;
},
{
layerId = "D1180855-BCFE-435D-BBAD-373D6E72A0DF";
paths = (
{
closed = 1;
nodes = (
"287 0 LINE",
"549 1112 LINE",
"549 1278 LINE",
"33 1278 LINE",
"33 1117 LINE",
"369 1117 LINE",
"104 0 LINE"
);
}
);
width = 586;
},
{
layerId = "13EBB120-61C6-43BE-BE80-275AFBEF3308";
paths = (
{
closed = 1;
nodes = (
"548 0 LINE",
"1204 1095 LINE",
"1204 1278 LINE",
"77 1278 LINE",
"77 1097 LINE",
"957 1097 LINE",
"293 0 LINE"
);
}
);
width = 1281;
},
{
layerId = "C57162E4-21E6-4CBA-854D-82A45BE477A0";
paths = (
{
closed = 1;
nodes = (
"298 0 LINE",
"802 1245 LINE",
"802 1278 LINE",
"72 1278 LINE",
"72 1244 LINE",
"762 1244 LINE",
"255 0 LINE"
);
}
);
width = 869;
},
{
layerId = "D1B4C6CF-B771-4849-A887-0D6177A69D8B";
paths = (
{
closed = 1;
nodes = (
"540 0 LINE",
"954 968 LINE",
"954 1278 LINE",
"44 1278 LINE",
"44 976 LINE",
"576 976 LINE",
"151 0 LINE"
);
}
);
width = 1007;
},
{
layerId = "F908E90C-D8C5-4664-8A98-C6332077FED2";
paths = (
{
closed = 1;
nodes = (
"418 0 LINE",
"877 1104 LINE",
"877 1278 LINE",
"55 1278 LINE",
"55 1108 LINE",
"667 1108 LINE",
"199 0 LINE"
);
}
);
width = 934;
}
);
unicode = 0037;
},
{
glyphname = eight;
lastChange = "2021-12-01 12:49:26 +0000";
layers = (
{
layerId = "97B58FCF-3A12-4579-9B1E-E0D00032C06B";
paths = (
{
closed = 1;
nodes = (
"439 -20 OFFCURVE",
"507 75 OFFCURVE",
"507 259 CURVE SMOOTH",
"507 407 LINE SMOOTH",
"507 561 OFFCURVE",
"459 653 OFFCURVE",
"326 666 CURVE",
"326 663 LINE",
"452 675 OFFCURVE",
"496 762 OFFCURVE",
"496 911 CURVE SMOOTH",
"496 1024 LINE SMOOTH",
"496 1201 OFFCURVE",
"431 1293 OFFCURVE",
"294 1293 CURVE SMOOTH",
"157 1293 OFFCURVE",
"93 1201 OFFCURVE",
"93 1024 CURVE SMOOTH",
"93 911 LINE SMOOTH",
"93 762 OFFCURVE",
"137 675 OFFCURVE",
"263 663 CURVE",
"263 666 LINE",
"130 653 OFFCURVE",
"82 561 OFFCURVE",
"82 407 CURVE SMOOTH",
"82 259 LINE SMOOTH",
"82 75 OFFCURVE",
"150 -20 OFFCURVE",
"294 -20 CURVE SMOOTH"
);
},
{
closed = 1;
nodes = (
"175 14 OFFCURVE",
"119 97 OFFCURVE",
"119 256 CURVE SMOOTH",
"119 411 LINE SMOOTH",
"119 565 OFFCURVE",
"175 646 OFFCURVE",
"294 646 CURVE SMOOTH",
"414 646 OFFCURVE",
"469 565 OFFCURVE",
"469 411 CURVE SMOOTH",
"469 256 LINE SMOOTH",
"469 97 OFFCURVE",
"414 14 OFFCURVE",
"294 14 CURVE SMOOTH"
);
},
{
closed = 1;
nodes = (
"182 683 OFFCURVE",
"131 760 OFFCURVE",
"131 907 CURVE SMOOTH",
"131 1028 LINE SMOOTH",
"131 1180 OFFCURVE",
"182 1259 OFFCURVE",
"294 1259 CURVE SMOOTH",
"407 1259 OFFCURVE",
"458 1180 OFFCURVE",
"458 1028 CURVE SMOOTH",
"458 907 LINE SMOOTH",
"458 760 OFFCURVE",
"407 683 OFFCURVE",
"294 683 CURVE SMOOTH"
);
}
);
width = 589;
},
{
layerId = "DF0EE8E4-AB0C-48FB-AB57-676AC09C8CC1";
paths = (
{
closed = 1;
nodes = (
"682 -24 OFFCURVE",
"796 110 OFFCURVE",
"796 334 CURVE SMOOTH",
"796 368 LINE SMOOTH",
"796 537 OFFCURVE",
"744 624 OFFCURVE",
"628 667 CURVE",
"628 677 LINE",
"735 717 OFFCURVE",
"787 791 OFFCURVE",
"787 934 CURVE SMOOTH",
"787 966 LINE SMOOTH",
"787 1176 OFFCURVE",
"680 1302 OFFCURVE",
"417 1302 CURVE SMOOTH",
"157 1302 OFFCURVE",
"47 1176 OFFCURVE",
"47 966 CURVE SMOOTH",
"47 924 LINE SMOOTH",
"47 787 OFFCURVE",
"99 715 OFFCURVE",
"206 677 CURVE",
"206 667 LINE",
"90 626 OFFCURVE",
"38 537 OFFCURVE",
"38 368 CURVE SMOOTH",
"38 334 LINE SMOOTH",
"38 110 OFFCURVE",
"152 -24 OFFCURVE",
"417 -24 CURVE SMOOTH"
);
},
{
closed = 1;
nodes = (
"358 226 OFFCURVE",
"340 266 OFFCURVE",
"340 344 CURVE SMOOTH",
"340 413 LINE SMOOTH",
"340 486 OFFCURVE",
"361 519 OFFCURVE",
"417 532 CURVE",
"473 523 OFFCURVE",
"494 486 OFFCURVE",
"494 413 CURVE SMOOTH",
"494 344 LINE SMOOTH",
"494 266 OFFCURVE",
"476 226 OFFCURVE",
"417 226 CURVE SMOOTH"
);
},
{
closed = 1;
nodes = (
"363 773 OFFCURVE",
"341 810 OFFCURVE",
"341 884 CURVE SMOOTH",
"341 942 LINE SMOOTH",
"341 1019 OFFCURVE",
"360 1061 OFFCURVE",
"417 1061 CURVE SMOOTH",
"474 1061 OFFCURVE",
"492 1019 OFFCURVE",
"492 942 CURVE SMOOTH",
"492 884 LINE SMOOTH",
"492 812 OFFCURVE",
"467 771 OFFCURVE",
"417 760 CURVE"
);
}
);
width = 834;
},
{
layerId = "825A4CEE-7199-41F6-ACE2-F406C7380F94";
paths = (
{
closed = 1;
nodes = (
"1166 -25 OFFCURVE",
"1377 99 OFFCURVE",
"1377 328 CURVE SMOOTH",
"1377 346 LINE SMOOTH",
"1377 559 OFFCURVE",
"1160 661 OFFCURVE",
"918 672 CURVE",
"918 676 LINE",
"1137 674 OFFCURVE",
"1353 770 OFFCURVE",
"1353 962 CURVE SMOOTH",
"1353 982 LINE SMOOTH",
"1353 1192 OFFCURVE",
"1145 1302 OFFCURVE",
"764 1302 CURVE SMOOTH",
"382 1302 OFFCURVE",
"174 1192 OFFCURVE",
"174 982 CURVE SMOOTH",
"174 962 LINE SMOOTH",
"174 769 OFFCURVE",
"389 674 OFFCURVE",
"609 676 CURVE",
"609 672 LINE",
"367 661 OFFCURVE",
"150 559 OFFCURVE",
"150 346 CURVE SMOOTH",
"150 328 LINE SMOOTH",
"150 99 OFFCURVE",
"361 -25 OFFCURVE",
"764 -25 CURVE SMOOTH"
);
},
{
closed = 1;
nodes = (
"389 12 OFFCURVE",
"191 122 OFFCURVE",
"191 326 CURVE SMOOTH",
"191 346 LINE SMOOTH",
"191 548 OFFCURVE",
"393 656 OFFCURVE",
"764 656 CURVE SMOOTH",
"1134 656 OFFCURVE",
"1336 548 OFFCURVE",
"1336 346 CURVE SMOOTH",
"1336 326 LINE SMOOTH",
"1336 122 OFFCURVE",
"1138 12 OFFCURVE",
"764 12 CURVE SMOOTH"
);
},
{
closed = 1;
nodes = (
"406 690 OFFCURVE",
"214 786 OFFCURVE",
"214 964 CURVE SMOOTH",
"214 982 LINE SMOOTH",
"214 1169 OFFCURVE",
"404 1265 OFFCURVE",
"764 1265 CURVE SMOOTH",
"1123 1265 OFFCURVE",
"1313 1169 OFFCURVE",
"1313 982 CURVE SMOOTH",
"1313 964 LINE SMOOTH",
"1313 786 OFFCURVE",
"1120 690 OFFCURVE",
"764 690 CURVE SMOOTH"
);
}
);
width = 1527;
},
{
layerId = "3B7D2D6B-4C7F-469B-8FA8-9D341C52EB57";
paths = (
{
closed = 1;
nodes = (
"1347 -51 OFFCURVE",
"1465 136 OFFCURVE",
"1465 333 CURVE SMOOTH",
"1465 347 LINE SMOOTH",
"1465 526 OFFCURVE",
"1346 640 OFFCURVE",
"1106 670 CURVE",
"1106 684 LINE",
"1324 700 OFFCURVE",
"1447 795 OFFCURVE",
"1447 956 CURVE SMOOTH",
"1447 970 LINE SMOOTH",
"1447 1182 OFFCURVE",
"1243 1317 OFFCURVE",
"765 1317 CURVE SMOOTH",
"294 1317 OFFCURVE",
"90 1182 OFFCURVE",
"90 970 CURVE SMOOTH",
"90 956 LINE SMOOTH",
"90 794 OFFCURVE",
"213 700 OFFCURVE",
"431 684 CURVE",
"431 670 LINE",
"195 641 OFFCURVE",
"72 528 OFFCURVE",
"72 347 CURVE SMOOTH",
"72 333 LINE SMOOTH",
"72 113 OFFCURVE",
"223 -51 OFFCURVE",
"765 -51 CURVE SMOOTH"
);
},
{
closed = 1;
nodes = (
"550 259 OFFCURVE",
"482 304 OFFCURVE",
"482 375 CURVE SMOOTH",
"482 380 LINE SMOOTH",
"482 440 OFFCURVE",
"538 485 OFFCURVE",
"748 512 CURVE",
"980 484 OFFCURVE",
"1055 447 OFFCURVE",
"1055 380 CURVE SMOOTH",
"1055 375 LINE SMOOTH",
"1055 309 OFFCURVE",
"993 259 OFFCURVE",
"775 259 CURVE SMOOTH"
);
},
{
closed = 1;
nodes = (
"549 807 OFFCURVE",
"491 859 OFFCURVE",
"491 915 CURVE SMOOTH",
"491 921 LINE SMOOTH",
"491 983 OFFCURVE",
"566 1022 OFFCURVE",
"765 1022 CURVE SMOOTH",
"973 1022 OFFCURVE",
"1047 982 OFFCURVE",
"1047 917 CURVE SMOOTH",
"1047 912 LINE SMOOTH",
"1047 854 OFFCURVE",
"968 807 OFFCURVE",
"786 788 CURVE"
);
}
);
width = 1537;
},
{
layerId = "D1180855-BCFE-435D-BBAD-373D6E72A0DF";
paths = (
{
closed = 1;
nodes = (
"568 -22 OFFCURVE",
"660 93 OFFCURVE",
"660 297 CURVE SMOOTH",
"660 388 LINE SMOOTH",
"660 533 OFFCURVE",
"610 631 OFFCURVE",
"485 665 CURVE",
"485 671 LINE",
"602 703 OFFCURVE",
"650 793 OFFCURVE",
"650 923 CURVE SMOOTH",
"650 995 LINE SMOOTH",
"650 1189 OFFCURVE",
"563 1298 OFFCURVE",
"360 1298 CURVE SMOOTH",
"158 1298 OFFCURVE",
"70 1189 OFFCURVE",
"70 995 CURVE SMOOTH",
"70 923 LINE SMOOTH",
"70 791 OFFCURVE",
"118 702 OFFCURVE",
"235 671 CURVE",
"235 665 LINE",
"110 631 OFFCURVE",
"60 533 OFFCURVE",
"60 388 CURVE SMOOTH",
"60 297 LINE SMOOTH",
"60 93 OFFCURVE",
"152 -22 OFFCURVE",
"360 -22 CURVE SMOOTH"
);
},
{
closed = 1;
nodes = (
"272 130 OFFCURVE",
"236 189 OFFCURVE",
"236 300 CURVE SMOOTH",
"236 397 LINE SMOOTH",
"236 504 OFFCURVE",
"274 553 OFFCURVE",
"360 580 CURVE",
"444 554 OFFCURVE",
"484 505 OFFCURVE",
"484 397 CURVE SMOOTH",
"484 300 LINE SMOOTH",
"484 189 OFFCURVE",
"448 130 OFFCURVE",
"360 130 CURVE SMOOTH"
);
},
{
closed = 1;
nodes = (
"281 759 OFFCURVE",
"246 806 OFFCURVE",
"246 911 CURVE SMOOTH",
"246 985 LINE SMOOTH",
"246 1092 OFFCURVE",
"279 1148 OFFCURVE",
"360 1148 CURVE SMOOTH",
"442 1148 OFFCURVE",
"474 1092 OFFCURVE",
"474 985 CURVE SMOOTH",
"474 911 LINE SMOOTH",
"474 807 OFFCURVE",
"438 756 OFFCURVE",
"360 731 CURVE"
);
}
);
width = 720;
},
{
layerId = "13EBB120-61C6-43BE-BE80-275AFBEF3308";
paths = (
{
closed = 1;
nodes = (
"1257 -38 OFFCURVE",
"1421 118 OFFCURVE",
"1421 331 CURVE SMOOTH",
"1421 347 LINE SMOOTH",
"1421 531 OFFCURVE",
"1298 639 OFFCURVE",
"1122 671 CURVE",
"1122 681 LINE",
"1279 701 OFFCURVE",
"1400 794 OFFCURVE",
"1400 959 CURVE SMOOTH",
"1400 976 LINE SMOOTH",
"1400 1187 OFFCURVE",
"1194 1310 OFFCURVE",
"765 1310 CURVE SMOOTH",
"338 1310 OFFCURVE",
"132 1187 OFFCURVE",
"132 976 CURVE SMOOTH",
"132 959 LINE SMOOTH",
"132 793 OFFCURVE",
"253 701 OFFCURVE",
"410 681 CURVE",
"410 671 LINE",
"235 639 OFFCURVE",
"111 532 OFFCURVE",
"111 347 CURVE SMOOTH",
"111 331 LINE SMOOTH",
"111 106 OFFCURVE",
"292 -38 OFFCURVE",
"765 -38 CURVE SMOOTH"
);
},
{
closed = 1;
nodes = (
"473 136 OFFCURVE",
"341 213 OFFCURVE",
"341 351 CURVE SMOOTH",
"341 363 LINE SMOOTH",
"341 494 OFFCURVE",
"469 571 OFFCURVE",
"756 584 CURVE",
"1054 570 OFFCURVE",
"1191 498 OFFCURVE",
"1191 363 CURVE SMOOTH",
"1191 351 LINE SMOOTH",
"1191 216 OFFCURVE",
"1063 136 OFFCURVE",
"770 136 CURVE SMOOTH"
);
},
{
closed = 1;
nodes = (
"481 749 OFFCURVE",
"357 823 OFFCURVE",
"357 940 CURVE SMOOTH",
"357 952 LINE SMOOTH",
"357 1076 OFFCURVE",
"488 1144 OFFCURVE",
"765 1144 CURVE SMOOTH",
"1045 1144 OFFCURVE",
"1175 1076 OFFCURVE",
"1175 950 CURVE SMOOTH",
"1175 938 LINE SMOOTH",
"1175 820 OFFCURVE",
"1041 749 OFFCURVE",
"775 739 CURVE"
);
}
);
width = 1532;
},
{
layerId = "C57162E4-21E6-4CBA-854D-82A45BE477A0";
paths = (
{
closed = 1;
nodes = (
"809 -23 OFFCURVE",
"948 96 OFFCURVE",
"948 317 CURVE SMOOTH",
"948 349 LINE SMOOTH",
"948 543 OFFCURVE",
"823 651 OFFCURVE",
"621 665 CURVE",
"621 658 LINE",
"808 665 OFFCURVE",
"931 769 OFFCURVE",
"931 950 CURVE SMOOTH",
"931 981 LINE SMOOTH",
"931 1188 OFFCURVE",
"796 1298 OFFCURVE",
"535 1298 CURVE SMOOTH",
"274 1298 OFFCURVE",
"140 1188 OFFCURVE",
"140 981 CURVE SMOOTH",
"140 950 LINE SMOOTH",
"140 769 OFFCURVE",
"262 665 OFFCURVE",
"449 658 CURVE",
"449 665 LINE",
"248 651 OFFCURVE",
"122 543 OFFCURVE",
"122 349 CURVE SMOOTH",
"122 317 LINE SMOOTH",
"122 96 OFFCURVE",
"262 -23 OFFCURVE",
"535 -23 CURVE SMOOTH"
);
},
{
closed = 1;
nodes = (
"288 13 OFFCURVE",
"161 119 OFFCURVE",
"161 314 CURVE SMOOTH",
"161 351 LINE SMOOTH",
"161 539 OFFCURVE",
"280 643 OFFCURVE",
"535 643 CURVE SMOOTH",
"790 643 OFFCURVE",
"909 539 OFFCURVE",
"909 351 CURVE SMOOTH",
"909 314 LINE SMOOTH",
"909 119 OFFCURVE",
"782 13 OFFCURVE",
"535 13 CURVE SMOOTH"
);
},
{
closed = 1;
nodes = (
"290 678 OFFCURVE",
"179 776 OFFCURVE",
"179 949 CURVE SMOOTH",
"179 983 LINE SMOOTH",
"179 1166 OFFCURVE",
"297 1262 OFFCURVE",
"535 1262 CURVE SMOOTH",
"773 1262 OFFCURVE",
"892 1166 OFFCURVE",
"892 983 CURVE SMOOTH",
"892 949 LINE SMOOTH",
"892 776 OFFCURVE",
"780 678 OFFCURVE",
"535 678 CURVE SMOOTH"
);
}
);
width = 1070;
},
{
layerId = "D1B4C6CF-B771-4849-A887-0D6177A69D8B";
paths = (
{
closed = 1;
nodes = (
"1015 -36 OFFCURVE",
"1131 124 OFFCURVE",
"1131 335 CURVE SMOOTH",
"1131 359 LINE SMOOTH",
"1131 535 OFFCURVE",
"1045 627 OFFCURVE",
"867 663 CURVE",
"867 674 LINE",
"1030 703 OFFCURVE",
"1117 784 OFFCURVE",
"1117 945 CURVE SMOOTH",
"1117 968 LINE SMOOTH",
"1117 1178 OFFCURVE",
"962 1309 OFFCURVE",
"591 1309 CURVE SMOOTH",
"226 1309 OFFCURVE",
"69 1178 OFFCURVE",
"69 968 CURVE SMOOTH",
"69 945 LINE SMOOTH",
"69 789 OFFCURVE",
"155 702 OFFCURVE",
"315 674 CURVE",
"315 663 LINE",
"142 629 OFFCURVE",
"55 531 OFFCURVE",
"55 359 CURVE SMOOTH",
"55 335 LINE SMOOTH",
"55 113 OFFCURVE",
"188 -36 OFFCURVE",
"591 -36 CURVE SMOOTH"
);
},
{
closed = 1;
nodes = (
"455 245 OFFCURVE",
"411 292 OFFCURVE",
"411 371 CURVE SMOOTH",
"411 376 LINE SMOOTH",
"411 449 OFFCURVE",
"453 498 OFFCURVE",
"583 523 CURVE",
"725 498 OFFCURVE",
"775 458 OFFCURVE",
"775 376 CURVE SMOOTH",
"775 371 LINE SMOOTH",
"775 294 OFFCURVE",
"734 245 OFFCURVE",
"596 245 CURVE SMOOTH"
);
},
{
closed = 1;
nodes = (
"460 794 OFFCURVE",
"416 843 OFFCURVE",
"416 917 CURVE SMOOTH",
"416 923 LINE SMOOTH",
"416 996 OFFCURVE",
"465 1041 OFFCURVE",
"591 1041 CURVE SMOOTH",
"722 1041 OFFCURVE",
"770 996 OFFCURVE",
"770 921 CURVE SMOOTH",
"770 915 LINE SMOOTH",
"770 841 OFFCURVE",
"718 791 OFFCURVE",
"602 774 CURVE"
);
}
);
width = 1186;
},
{
layerId = "F908E90C-D8C5-4664-8A98-C6332077FED2";
paths = (
{
closed = 1;
nodes = (
"909 -27 OFFCURVE",
"1037 122 OFFCURVE",
"1037 328 CURVE SMOOTH",
"1037 354 LINE SMOOTH",
"1037 529 OFFCURVE",
"947 628 OFFCURVE",
"795 666 CURVE",
"795 676 LINE",
"944 703 OFFCURVE",
"1024 800 OFFCURVE",
"1024 949 CURVE SMOOTH",
"1024 974 LINE SMOOTH",
"1024 1177 OFFCURVE",
"881 1304 OFFCURVE",
"560 1304 CURVE SMOOTH",
"242 1304 OFFCURVE",
"99 1177 OFFCURVE",
"99 974 CURVE SMOOTH",
"99 949 LINE SMOOTH",
"99 800 OFFCURVE",
"179 703 OFFCURVE",
"328 676 CURVE",
"328 666 LINE",
"177 629 OFFCURVE",
"86 530 OFFCURVE",
"86 354 CURVE SMOOTH",
"86 328 LINE SMOOTH",
"86 117 OFFCURVE",
"222 -27 OFFCURVE",
"560 -27 CURVE SMOOTH"
);
},
{
closed = 1;
nodes = (
"372 140 OFFCURVE",
"289 226 OFFCURVE",
"289 348 CURVE SMOOTH",
"289 371 LINE SMOOTH",
"289 489 OFFCURVE",
"381 568 OFFCURVE",
"556 589 CURVE",
"738 569 OFFCURVE",
"834 491 OFFCURVE",
"834 371 CURVE SMOOTH",
"834 348 LINE SMOOTH",
"834 227 OFFCURVE",
"753 140 OFFCURVE",
"563 140 CURVE SMOOTH"
);
},
{
closed = 1;
nodes = (
"409 739 OFFCURVE",
"298 806 OFFCURVE",
"298 937 CURVE SMOOTH",
"298 952 LINE SMOOTH",
"298 1065 OFFCURVE",
"378 1140 OFFCURVE",
"560 1140 CURVE SMOOTH",
"745 1140 OFFCURVE",
"825 1065 OFFCURVE",
"825 952 CURVE SMOOTH",
"825 937 LINE SMOOTH",
"825 806 OFFCURVE",
"712 739 OFFCURVE",
"566 730 CURVE"
);
}
);
width = 1122;
}
);
unicode = 0038;
},
{
glyphname = nine;
lastChange = "2021-12-01 12:49:26 +0000";
layers = (
{
layerId = "97B58FCF-3A12-4579-9B1E-E0D00032C06B";
paths = (
{
closed = 1;
nodes = (
"150 1293 OFFCURVE",
"85 1203 OFFCURVE",
"85 1024 CURVE",
"85 756 LINE",
"85 583 OFFCURVE",
"148 481 OFFCURVE",
"275 481 CURVE SMOOTH",
"402 481 OFFCURVE",
"462 573 OFFCURVE",
"464 725 CURVE",
"479 725 LINE",
"457 747 LINE",
"442 589 OFFCURVE",
"389 515 OFFCURVE",
"280 515 CURVE SMOOTH",
"171 515 OFFCURVE",
"123 607 OFFCURVE",
"123 764 CURVE",
"123 1028 LINE",
"123 1180 OFFCURVE",
"174 1259 OFFCURVE",
"286 1259 CURVE SMOOTH",
"396 1259 OFFCURVE",
"448 1180 OFFCURVE",
"448 1028 CURVE",
"448 269 LINE",
"448 101 OFFCURVE",
"396 15 OFFCURVE",
"265 15 CURVE SMOOTH",
"207 15 OFFCURVE",
"150 38 OFFCURVE",
"102 74 CURVE",
"107 32 LINE",
"140 6 OFFCURVE",
"196 -20 OFFCURVE",
"265 -20 CURVE SMOOTH",
"421 -20 OFFCURVE",
"486 79 OFFCURVE",
"486 269 CURVE SMOOTH",
"486 1024 LINE SMOOTH",
"486 1203 OFFCURVE",
"421 1293 OFFCURVE",
"286 1293 CURVE SMOOTH"
);
}
);
width = 588;
},
{
layerId = "DF0EE8E4-AB0C-48FB-AB57-676AC09C8CC1";
paths = (
{
closed = 1;
nodes = (
"166 1297 OFFCURVE",
"42 1155 OFFCURVE",
"42 879 CURVE SMOOTH",
"42 803 LINE SMOOTH",
"42 564 OFFCURVE",
"101 430 OFFCURVE",
"278 430 CURVE SMOOTH",
"407 430 OFFCURVE",
"459 509 OFFCURVE",
"474 630 CURVE",
"584 630 LINE",
"487 756 LINE",
"480 714 OFFCURVE",
"456 686 OFFCURVE",
"411 686 CURVE SMOOTH",
"358 686 OFFCURVE",
"342 726 OFFCURVE",
"342 818 CURVE SMOOTH",
"342 886 LINE",
"342 988 OFFCURVE",
"358 1030 OFFCURVE",
"413 1030 CURVE SMOOTH",
"469 1030 OFFCURVE",
"485 988 OFFCURVE",
"485 886 CURVE",
"485 473 LINE",
"485 318 OFFCURVE",
"426 259 OFFCURVE",
"286 259 CURVE SMOOTH",
"205 259 OFFCURVE",
"147 283 OFFCURVE",
"100 305 CURVE",
"122 31 LINE",
"169 7 OFFCURVE",
"251 -20 OFFCURVE",
"360 -20 CURVE SMOOTH",
"650 -20 OFFCURVE",
"795 147 OFFCURVE",
"795 457 CURVE",
"795 870 LINE",
"795 1155 OFFCURVE",
"676 1297 OFFCURVE",
"419 1297 CURVE SMOOTH"
);
}
);
width = 847;
},
{
layerId = "825A4CEE-7199-41F6-ACE2-F406C7380F94";
paths = (
{
closed = 1;
nodes = (
"321 1297 OFFCURVE",
"130 1142 OFFCURVE",
"130 882 CURVE SMOOTH",
"130 868 LINE SMOOTH",
"130 616 OFFCURVE",
"303 475 OFFCURVE",
"637 475 CURVE SMOOTH",
"978 475 OFFCURVE",
"1176 649 OFFCURVE",
"1243 831 CURVE",
"1252 831 LINE",
"1233 863 LINE",
"1152 667 OFFCURVE",
"959 510 OFFCURVE",
"639 510 CURVE SMOOTH",
"327 510 OFFCURVE",
"171 639 OFFCURVE",
"171 868 CURVE SMOOTH",
"171 879 LINE SMOOTH",
"171 1117 OFFCURVE",
"343 1260 OFFCURVE",
"680 1260 CURVE SMOOTH",
"1044 1260 OFFCURVE",
"1245 1055 OFFCURVE",
"1245 640 CURVE SMOOTH",
"1245 619 LINE SMOOTH",
"1245 235 OFFCURVE",
"1053 21 OFFCURVE",
"647 21 CURVE SMOOTH",
"435 21 OFFCURVE",
"313 71 OFFCURVE",
"196 132 CURVE",
"202 89 LINE",
"294 41 OFFCURVE",
"418 -16 OFFCURVE",
"647 -16 CURVE SMOOTH",
"1078 -16 OFFCURVE",
"1286 213 OFFCURVE",
"1286 619 CURVE",
"1286 640 LINE",
"1286 1073 OFFCURVE",
"1073 1297 OFFCURVE",
"680 1297 CURVE SMOOTH"
);
}
);
width = 1430;
},
{
layerId = "3B7D2D6B-4C7F-469B-8FA8-9D341C52EB57";
paths = (
{
closed = 1;
nodes = (
"315 1311 OFFCURVE",
"80 1148 OFFCURVE",
"80 856 CURVE",
"80 836 LINE SMOOTH",
"80 591 OFFCURVE",
"266 443 OFFCURVE",
"573 443 CURVE SMOOTH",
"837 443 OFFCURVE",
"981 525 OFFCURVE",
"1032 668 CURVE",
"1112 668 LINE",
"1039 817 LINE",
"968 753 OFFCURVE",
"843 719 OFFCURVE",
"726 719 CURVE SMOOTH",
"561 719 OFFCURVE",
"487 766 OFFCURVE",
"487 851 CURVE SMOOTH",
"487 858 LINE",
"487 936 OFFCURVE",
"566 988 OFFCURVE",
"730 988 CURVE SMOOTH",
"948 988 OFFCURVE",
"1041 894 OFFCURVE",
"1041 648 CURVE",
"1041 636 LINE",
"1041 379 OFFCURVE",
"902 279 OFFCURVE",
"560 279 CURVE SMOOTH",
"411 279 OFFCURVE",
"266 312 OFFCURVE",
"151 359 CURVE",
"195 22 LINE",
"303 -17 OFFCURVE",
"459 -44 OFFCURVE",
"639 -44 CURVE SMOOTH",
"1155 -44 OFFCURVE",
"1442 201 OFFCURVE",
"1442 623 CURVE",
"1442 639 LINE",
"1442 1070 OFFCURVE",
"1209 1311 OFFCURVE",
"738 1311 CURVE SMOOTH"
);
}
);
width = 1526;
},
{
layerId = "D1180855-BCFE-435D-BBAD-373D6E72A0DF";
paths = (
{
closed = 1;
nodes = (
"157 1295 OFFCURVE",
"63 1182 OFFCURVE",
"63 962 CURVE SMOOTH",
"63 771 LINE SMOOTH",
"63 570 OFFCURVE",
"125 455 OFFCURVE",
"273 455 CURVE SMOOTH",
"386 455 OFFCURVE",
"438 516 OFFCURVE",
"458 601 CURVE",
"496 601 LINE",
"469 736 LINE",
"455 663 OFFCURVE",
"414 605 OFFCURVE",
"346 605 CURVE SMOOTH",
"266 605 OFFCURVE",
"237 665 OFFCURVE",
"237 782 CURVE SMOOTH",
"237 966 LINE SMOOTH",
"237 1086 OFFCURVE",
"269 1143 OFFCURVE",
"351 1143 CURVE SMOOTH",
"434 1143 OFFCURVE",
"467 1086 OFFCURVE",
"467 966 CURVE SMOOTH",
"467 374 LINE SMOOTH",
"467 217 OFFCURVE",
"415 143 OFFCURVE",
"290 143 CURVE SMOOTH",
"210 143 OFFCURVE",
"150 169 OFFCURVE",
"101 201 CURVE",
"115 31 LINE",
"157 5 OFFCURVE",
"229 -20 OFFCURVE",
"325 -20 CURVE SMOOTH",
"538 -20 OFFCURVE",
"641 115 OFFCURVE",
"641 362 CURVE SMOOTH",
"641 957 LINE SMOOTH",
"641 1182 OFFCURVE",
"546 1295 OFFCURVE",
"352 1295 CURVE SMOOTH"
);
}
);
width = 718;
},
{
layerId = "13EBB120-61C6-43BE-BE80-275AFBEF3308";
paths = (
{
closed = 1;
nodes = (
"318 1304 OFFCURVE",
"105 1145 OFFCURVE",
"105 869 CURVE SMOOTH",
"105 852 LINE SMOOTH",
"105 598 OFFCURVE",
"285 450 OFFCURVE",
"605 450 CURVE SMOOTH",
"904 450 OFFCURVE",
"1073 577 OFFCURVE",
"1131 737 CURVE",
"1176 737 LINE",
"1135 872 LINE",
"1059 726 OFFCURVE",
"901 620 OFFCURVE",
"683 620 CURVE SMOOTH",
"444 620 OFFCURVE",
"329 706 OFFCURVE",
"329 860 CURVE SMOOTH",
"329 869 LINE SMOOTH",
"329 1025 OFFCURVE",
"455 1121 OFFCURVE",
"705 1121 CURVE SMOOTH",
"996 1121 OFFCURVE",
"1143 973 OFFCURVE",
"1143 644 CURVE SMOOTH",
"1143 628 LINE SMOOTH",
"1143 313 OFFCURVE",
"978 151 OFFCURVE",
"621 151 CURVE SMOOTH",
"429 151 OFFCURVE",
"290 198 OFFCURVE",
"174 258 CURVE",
"199 56 LINE",
"299 12 OFFCURVE",
"439 -30 OFFCURVE",
"643 -30 CURVE SMOOTH",
"1120 -30 OFFCURVE",
"1368 207 OFFCURVE",
"1368 621 CURVE",
"1368 640 LINE",
"1368 1072 OFFCURVE",
"1144 1304 OFFCURVE",
"709 1304 CURVE SMOOTH"
);
}
);
width = 1478;
},
{
layerId = "C57162E4-21E6-4CBA-854D-82A45BE477A0";
paths = (
{
closed = 1;
nodes = (
"240 1295 OFFCURVE",
"114 1143 OFFCURVE",
"114 925 CURVE",
"114 842 LINE",
"114 617 OFFCURVE",
"229 478 OFFCURVE",
"475 478 CURVE SMOOTH",
"694 478 OFFCURVE",
"828 616 OFFCURVE",
"865 786 CURVE",
"877 786 LINE",
"856 813 LINE",
"804 634 OFFCURVE",
"677 513 OFFCURVE",
"479 513 CURVE SMOOTH",
"252 513 OFFCURVE",
"153 640 OFFCURVE",
"153 846 CURVE",
"153 926 LINE",
"153 1119 OFFCURVE",
"262 1259 OFFCURVE",
"493 1259 CURVE SMOOTH",
"731 1259 OFFCURVE",
"853 1118 OFFCURVE",
"853 849 CURVE SMOOTH",
"853 442 LINE",
"853 169 OFFCURVE",
"735 18 OFFCURVE",
"469 18 CURVE SMOOTH",
"331 18 OFFCURVE",
"240 55 OFFCURVE",
"155 103 CURVE",
"161 59 LINE",
"224 23 OFFCURVE",
"317 -18 OFFCURVE",
"469 -18 CURVE SMOOTH",
"759 -18 OFFCURVE",
"891 147 OFFCURVE",
"891 442 CURVE SMOOTH",
"891 851 LINE SMOOTH",
"891 1137 OFFCURVE",
"755 1295 OFFCURVE",
"493 1295 CURVE SMOOTH"
);
}
);
width = 1020;
},
{
layerId = "D1B4C6CF-B771-4849-A887-0D6177A69D8B";
paths = (
{
closed = 1;
nodes = (
"240 1304 OFFCURVE",
"61 1148 OFFCURVE",
"61 865 CURVE SMOOTH",
"61 820 LINE SMOOTH",
"61 580 OFFCURVE",
"187 438 OFFCURVE",
"426 438 CURVE SMOOTH",
"619 438 OFFCURVE",
"718 521 OFFCURVE",
"751 655 CURVE",
"846 655 LINE",
"765 807 LINE",
"727 742 OFFCURVE",
"660 704 OFFCURVE",
"576 704 CURVE SMOOTH",
"462 704 OFFCURVE",
"411 752 OFFCURVE",
"411 848 CURVE SMOOTH",
"411 857 LINE",
"411 950 OFFCURVE",
"461 1007 OFFCURVE",
"575 1007 CURVE SMOOTH",
"703 1007 OFFCURVE",
"761 936 OFFCURVE",
"761 781 CURVE SMOOTH",
"761 553 LINE SMOOTH",
"761 358 OFFCURVE",
"658 270 OFFCURVE",
"429 270 CURVE SMOOTH",
"303 270 OFFCURVE",
"202 301 OFFCURVE",
"124 336 CURVE",
"159 28 LINE",
"230 -3 OFFCURVE",
"344 -29 OFFCURVE",
"499 -29 CURVE SMOOTH",
"911 -29 OFFCURVE",
"1119 174 OFFCURVE",
"1119 537 CURVE SMOOTH",
"1119 747 LINE SMOOTH",
"1119 1114 OFFCURVE",
"933 1304 OFFCURVE",
"578 1304 CURVE SMOOTH"
);
}
);
width = 1187;
},
{
layerId = "F908E90C-D8C5-4664-8A98-C6332077FED2";
paths = (
{
closed = 1;
nodes = (
"238 1304 OFFCURVE",
"85 1147 OFFCURVE",
"85 905 CURVE SMOOTH",
"85 838 LINE SMOOTH",
"85 595 OFFCURVE",
"209 452 OFFCURVE",
"460 452 CURVE SMOOTH",
"649 452 OFFCURVE",
"752 545 OFFCURVE",
"792 669 CURVE",
"825 669 LINE",
"811 841 LINE",
"771 699 OFFCURVE",
"662 612 OFFCURVE",
"521 612 CURVE SMOOTH",
"350 612 OFFCURVE",
"283 704 OFFCURVE",
"283 844 CURVE SMOOTH",
"283 902 LINE SMOOTH",
"283 1040 OFFCURVE",
"362 1137 OFFCURVE",
"527 1137 CURVE SMOOTH",
"716 1137 OFFCURVE",
"802 1029 OFFCURVE",
"802 817 CURVE",
"802 501 LINE SMOOTH",
"802 268 OFFCURVE",
"693 150 OFFCURVE",
"460 150 CURVE SMOOTH",
"314 150 OFFCURVE",
"223 186 OFFCURVE",
"138 233 CURVE",
"159 44 LINE",
"232 9 OFFCURVE",
"335 -25 OFFCURVE",
"483 -25 CURVE SMOOTH",
"827 -25 OFFCURVE",
"1001 162 OFFCURVE",
"1001 495 CURVE SMOOTH",
"1001 797 LINE SMOOTH",
"1001 1130 OFFCURVE",
"842 1304 OFFCURVE",
"531 1304 CURVE SMOOTH"
);
}
);
width = 1096;
}
);
unicode = 0039;
},
{
glyphname = colon;
lastChange = "2021-12-01 12:49:26 +0000";
layers = (
{
layerId = "97B58FCF-3A12-4579-9B1E-E0D00032C06B";
paths = (
{
closed = 1;
nodes = (
"137 -9 OFFCURVE",
"145 9 OFFCURVE",
"145 50 CURVE SMOOTH",
"145 68 LINE SMOOTH",
"145 108 OFFCURVE",
"137 127 OFFCURVE",
"115 127 CURVE SMOOTH",
"93 127 OFFCURVE",
"86 108 OFFCURVE",
"86 68 CURVE SMOOTH",
"86 50 LINE SMOOTH",
"86 9 OFFCURVE",
"93 -9 OFFCURVE",
"115 -9 CURVE SMOOTH"
);
},
{
closed = 1;
nodes = (
"137 759 OFFCURVE",
"145 777 OFFCURVE",
"145 818 CURVE SMOOTH",
"145 836 LINE SMOOTH",
"145 876 OFFCURVE",
"137 895 OFFCURVE",
"115 895 CURVE SMOOTH",
"93 895 OFFCURVE",
"86 876 OFFCURVE",
"86 836 CURVE SMOOTH",
"86 818 LINE SMOOTH",
"86 777 OFFCURVE",
"93 759 OFFCURVE",
"115 759 CURVE SMOOTH"
);
}
);
width = 231;
},
{
layerId = "DF0EE8E4-AB0C-48FB-AB57-676AC09C8CC1";
paths = (
{
closed = 1;
nodes = (
"309 -26 OFFCURVE",
"364 40 OFFCURVE",
"364 156 CURVE SMOOTH",
"364 173 LINE SMOOTH",
"364 287 OFFCURVE",
"309 355 OFFCURVE",
"204 355 CURVE SMOOTH",
"95 355 OFFCURVE",
"44 287 OFFCURVE",
"44 173 CURVE SMOOTH",
"44 156 LINE SMOOTH",
"44 40 OFFCURVE",
"95 -26 OFFCURVE",
"204 -26 CURVE SMOOTH"
);
},
{
closed = 1;
nodes = (
"309 585 OFFCURVE",
"364 651 OFFCURVE",
"364 767 CURVE SMOOTH",
"364 784 LINE SMOOTH",
"364 898 OFFCURVE",
"309 966 OFFCURVE",
"204 966 CURVE SMOOTH",
"95 966 OFFCURVE",
"44 898 OFFCURVE",
"44 784 CURVE SMOOTH",
"44 767 LINE SMOOTH",
"44 651 OFFCURVE",
"95 585 OFFCURVE",
"204 585 CURVE SMOOTH"
);
}
);
width = 408;
},
{
layerId = "825A4CEE-7199-41F6-ACE2-F406C7380F94";
paths = (
{
closed = 1;
nodes = (
"243 -14 OFFCURVE",
"264 4 OFFCURVE",
"264 39 CURVE SMOOTH",
"264 43 LINE SMOOTH",
"264 77 OFFCURVE",
"243 94 OFFCURVE",
"205 94 CURVE SMOOTH",
"170 94 OFFCURVE",
"148 77 OFFCURVE",
"148 43 CURVE SMOOTH",
"148 39 LINE SMOOTH",
"148 4 OFFCURVE",
"170 -14 OFFCURVE",
"205 -14 CURVE SMOOTH"
);
},
{
closed = 1;
nodes = (
"243 779 OFFCURVE",
"264 797 OFFCURVE",
"264 832 CURVE SMOOTH",
"264 836 LINE SMOOTH",
"264 870 OFFCURVE",
"243 887 OFFCURVE",
"205 887 CURVE SMOOTH",
"170 887 OFFCURVE",
"148 870 OFFCURVE",
"148 836 CURVE SMOOTH",
"148 832 LINE SMOOTH",
"148 797 OFFCURVE",
"170 779 OFFCURVE",
"205 779 CURVE SMOOTH"
);
}
);
width = 412;
},
{
layerId = "3B7D2D6B-4C7F-469B-8FA8-9D341C52EB57";
paths = (
{
closed = 1;
nodes = (
"461 -34 OFFCURVE",
"529 39 OFFCURVE",
"529 157 CURVE SMOOTH",
"529 162 LINE SMOOTH",
"529 281 OFFCURVE",
"461 356 OFFCURVE",
"312 356 CURVE SMOOTH",
"162 356 OFFCURVE",
"95 281 OFFCURVE",
"95 162 CURVE SMOOTH",
"95 157 LINE SMOOTH",
"95 39 OFFCURVE",
"162 -34 OFFCURVE",
"312 -34 CURVE SMOOTH"
);
},
{
closed = 1;
nodes = (
"461 557 OFFCURVE",
"529 630 OFFCURVE",
"529 748 CURVE SMOOTH",
"529 753 LINE SMOOTH",
"529 872 OFFCURVE",
"461 947 OFFCURVE",
"312 947 CURVE SMOOTH",
"162 947 OFFCURVE",
"95 872 OFFCURVE",
"95 753 CURVE SMOOTH",
"95 748 LINE SMOOTH",
"95 630 OFFCURVE",
"162 557 OFFCURVE",
"312 557 CURVE SMOOTH"
);
}
);
width = 624;
},
{
layerId = "D1180855-BCFE-435D-BBAD-373D6E72A0DF";
paths = (
{
closed = 1;
nodes = (
"223 -18 OFFCURVE",
"255 25 OFFCURVE",
"255 103 CURVE SMOOTH",
"255 120 LINE SMOOTH",
"255 197 OFFCURVE",
"223 240 OFFCURVE",
"160 240 CURVE SMOOTH",
"94 240 OFFCURVE",
"65 197 OFFCURVE",
"65 120 CURVE SMOOTH",
"65 103 LINE SMOOTH",
"65 25 OFFCURVE",
"94 -18 OFFCURVE",
"160 -18 CURVE SMOOTH"
);
},
{
closed = 1;
nodes = (
"223 672 OFFCURVE",
"255 715 OFFCURVE",
"255 793 CURVE SMOOTH",
"255 810 LINE SMOOTH",
"255 887 OFFCURVE",
"223 930 OFFCURVE",
"160 930 CURVE SMOOTH",
"94 930 OFFCURVE",
"65 887 OFFCURVE",
"65 810 CURVE SMOOTH",
"65 793 LINE SMOOTH",
"65 715 OFFCURVE",
"94 672 OFFCURVE",
"160 672 CURVE SMOOTH"
);
}
);
width = 320;
},
{
layerId = "13EBB120-61C6-43BE-BE80-275AFBEF3308";
paths = (
{
closed = 1;
nodes = (
"353 -24 OFFCURVE",
"398 23 OFFCURVE",
"398 100 CURVE SMOOTH",
"398 104 LINE SMOOTH",
"398 181 OFFCURVE",
"353 228 OFFCURVE",
"258 228 CURVE SMOOTH",
"165 228 OFFCURVE",
"119 181 OFFCURVE",
"119 104 CURVE SMOOTH",
"119 100 LINE SMOOTH",
"119 23 OFFCURVE",
"165 -24 OFFCURVE",
"258 -24 CURVE SMOOTH"
);
},
{
closed = 1;
nodes = (
"353 668 OFFCURVE",
"398 715 OFFCURVE",
"398 792 CURVE SMOOTH",
"398 796 LINE SMOOTH",
"398 873 OFFCURVE",
"353 920 OFFCURVE",
"258 920 CURVE SMOOTH",
"165 920 OFFCURVE",
"119 873 OFFCURVE",
"119 796 CURVE SMOOTH",
"119 792 LINE SMOOTH",
"119 715 OFFCURVE",
"165 668 OFFCURVE",
"258 668 CURVE SMOOTH"
);
}
);
width = 517;
},
{
layerId = "C57162E4-21E6-4CBA-854D-82A45BE477A0";
paths = (
{
closed = 1;
nodes = (
"198 -12 OFFCURVE",
"213 7 OFFCURVE",
"213 45 CURVE SMOOTH",
"213 55 LINE SMOOTH",
"213 92 OFFCURVE",
"198 110 OFFCURVE",
"168 110 CURVE SMOOTH",
"140 110 OFFCURVE",
"125 92 OFFCURVE",
"125 55 CURVE SMOOTH",
"125 45 LINE SMOOTH",
"125 7 OFFCURVE",
"140 -12 OFFCURVE",
"168 -12 CURVE SMOOTH"
);
},
{
closed = 1;
nodes = (
"198 769 OFFCURVE",
"213 788 OFFCURVE",
"213 826 CURVE SMOOTH",
"213 836 LINE SMOOTH",
"213 873 OFFCURVE",
"198 891 OFFCURVE",
"168 891 CURVE SMOOTH",
"140 891 OFFCURVE",
"125 873 OFFCURVE",
"125 836 CURVE SMOOTH",
"125 826 LINE SMOOTH",
"125 788 OFFCURVE",
"140 769 OFFCURVE",
"168 769 CURVE SMOOTH"
);
}
);
width = 334;
},
{
layerId = "D1B4C6CF-B771-4849-A887-0D6177A69D8B";
paths = (
{
closed = 1;
nodes = (
"386 -30 OFFCURVE",
"447 40 OFFCURVE",
"447 157 CURVE SMOOTH",
"447 168 LINE SMOOTH",
"447 284 OFFCURVE",
"386 356 OFFCURVE",
"259 356 CURVE SMOOTH",
"129 356 OFFCURVE",
"70 284 OFFCURVE",
"70 168 CURVE SMOOTH",
"70 157 LINE SMOOTH",
"70 40 OFFCURVE",
"129 -30 OFFCURVE",
"259 -30 CURVE SMOOTH"
);
},
{
closed = 1;
nodes = (
"386 571 OFFCURVE",
"447 641 OFFCURVE",
"447 758 CURVE SMOOTH",
"447 769 LINE SMOOTH",
"447 885 OFFCURVE",
"386 957 OFFCURVE",
"259 957 CURVE SMOOTH",
"129 957 OFFCURVE",
"70 885 OFFCURVE",
"70 769 CURVE SMOOTH",
"70 758 LINE SMOOTH",
"70 641 OFFCURVE",
"129 571 OFFCURVE",
"259 571 CURVE SMOOTH"
);
}
);
width = 517;
},
{
layerId = "F908E90C-D8C5-4664-8A98-C6332077FED2";
paths = (
{
closed = 1;
nodes = (
"288 -21 OFFCURVE",
"326 24 OFFCURVE",
"326 102 CURVE SMOOTH",
"326 112 LINE SMOOTH",
"326 189 OFFCURVE",
"288 234 OFFCURVE",
"209 234 CURVE SMOOTH",
"129 234 OFFCURVE",
"92 189 OFFCURVE",
"92 112 CURVE SMOOTH",
"92 102 LINE SMOOTH",
"92 24 OFFCURVE",
"129 -21 OFFCURVE",
"209 -21 CURVE SMOOTH"
);
},
{
closed = 1;
nodes = (
"288 670 OFFCURVE",
"326 715 OFFCURVE",
"326 793 CURVE SMOOTH",
"326 803 LINE SMOOTH",
"326 880 OFFCURVE",
"288 925 OFFCURVE",
"209 925 CURVE SMOOTH",
"129 925 OFFCURVE",
"92 880 OFFCURVE",
"92 803 CURVE SMOOTH",
"92 793 LINE SMOOTH",
"92 715 OFFCURVE",
"129 670 OFFCURVE",
"209 670 CURVE SMOOTH"
);
}
);
width = 418;
}
);
unicode = 003A;
},
{
glyphname = semicolon;
lastChange = "2021-12-01 12:49:26 +0000";
layers = (
{
layerId = "97B58FCF-3A12-4579-9B1E-E0D00032C06B";
paths = (
{
closed = 1;
nodes = (
"101 206 LINE",
"106 169 OFFCURVE",
"110 129 OFFCURVE",
"110 90 CURVE SMOOTH",
"110 -37 OFFCURVE",
"79 -145 OFFCURVE",
"25 -237 CURVE",
"44 -263 LINE",
"117 -155 OFFCURVE",
"147 -42 OFFCURVE",
"147 90 CURVE SMOOTH",
"147 140 OFFCURVE",
"141 188 OFFCURVE",
"138 206 CURVE"
);
},
{
closed = 1;
nodes = (
"137 759 OFFCURVE",
"145 777 OFFCURVE",
"145 818 CURVE SMOOTH",
"145 836 LINE SMOOTH",
"145 876 OFFCURVE",
"137 895 OFFCURVE",
"115 895 CURVE SMOOTH",
"93 895 OFFCURVE",
"86 876 OFFCURVE",
"86 836 CURVE SMOOTH",
"86 818 LINE SMOOTH",
"86 777 OFFCURVE",
"93 759 OFFCURVE",
"115 759 CURVE SMOOTH"
);
}
);
width = 231;
},
{
layerId = "DF0EE8E4-AB0C-48FB-AB57-676AC09C8CC1";
paths = (
{
closed = 1;
nodes = (
"67 348 LINE",
"71 294 OFFCURVE",
"73 258 OFFCURVE",
"73 210 CURVE SMOOTH",
"73 57 OFFCURVE",
"40 -57 OFFCURVE",
"-10 -158 CURVE",
"194 -208 LINE",
"310 -81 OFFCURVE",
"358 57 OFFCURVE",
"358 223 CURVE SMOOTH",
"358 272 OFFCURVE",
"354 309 OFFCURVE",
"349 348 CURVE"
);
},
{
closed = 1;
nodes = (
"309 585 OFFCURVE",
"364 651 OFFCURVE",
"364 767 CURVE SMOOTH",
"364 784 LINE SMOOTH",
"364 898 OFFCURVE",
"309 966 OFFCURVE",
"204 966 CURVE SMOOTH",
"95 966 OFFCURVE",
"44 898 OFFCURVE",
"44 784 CURVE SMOOTH",
"44 767 LINE SMOOTH",
"44 651 OFFCURVE",
"95 585 OFFCURVE",
"204 585 CURVE SMOOTH"
);
}
);
width = 408;
},
{
layerId = "825A4CEE-7199-41F6-ACE2-F406C7380F94";
paths = (
{
closed = 1;
nodes = (
"191 240 LINE",
"197 206 OFFCURVE",
"200 171 OFFCURVE",
"200 132 CURVE SMOOTH",
"200 -27 OFFCURVE",
"165 -146 OFFCURVE",
"63 -272 CURVE",
"86 -294 LINE",
"200 -162 OFFCURVE",
"238 -32 OFFCURVE",
"238 134 CURVE SMOOTH",
"238 180 OFFCURVE",
"232 219 OFFCURVE",
"229 240 CURVE"
);
},
{
closed = 1;
nodes = (
"247 779 OFFCURVE",
"268 797 OFFCURVE",
"268 832 CURVE SMOOTH",
"268 836 LINE SMOOTH",
"268 870 OFFCURVE",
"247 887 OFFCURVE",
"209 887 CURVE SMOOTH",
"174 887 OFFCURVE",
"152 870 OFFCURVE",
"152 836 CURVE SMOOTH",
"152 832 LINE SMOOTH",
"152 797 OFFCURVE",
"174 779 OFFCURVE",
"209 779 CURVE SMOOTH"
);
}
);
width = 416;
},
{
layerId = "3B7D2D6B-4C7F-469B-8FA8-9D341C52EB57";
paths = (
{
closed = 1;
nodes = (
"128 342 LINE",
"132 295 OFFCURVE",
"134 255 OFFCURVE",
"134 208 CURVE SMOOTH",
"134 46 OFFCURVE",
"103 -85 OFFCURVE",
"41 -206 CURVE",
"319 -262 LINE",
"449 -119 OFFCURVE",
"502 36 OFFCURVE",
"502 221 CURVE SMOOTH",
"502 263 OFFCURVE",
"497 308 OFFCURVE",
"491 342 CURVE"
);
},
{
closed = 1;
nodes = (
"461 557 OFFCURVE",
"529 630 OFFCURVE",
"529 748 CURVE SMOOTH",
"529 753 LINE SMOOTH",
"529 872 OFFCURVE",
"461 947 OFFCURVE",
"312 947 CURVE SMOOTH",
"162 947 OFFCURVE",
"95 872 OFFCURVE",
"95 753 CURVE SMOOTH",
"95 748 LINE SMOOTH",
"95 630 OFFCURVE",
"162 557 OFFCURVE",
"312 557 CURVE SMOOTH"
);
}
);
width = 624;
},
{
layerId = "D1180855-BCFE-435D-BBAD-373D6E72A0DF";
paths = (
{
closed = 1;
nodes = (
"76 277 LINE",
"80 233 OFFCURVE",
"82 194 OFFCURVE",
"82 150 CURVE SMOOTH",
"82 10 OFFCURVE",
"50 -101 OFFCURVE",
"-2 -198 CURVE",
"118 -239 LINE",
"212 -120 OFFCURVE",
"251 7 OFFCURVE",
"251 157 CURVE SMOOTH",
"251 205 OFFCURVE",
"246 249 OFFCURVE",
"242 277 CURVE"
);
},
{
closed = 1;
nodes = (
"223 672 OFFCURVE",
"255 715 OFFCURVE",
"255 793 CURVE SMOOTH",
"255 810 LINE SMOOTH",
"255 887 OFFCURVE",
"223 930 OFFCURVE",
"160 930 CURVE SMOOTH",
"94 930 OFFCURVE",
"65 887 OFFCURVE",
"65 810 CURVE SMOOTH",
"65 793 LINE SMOOTH",
"65 715 OFFCURVE",
"94 672 OFFCURVE",
"160 672 CURVE SMOOTH"
);
}
);
width = 320;
},
{
layerId = "13EBB120-61C6-43BE-BE80-275AFBEF3308";
paths = (
{
closed = 1;
nodes = (
"164 291 LINE",
"169 251 OFFCURVE",
"171 213 OFFCURVE",
"171 170 CURVE SMOOTH",
"171 10 OFFCURVE",
"138 -115 OFFCURVE",
"56 -238 CURVE",
"217 -279 LINE",
"339 -142 OFFCURVE",
"384 2 OFFCURVE",
"384 178 CURVE SMOOTH",
"384 222 OFFCURVE",
"379 264 OFFCURVE",
"374 291 CURVE"
);
},
{
closed = 1;
nodes = (
"362 668 OFFCURVE",
"407 715 OFFCURVE",
"407 792 CURVE SMOOTH",
"407 796 LINE SMOOTH",
"407 873 OFFCURVE",
"362 920 OFFCURVE",
"267 920 CURVE SMOOTH",
"174 920 OFFCURVE",
"128 873 OFFCURVE",
"128 796 CURVE SMOOTH",
"128 792 LINE SMOOTH",
"128 715 OFFCURVE",
"174 668 OFFCURVE",
"267 668 CURVE SMOOTH"
);
}
);
width = 526;
},
{
layerId = "C57162E4-21E6-4CBA-854D-82A45BE477A0";
paths = (
{
closed = 1;
nodes = (
"152 223 LINE",
"158 188 OFFCURVE",
"161 150 OFFCURVE",
"161 111 CURVE SMOOTH",
"161 -33 OFFCURVE",
"128 -147 OFFCURVE",
"48 -257 CURVE",
"71 -279 LINE",
"165 -159 OFFCURVE",
"199 -37 OFFCURVE",
"199 112 CURVE SMOOTH",
"199 160 OFFCURVE",
"193 204 OFFCURVE",
"190 223 CURVE"
);
},
{
closed = 1;
nodes = (
"198 769 OFFCURVE",
"213 788 OFFCURVE",
"213 826 CURVE SMOOTH",
"213 836 LINE SMOOTH",
"213 873 OFFCURVE",
"198 891 OFFCURVE",
"168 891 CURVE SMOOTH",
"140 891 OFFCURVE",
"125 873 OFFCURVE",
"125 836 CURVE SMOOTH",
"125 826 LINE SMOOTH",
"125 788 OFFCURVE",
"140 769 OFFCURVE",
"168 769 CURVE SMOOTH"
);
}
);
width = 334;
},
{
layerId = "D1B4C6CF-B771-4849-A887-0D6177A69D8B";
paths = (
{
closed = 1;
nodes = (
"98 345 LINE",
"102 295 OFFCURVE",
"104 257 OFFCURVE",
"104 209 CURVE SMOOTH",
"104 52 OFFCURVE",
"72 -71 OFFCURVE",
"16 -182 CURVE",
"257 -235 LINE",
"380 -100 OFFCURVE",
"431 47 OFFCURVE",
"431 222 CURVE SMOOTH",
"431 268 OFFCURVE",
"426 309 OFFCURVE",
"421 345 CURVE"
);
},
{
closed = 1;
nodes = (
"386 571 OFFCURVE",
"447 641 OFFCURVE",
"447 758 CURVE SMOOTH",
"447 769 LINE SMOOTH",
"447 885 OFFCURVE",
"386 957 OFFCURVE",
"259 957 CURVE SMOOTH",
"129 957 OFFCURVE",
"70 885 OFFCURVE",
"70 769 CURVE SMOOTH",
"70 758 LINE SMOOTH",
"70 641 OFFCURVE",
"129 571 OFFCURVE",
"259 571 CURVE SMOOTH"
);
}
);
width = 517;
},
{
layerId = "F908E90C-D8C5-4664-8A98-C6332077FED2";
paths = (
{
closed = 1;
nodes = (
"116 284 LINE",
"121 242 OFFCURVE",
"123 204 OFFCURVE",
"123 160 CURVE SMOOTH",
"123 10 OFFCURVE",
"91 -109 OFFCURVE",
"24 -219 CURVE",
"161 -259 LINE",
"271 -130 OFFCURVE",
"314 5 OFFCURVE",
"314 168 CURVE SMOOTH",
"314 214 OFFCURVE",
"308 257 OFFCURVE",
"304 284 CURVE"
);
},
{
closed = 1;
nodes = (
"288 670 OFFCURVE",
"326 715 OFFCURVE",
"326 793 CURVE SMOOTH",
"326 803 LINE SMOOTH",
"326 880 OFFCURVE",
"288 925 OFFCURVE",
"209 925 CURVE SMOOTH",
"129 925 OFFCURVE",
"92 880 OFFCURVE",
"92 803 CURVE SMOOTH",
"92 793 LINE SMOOTH",
"92 715 OFFCURVE",
"129 670 OFFCURVE",
"209 670 CURVE SMOOTH"
);
}
);
width = 416;
}
);
unicode = 003B;
},
{
glyphname = less;
lastChange = "2021-12-01 12:49:26 +0000";
layers = (
{
layerId = "97B58FCF-3A12-4579-9B1E-E0D00032C06B";
paths = (
{
closed = 1;
nodes = (
"547 807 LINE",
"547 842 LINE",
"61 667 LINE",
"61 606 LINE",
"547 431 LINE",
"547 466 LINE",
"91 630 LINE",
"91 643 LINE"
);
}
);
width = 655;
},
{
layerId = "DF0EE8E4-AB0C-48FB-AB57-676AC09C8CC1";
paths = (
{
closed = 1;
nodes = (
"678 711 LINE",
"678 966 LINE",
"53 837 LINE",
"53 438 LINE",
"678 309 LINE",
"678 564 LINE",
"248 629 LINE",
"248 645 LINE"
);
}
);
width = 733;
},
{
layerId = "825A4CEE-7199-41F6-ACE2-F406C7380F94";
paths = (
{
closed = 1;
nodes = (
"1185 947 LINE",
"1185 987 LINE",
"166 652 LINE",
"166 576 LINE",
"1185 241 LINE",
"1185 281 LINE",
"198 601 LINE",
"198 627 LINE"
);
}
);
width = 1402;
},
{
layerId = "3B7D2D6B-4C7F-469B-8FA8-9D341C52EB57";
paths = (
{
closed = 1;
nodes = (
"1207 729 LINE",
"1207 1061 LINE",
"115 842 LINE",
"115 340 LINE",
"1207 117 LINE",
"1207 451 LINE",
"368 581 LINE",
"368 604 LINE"
);
}
);
width = 1322;
},
{
layerId = "D1180855-BCFE-435D-BBAD-373D6E72A0DF";
paths = (
{
closed = 1;
nodes = (
"613 755 LINE",
"613 904 LINE",
"57 750 LINE",
"57 524 LINE",
"613 370 LINE",
"613 519 LINE",
"179 630 LINE",
"179 644 LINE"
);
}
);
width = 694;
},
{
layerId = "13EBB120-61C6-43BE-BE80-275AFBEF3308";
paths = (
{
closed = 1;
nodes = (
"1196 831 LINE",
"1196 1022 LINE",
"141 747 LINE",
"141 458 LINE",
"1196 181 LINE",
"1196 373 LINE",
"303 593 LINE",
"303 614 LINE"
);
}
);
width = 1362;
},
{
layerId = "C57162E4-21E6-4CBA-854D-82A45BE477A0";
paths = (
{
closed = 1;
nodes = (
"872 877 LINE",
"872 915 LINE",
"120 660 LINE",
"120 591 LINE",
"872 336 LINE",
"872 374 LINE",
"155 615 LINE",
"155 636 LINE"
);
}
);
width = 1041;
},
{
layerId = "D1B4C6CF-B771-4849-A887-0D6177A69D8B";
paths = (
{
closed = 1;
nodes = (
"943 720 LINE",
"943 1014 LINE",
"84 840 LINE",
"84 389 LINE",
"943 215 LINE",
"943 509 LINE",
"318 605 LINE",
"318 625 LINE"
);
}
);
width = 1028;
},
{
layerId = "F908E90C-D8C5-4664-8A98-C6332077FED2";
paths = (
{
closed = 1;
nodes = (
"905 795 LINE",
"905 965 LINE",
"99 750 LINE",
"99 490 LINE",
"905 275 LINE",
"905 445 LINE",
"241 611 LINE",
"241 629 LINE"
);
}
);
width = 1029;
}
);
leftMetricsKey = minus;
unicode = 003C;
},
{
glyphname = equal;
lastChange = "2021-12-01 12:49:26 +0000";
layers = (
{
layerId = "97B58FCF-3A12-4579-9B1E-E0D00032C06B";
paths = (
{
closed = 1;
nodes = (
"570 460 LINE",
"570 493 LINE",
"84 493 LINE",
"84 460 LINE"
);
},
{
closed = 1;
nodes = (
"570 780 LINE",
"570 813 LINE",
"84 813 LINE",
"84 780 LINE"
);
}
);
width = 654;
},
{
layerId = "DF0EE8E4-AB0C-48FB-AB57-676AC09C8CC1";
paths = (
{
closed = 1;
nodes = (
"681 328 LINE",
"681 575 LINE",
"54 575 LINE",
"54 328 LINE"
);
},
{
closed = 1;
nodes = (
"681 698 LINE",
"681 945 LINE",
"54 945 LINE",
"54 698 LINE"
);
}
);
width = 735;
},
{
layerId = "825A4CEE-7199-41F6-ACE2-F406C7380F94";
paths = (
{
closed = 1;
nodes = (
"1204 346 LINE",
"1204 380 LINE",
"185 380 LINE",
"185 346 LINE"
);
},
{
closed = 1;
nodes = (
"1204 846 LINE",
"1204 880 LINE",
"185 880 LINE",
"185 846 LINE"
);
}
);
width = 1389;
},
{
layerId = "3B7D2D6B-4C7F-469B-8FA8-9D341C52EB57";
paths = (
{
closed = 1;
nodes = (
"1217 219 LINE",
"1217 521 LINE",
"125 521 LINE",
"125 219 LINE"
);
},
{
closed = 1;
nodes = (
"1217 679 LINE",
"1217 981 LINE",
"125 981 LINE",
"125 679 LINE"
);
}
);
width = 1342;
},
{
layerId = "D1180855-BCFE-435D-BBAD-373D6E72A0DF";
paths = (
{
closed = 1;
nodes = (
"626 406 LINE",
"626 553 LINE",
"69 553 LINE",
"69 406 LINE"
);
},
{
closed = 1;
nodes = (
"626 720 LINE",
"626 867 LINE",
"69 867 LINE",
"69 720 LINE"
);
}
);
width = 695;
},
{
layerId = "13EBB120-61C6-43BE-BE80-275AFBEF3308";
paths = (
{
closed = 1;
nodes = (
"1200 283 LINE",
"1200 455 LINE",
"155 455 LINE",
"155 283 LINE"
);
},
{
closed = 1;
nodes = (
"1200 759 LINE",
"1200 931 LINE",
"155 931 LINE",
"155 759 LINE"
);
}
);
width = 1355;
},
{
layerId = "C57162E4-21E6-4CBA-854D-82A45BE477A0";
paths = (
{
closed = 1;
nodes = (
"893 403 LINE",
"893 437 LINE",
"141 437 LINE",
"141 403 LINE"
);
},
{
closed = 1;
nodes = (
"893 813 LINE",
"893 847 LINE",
"141 847 LINE",
"141 813 LINE"
);
}
);
width = 1034;
},
{
layerId = "D1B4C6CF-B771-4849-A887-0D6177A69D8B";
paths = (
{
closed = 1;
nodes = (
"949 274 LINE",
"949 548 LINE",
"90 548 LINE",
"90 274 LINE"
);
},
{
closed = 1;
nodes = (
"949 689 LINE",
"949 963 LINE",
"90 963 LINE",
"90 689 LINE"
);
}
);
width = 1039;
},
{
layerId = "F908E90C-D8C5-4664-8A98-C6332077FED2";
paths = (
{
closed = 1;
nodes = (
"918 337 LINE",
"918 493 LINE",
"113 493 LINE",
"113 337 LINE"
);
},
{
closed = 1;
nodes = (
"918 749 LINE",
"918 905 LINE",
"113 905 LINE",
"113 749 LINE"
);
}
);
width = 1031;
}
);
unicode = 003D;
},
{
glyphname = greater;
lastChange = "2021-12-01 12:49:26 +0000";
layers = (
{
layerId = "97B58FCF-3A12-4579-9B1E-E0D00032C06B";
paths = (
{
closed = 1;
nodes = (
"564 630 LINE",
"108 466 LINE",
"108 431 LINE",
"594 606 LINE",
"594 667 LINE",
"108 842 LINE",
"108 807 LINE",
"564 643 LINE"
);
}
);
width = 655;
},
{
layerId = "DF0EE8E4-AB0C-48FB-AB57-676AC09C8CC1";
paths = (
{
closed = 1;
nodes = (
"485 629 LINE",
"55 564 LINE",
"55 309 LINE",
"680 438 LINE",
"680 837 LINE",
"55 966 LINE",
"55 711 LINE",
"485 645 LINE"
);
}
);
width = 733;
},
{
layerId = "825A4CEE-7199-41F6-ACE2-F406C7380F94";
paths = (
{
closed = 1;
nodes = (
"1204 601 LINE",
"217 281 LINE",
"217 241 LINE",
"1236 576 LINE",
"1236 652 LINE",
"217 987 LINE",
"217 947 LINE",
"1204 627 LINE"
);
}
);
width = 1402;
},
{
layerId = "3B7D2D6B-4C7F-469B-8FA8-9D341C52EB57";
paths = (
{
closed = 1;
nodes = (
"954 581 LINE",
"115 451 LINE",
"115 117 LINE",
"1207 340 LINE",
"1207 842 LINE",
"115 1061 LINE",
"115 729 LINE",
"954 604 LINE"
);
}
);
width = 1322;
},
{
layerId = "D1180855-BCFE-435D-BBAD-373D6E72A0DF";
paths = (
{
closed = 1;
nodes = (
"515 630 LINE",
"81 519 LINE",
"81 370 LINE",
"637 524 LINE",
"637 750 LINE",
"81 904 LINE",
"81 755 LINE",
"515 644 LINE"
);
}
);
width = 694;
},
{
layerId = "13EBB120-61C6-43BE-BE80-275AFBEF3308";
paths = (
{
closed = 1;
nodes = (
"1059 593 LINE",
"166 373 LINE",
"166 181 LINE",
"1221 458 LINE",
"1221 747 LINE",
"166 1022 LINE",
"166 831 LINE",
"1059 614 LINE"
);
}
);
width = 1362;
},
{
layerId = "C57162E4-21E6-4CBA-854D-82A45BE477A0";
paths = (
{
closed = 1;
nodes = (
"886 615 LINE",
"169 374 LINE",
"169 336 LINE",
"921 591 LINE",
"921 660 LINE",
"169 915 LINE",
"169 877 LINE",
"886 636 LINE"
);
}
);
width = 1041;
},
{
layerId = "D1B4C6CF-B771-4849-A887-0D6177A69D8B";
paths = (
{
closed = 1;
nodes = (
"710 605 LINE",
"85 509 LINE",
"85 215 LINE",
"944 389 LINE",
"944 840 LINE",
"85 1014 LINE",
"85 720 LINE",
"710 625 LINE"
);
}
);
width = 1028;
},
{
layerId = "F908E90C-D8C5-4664-8A98-C6332077FED2";
paths = (
{
closed = 1;
nodes = (
"788 611 LINE",
"124 445 LINE",
"124 275 LINE",
"930 490 LINE",
"930 750 LINE",
"124 965 LINE",
"124 795 LINE",
"788 629 LINE"
);
}
);
width = 1029;
}
);
rightMetricsKey = minus;
unicode = 003E;
},
{
glyphname = question;
lastChange = "2021-12-01 12:49:26 +0000";
layers = (
{
layerId = "97B58FCF-3A12-4579-9B1E-E0D00032C06B";
paths = (
{
closed = 1;
nodes = (
"191 390 LINE SMOOTH",
"311 478 OFFCURVE",
"357 559 OFFCURVE",
"357 745 CURVE SMOOTH",
"357 1045 LINE SMOOTH",
"357 1210 OFFCURVE",
"309 1293 OFFCURVE",
"184 1293 CURVE SMOOTH",
"127 1293 OFFCURVE",
"75 1269 OFFCURVE",
"44 1245 CURVE",
"38 1206 LINE",
"81 1236 OFFCURVE",
"125 1258 OFFCURVE",
"184 1258 CURVE SMOOTH",
"283 1258 OFFCURVE",
"320 1190 OFFCURVE",
"320 1043 CURVE SMOOTH",
"320 743 LINE SMOOTH",
"320 574 OFFCURVE",
"284 502 OFFCURVE",
"173 421 CURVE SMOOTH",
"143 399 LINE",
"143 355 LINE"
);
},
{
closed = 1;
nodes = (
"178 -9 OFFCURVE",
"186 9 OFFCURVE",
"186 50 CURVE SMOOTH",
"186 66 LINE SMOOTH",
"186 106 OFFCURVE",
"178 125 OFFCURVE",
"156 125 CURVE SMOOTH",
"134 125 OFFCURVE",
"127 106 OFFCURVE",
"127 66 CURVE SMOOTH",
"127 50 LINE SMOOTH",
"127 9 OFFCURVE",
"134 -9 OFFCURVE",
"156 -9 CURVE SMOOTH"
);
}
);
width = 446;
},
{
layerId = "DF0EE8E4-AB0C-48FB-AB57-676AC09C8CC1";
paths = (
{
closed = 1;
nodes = (
"240 443 LINE SMOOTH",
"469 530 OFFCURVE",
"566 644 OFFCURVE",
"566 887 CURVE SMOOTH",
"566 961 LINE SMOOTH",
"566 1169 OFFCURVE",
"473 1300 OFFCURVE",
"269 1300 CURVE SMOOTH",
"177 1300 OFFCURVE",
"100 1277 OFFCURVE",
"47 1250 CURVE",
"18 987 LINE",
"60 1009 OFFCURVE",
"103 1024 OFFCURVE",
"150 1024 CURVE SMOOTH",
"228 1024 OFFCURVE",
"257 981 OFFCURVE",
"257 906 CURVE SMOOTH",
"257 882 LINE SMOOTH",
"257 798 OFFCURVE",
"242 763 OFFCURVE",
"162 727 CURVE SMOOTH",
"124 710 LINE",
"124 399 LINE"
);
},
{
closed = 1;
nodes = (
"326 -28 OFFCURVE",
"381 38 OFFCURVE",
"381 154 CURVE SMOOTH",
"381 171 LINE SMOOTH",
"381 285 OFFCURVE",
"326 353 OFFCURVE",
"221 353 CURVE SMOOTH",
"112 353 OFFCURVE",
"61 285 OFFCURVE",
"61 171 CURVE SMOOTH",
"61 154 LINE SMOOTH",
"61 38 OFFCURVE",
"112 -28 OFFCURVE",
"221 -28 CURVE SMOOTH"
);
}
);
width = 598;
},
{
layerId = "825A4CEE-7199-41F6-ACE2-F406C7380F94";
paths = (
{
closed = 1;
nodes = (
"591 468 LINE SMOOTH",
"969 501 OFFCURVE",
"1159 648 OFFCURVE",
"1159 897 CURVE SMOOTH",
"1159 914 LINE SMOOTH",
"1159 1155 OFFCURVE",
"1011 1295 OFFCURVE",
"655 1295 CURVE SMOOTH",
"394 1295 OFFCURVE",
"205 1202 OFFCURVE",
"105 1129 CURVE",
"100 1087 LINE",
"221 1176 OFFCURVE",
"419 1259 OFFCURVE",
"655 1259 CURVE SMOOTH",
"990 1259 OFFCURVE",
"1122 1132 OFFCURVE",
"1122 914 CURVE SMOOTH",
"1122 898 LINE SMOOTH",
"1122 664 OFFCURVE",
"931 531 OFFCURVE",
"584 502 CURVE SMOOTH",
"488 494 LINE",
"488 459 LINE"
);
},
{
closed = 1;
nodes = (
"567 -14 OFFCURVE",
"588 4 OFFCURVE",
"588 39 CURVE SMOOTH",
"588 43 LINE SMOOTH",
"588 77 OFFCURVE",
"567 94 OFFCURVE",
"529 94 CURVE SMOOTH",
"494 94 OFFCURVE",
"472 77 OFFCURVE",
"472 43 CURVE SMOOTH",
"472 39 LINE SMOOTH",
"472 4 OFFCURVE",
"494 -14 OFFCURVE",
"529 -14 CURVE SMOOTH"
);
}
);
width = 1293;
},
{
layerId = "3B7D2D6B-4C7F-469B-8FA8-9D341C52EB57";
paths = (
{
closed = 1;
nodes = (
"516 434 LINE SMOOTH",
"946 448 OFFCURVE",
"1202 561 OFFCURVE",
"1202 880 CURVE",
"1202 894 LINE",
"1202 1177 OFFCURVE",
"990 1312 OFFCURVE",
"590 1312 CURVE SMOOTH",
"371 1312 OFFCURVE",
"181 1264 OFFCURVE",
"78 1225 CURVE",
"32 902 LINE",
"204 954 OFFCURVE",
"380 988 OFFCURVE",
"540 988 CURVE SMOOTH",
"740 988 OFFCURVE",
"789 955 OFFCURVE",
"789 878 CURVE SMOOTH",
"789 873 LINE SMOOTH",
"789 796 OFFCURVE",
"723 755 OFFCURVE",
"493 743 CURVE SMOOTH",
"329 735 LINE",
"329 428 LINE"
);
},
{
closed = 1;
nodes = (
"655 -35 OFFCURVE",
"723 35 OFFCURVE",
"723 148 CURVE SMOOTH",
"723 153 LINE SMOOTH",
"723 267 OFFCURVE",
"655 339 OFFCURVE",
"506 339 CURVE SMOOTH",
"356 339 OFFCURVE",
"289 267 OFFCURVE",
"289 153 CURVE SMOOTH",
"289 148 LINE SMOOTH",
"289 35 OFFCURVE",
"356 -35 OFFCURVE",
"506 -35 CURVE SMOOTH"
);
}
);
width = 1270;
},
{
layerId = "D1180855-BCFE-435D-BBAD-373D6E72A0DF";
paths = (
{
closed = 1;
nodes = (
"216 396 LINE SMOOTH",
"389 480 OFFCURVE",
"462 580 OFFCURVE",
"462 795 CURVE SMOOTH",
"462 1003 LINE SMOOTH",
"462 1190 OFFCURVE",
"391 1297 OFFCURVE",
"227 1297 CURVE SMOOTH",
"152 1297 OFFCURVE",
"88 1273 OFFCURVE",
"46 1248 CURVE",
"28 1097 LINE",
"71 1123 OFFCURVE",
"114 1141 OFFCURVE",
"167 1141 CURVE SMOOTH",
"256 1141 OFFCURVE",
"289 1086 OFFCURVE",
"289 975 CURVE SMOOTH",
"289 792 LINE SMOOTH",
"289 666 OFFCURVE",
"267 608 OFFCURVE",
"168 553 CURVE SMOOTH",
"128 531 LINE",
"128 353 LINE"
);
},
{
closed = 1;
nodes = (
"252 -18 OFFCURVE",
"284 25 OFFCURVE",
"284 103 CURVE SMOOTH",
"284 120 LINE SMOOTH",
"284 197 OFFCURVE",
"252 240 OFFCURVE",
"189 240 CURVE SMOOTH",
"123 240 OFFCURVE",
"94 197 OFFCURVE",
"94 120 CURVE SMOOTH",
"94 103 LINE SMOOTH",
"94 25 OFFCURVE",
"123 -18 OFFCURVE",
"189 -18 CURVE SMOOTH"
);
}
);
width = 522;
},
{
layerId = "13EBB120-61C6-43BE-BE80-275AFBEF3308";
paths = (
{
closed = 1;
nodes = (
"524 426 LINE SMOOTH",
"949 452 OFFCURVE",
"1181 590 OFFCURVE",
"1181 884 CURVE SMOOTH",
"1181 897 LINE SMOOTH",
"1181 1162 OFFCURVE",
"998 1304 OFFCURVE",
"619 1304 CURVE SMOOTH",
"383 1304 OFFCURVE",
"193 1235 OFFCURVE",
"92 1181 CURVE",
"66 989 LINE",
"213 1061 OFFCURVE",
"402 1122 OFFCURVE",
"604 1122 CURVE SMOOTH",
"865 1122 OFFCURVE",
"956 1034 OFFCURVE",
"956 893 CURVE SMOOTH",
"956 883 LINE SMOOTH",
"956 713 OFFCURVE",
"820 626 OFFCURVE",
"513 602 CURVE SMOOTH",
"409 594 LINE",
"409 419 LINE"
);
},
{
closed = 1;
nodes = (
"613 -24 OFFCURVE",
"658 23 OFFCURVE",
"658 100 CURVE SMOOTH",
"658 104 LINE SMOOTH",
"658 181 OFFCURVE",
"613 228 OFFCURVE",
"518 228 CURVE SMOOTH",
"425 228 OFFCURVE",
"379 181 OFFCURVE",
"379 104 CURVE SMOOTH",
"379 100 LINE SMOOTH",
"379 23 OFFCURVE",
"425 -24 OFFCURVE",
"518 -24 CURVE SMOOTH"
);
}
);
width = 1282;
},
{
layerId = "C57162E4-21E6-4CBA-854D-82A45BE477A0";
paths = (
{
closed = 1;
nodes = (
"381 403 LINE SMOOTH",
"624 470 OFFCURVE",
"742 589 OFFCURVE",
"742 817 CURVE SMOOTH",
"742 940 LINE SMOOTH",
"742 1169 OFFCURVE",
"647 1294 OFFCURVE",
"413 1294 CURVE SMOOTH",
"267 1294 OFFCURVE",
"144 1237 OFFCURVE",
"81 1188 CURVE",
"75 1146 LINE",
"154 1205 OFFCURVE",
"275 1258 OFFCURVE",
"412 1258 CURVE SMOOTH",
"623 1258 OFFCURVE",
"704 1146 OFFCURVE",
"704 939 CURVE SMOOTH",
"704 817 LINE SMOOTH",
"704 604 OFFCURVE",
"589 498 OFFCURVE",
"369 437 CURVE SMOOTH",
"308 420 LINE",
"308 383 LINE"
);
},
{
closed = 1;
nodes = (
"365 -12 OFFCURVE",
"380 7 OFFCURVE",
"380 45 CURVE SMOOTH",
"380 55 LINE SMOOTH",
"380 92 OFFCURVE",
"365 110 OFFCURVE",
"335 110 CURVE SMOOTH",
"307 110 OFFCURVE",
"292 92 OFFCURVE",
"292 55 CURVE SMOOTH",
"292 45 LINE SMOOTH",
"292 7 OFFCURVE",
"307 -12 OFFCURVE",
"335 -12 CURVE SMOOTH"
);
}
);
width = 860;
},
{
layerId = "D1B4C6CF-B771-4849-A887-0D6177A69D8B";
paths = (
{
closed = 1;
nodes = (
"378 437 LINE SMOOTH",
"712 490 OFFCURVE",
"884 613 OFFCURVE",
"884 892 CURVE SMOOTH",
"884 916 LINE SMOOTH",
"884 1169 OFFCURVE",
"730 1306 OFFCURVE",
"420 1306 CURVE SMOOTH",
"273 1306 OFFCURVE",
"141 1273 OFFCURVE",
"63 1241 CURVE",
"25 945 LINE",
"132 982 OFFCURVE",
"238 1006 OFFCURVE",
"345 1006 CURVE SMOOTH",
"473 1006 OFFCURVE",
"521 967 OFFCURVE",
"521 888 CURVE SMOOTH",
"521 880 LINE SMOOTH",
"521 807 OFFCURVE",
"481 758 OFFCURVE",
"328 731 CURVE SMOOTH",
"227 713 LINE",
"227 413 LINE"
);
},
{
closed = 1;
nodes = (
"486 -30 OFFCURVE",
"546 39 OFFCURVE",
"546 154 CURVE SMOOTH",
"546 165 LINE SMOOTH",
"546 279 OFFCURVE",
"486 349 OFFCURVE",
"360 349 CURVE SMOOTH",
"233 349 OFFCURVE",
"175 279 OFFCURVE",
"175 165 CURVE SMOOTH",
"175 154 LINE SMOOTH",
"175 39 OFFCURVE",
"233 -30 OFFCURVE",
"360 -30 CURVE SMOOTH"
);
}
);
width = 934;
},
{
layerId = "F908E90C-D8C5-4664-8A98-C6332077FED2";
paths = (
{
closed = 1;
nodes = (
"385 416 LINE SMOOTH",
"674 478 OFFCURVE",
"821 594 OFFCURVE",
"821 857 CURVE SMOOTH",
"821 936 LINE SMOOTH",
"821 1171 OFFCURVE",
"694 1301 OFFCURVE",
"420 1301 CURVE SMOOTH",
"263 1301 OFFCURVE",
"139 1256 OFFCURVE",
"68 1215 CURVE",
"46 1039 LINE",
"141 1089 OFFCURVE",
"261 1132 OFFCURVE",
"389 1132 CURVE SMOOTH",
"559 1132 OFFCURVE",
"622 1056 OFFCURVE",
"622 919 CURVE SMOOTH",
"622 854 LINE SMOOTH",
"622 702 OFFCURVE",
"547 625 OFFCURVE",
"354 582 CURVE SMOOTH",
"269 563 LINE",
"269 391 LINE"
);
},
{
closed = 1;
nodes = (
"433 -21 OFFCURVE",
"471 24 OFFCURVE",
"471 102 CURVE SMOOTH",
"471 112 LINE SMOOTH",
"471 189 OFFCURVE",
"433 234 OFFCURVE",
"354 234 CURVE SMOOTH",
"274 234 OFFCURVE",
"237 189 OFFCURVE",
"237 112 CURVE SMOOTH",
"237 102 LINE SMOOTH",
"237 24 OFFCURVE",
"274 -21 OFFCURVE",
"354 -21 CURVE SMOOTH"
);
}
);
width = 902;
}
);
leftKerningGroup = question;
rightKerningGroup = question;
unicode = 003F;
},
{
glyphname = at;
lastChange = "2021-12-01 12:49:26 +0000";
layers = (
{
layerId = "97B58FCF-3A12-4579-9B1E-E0D00032C06B";
paths = (
{
closed = 1;
nodes = (
"604 74 OFFCURVE",
"655 137 OFFCURVE",
"678 249 CURVE",
"689 249 LINE",
"675 289 LINE",
"644 168 OFFCURVE",
"599 105 OFFCURVE",
"518 105 CURVE SMOOTH",
"442 105 OFFCURVE",
"409 159 OFFCURVE",
"409 260 CURVE SMOOTH",
"409 295 OFFCURVE",
"410 305 OFFCURVE",
"448 696 CURVE SMOOTH",
"461 831 OFFCURVE",
"510 890 OFFCURVE",
"587 890 CURVE SMOOTH",
"669 890 OFFCURVE",
"713 823 OFFCURVE",
"713 717 CURVE SMOOTH",
"713 709 OFFCURVE",
"713 700 OFFCURVE",
"712 691 CURVE",
"735 726 LINE",
"725 726 LINE",
"733 841 OFFCURVE",
"684 921 OFFCURVE",
"587 921 CURVE SMOOTH",
"491 921 OFFCURVE",
"429 860 OFFCURVE",
"413 696 CURVE SMOOTH",
"375 308 OFFCURVE",
"374 296 OFFCURVE",
"374 257 CURVE SMOOTH",
"374 137 OFFCURVE",
"420 74 OFFCURVE",
"512 74 CURVE SMOOTH"
);
},
{
closed = 1;
nodes = (
"685 85 LINE",
"767 910 LINE",
"732 910 LINE",
"732 901 LINE",
"719 753 LINE",
"716 737 LINE",
"670 252 LINE",
"671 238 LINE",
"651 83 LINE"
);
},
{
closed = 1;
nodes = (
"651 83 LINE",
"685 76 OFFCURVE",
"700 73 OFFCURVE",
"745 73 CURVE SMOOTH",
"894 73 OFFCURVE",
"965 169 OFFCURVE",
"982 347 CURVE SMOOTH",
"1000 530 OFFCURVE",
"1020 758 OFFCURVE",
"1028 847 CURVE SMOOTH",
"1057 1164 OFFCURVE",
"895 1340 OFFCURVE",
"621 1340 CURVE SMOOTH",
"334 1340 OFFCURVE",
"189 1175 OFFCURVE",
"158 834 CURVE SMOOTH",
"147 710 OFFCURVE",
"111 258 OFFCURVE",
"101 128 CURVE SMOOTH",
"78 -170 OFFCURVE",
"244 -331 OFFCURVE",
"532 -331 CURVE SMOOTH",
"695 -331 OFFCURVE",
"823 -279 OFFCURVE",
"919 -208 CURVE",
"925 -164 LINE",
"837 -234 OFFCURVE",
"708 -298 OFFCURVE",
"532 -298 CURVE SMOOTH",
"263 -298 OFFCURVE",
"120 -149 OFFCURVE",
"136 129 CURVE SMOOTH",
"143 255 OFFCURVE",
"183 710 OFFCURVE",
"194 833 CURVE SMOOTH",
"224 1154 OFFCURVE",
"353 1307 OFFCURVE",
"620 1307 CURVE SMOOTH",
"876 1307 OFFCURVE",
"1023 1151 OFFCURVE",
"994 848 CURVE SMOOTH",
"986 764 OFFCURVE",
"966 534 OFFCURVE",
"947 347 CURVE SMOOTH",
"929 173 OFFCURVE",
"856 103 OFFCURVE",
"742 103 CURVE SMOOTH",
"712 103 OFFCURVE",
"693 104 OFFCURVE",
"670 112 CURVE"
);
}
);
width = 1119;
},
{
layerId = "DF0EE8E4-AB0C-48FB-AB57-676AC09C8CC1";
paths = (
{
closed = 1;
nodes = (
"647 63 OFFCURVE",
"687 143 OFFCURVE",
"709 237 CURVE",
"751 237 LINE",
"724 335 LINE",
"715 304 OFFCURVE",
"696 284 OFFCURVE",
"671 284 CURVE SMOOTH",
"643 284 OFFCURVE",
"634 306 OFFCURVE",
"634 353 CURVE SMOOTH",
"634 380 OFFCURVE",
"639 418 OFFCURVE",
"660 613 CURVE SMOOTH",
"667 685 OFFCURVE",
"681 719 OFFCURVE",
"716 719 CURVE SMOOTH",
"744 719 OFFCURVE",
"756 697 OFFCURVE",
"756 653 CURVE SMOOTH",
"756 643 OFFCURVE",
"755 633 OFFCURVE",
"754 622 CURVE",
"815 763 LINE",
"759 763 LINE",
"752 861 OFFCURVE",
"723 933 OFFCURVE",
"622 933 CURVE SMOOTH",
"478 933 OFFCURVE",
"417 814 OFFCURVE",
"393 581 CURVE SMOOTH",
"372 378 OFFCURVE",
"367 344 OFFCURVE",
"367 294 CURVE SMOOTH",
"367 143 OFFCURVE",
"414 63 OFFCURVE",
"531 63 CURVE SMOOTH"
);
},
{
closed = 1;
nodes = (
"939 76 LINE",
"1029 920 LINE",
"784 920 LINE",
"783 911 LINE",
"767 747 LINE",
"763 711 LINE",
"719 299 LINE",
"723 268 LINE",
"698 74 LINE"
);
},
{
closed = 1;
nodes = (
"698 74 LINE",
"754 64 OFFCURVE",
"847 58 OFFCURVE",
"911 61 CURVE SMOOTH",
"1167 72 OFFCURVE",
"1280 152 OFFCURVE",
"1308 419 CURVE SMOOTH",
"1322 554 OFFCURVE",
"1335 678 OFFCURVE",
"1339 746 CURVE SMOOTH",
"1361 1124 OFFCURVE",
"1133 1330 OFFCURVE",
"744 1330 CURVE SMOOTH",
"333 1330 OFFCURVE",
"119 1132 OFFCURVE",
"74 718 CURVE SMOOTH",
"63 616 OFFCURVE",
"40 422 OFFCURVE",
"30 255 CURVE SMOOTH",
"9 -113 OFFCURVE",
"241 -308 OFFCURVE",
"656 -308 CURVE SMOOTH",
"855 -308 OFFCURVE",
"1010 -264 OFFCURVE",
"1087 -228 CURVE",
"1116 -22 LINE",
"1046 -54 OFFCURVE",
"872 -109 OFFCURVE",
"678 -109 CURVE SMOOTH",
"366 -109 OFFCURVE",
"241 43 OFFCURVE",
"255 272 CURVE SMOOTH",
"265 424 OFFCURVE",
"283 581 OFFCURVE",
"300 716 CURVE SMOOTH",
"328 944 OFFCURVE",
"427 1131 OFFCURVE",
"732 1131 CURVE SMOOTH",
"1024 1131 OFFCURVE",
"1128 968 OFFCURVE",
"1115 759 CURVE SMOOTH",
"1110 681 OFFCURVE",
"1093 525 OFFCURVE",
"1081 424 CURVE SMOOTH",
"1067 303 OFFCURVE",
"1026 273 OFFCURVE",
"955 273 CURVE SMOOTH",
"929 273 OFFCURVE",
"920 275 OFFCURVE",
"889 283 CURVE"
);
}
);
width = 1360;
},
{
layerId = "825A4CEE-7199-41F6-ACE2-F406C7380F94";
paths = (
{
closed = 1;
nodes = (
"1198 86 OFFCURVE",
"1351 217 OFFCURVE",
"1382 378 CURVE",
"1390 378 LINE",
"1380 424 LINE",
"1339 254 OFFCURVE",
"1181 120 OFFCURVE",
"988 120 CURVE SMOOTH",
"789 120 OFFCURVE",
"674 214 OFFCURVE",
"674 415 CURVE SMOOTH",
"674 418 OFFCURVE",
"674 420 OFFCURVE",
"674 423 CURVE SMOOTH",
"677 680 OFFCURVE",
"809 853 OFFCURVE",
"1060 853 CURVE SMOOTH",
"1233 853 OFFCURVE",
"1386 761 OFFCURVE",
"1386 550 CURVE SMOOTH",
"1386 543 OFFCURVE",
"1386 536 OFFCURVE",
"1386 529 CURVE",
"1411 560 LINE",
"1399 560 LINE",
"1415 769 OFFCURVE",
"1271 887 OFFCURVE",
"1059 887 CURVE SMOOTH",
"790 887 OFFCURVE",
"639 707 OFFCURVE",
"636 418 CURVE SMOOTH",
"636 415 OFFCURVE",
"636 411 OFFCURVE",
"636 408 CURVE SMOOTH",
"636 199 OFFCURVE",
"769 86 OFFCURVE",
"974 86 CURVE SMOOTH"
);
},
{
closed = 1;
nodes = (
"1377 107 LINE",
"1455 866 LINE",
"1418 866 LINE",
"1417 859 LINE",
"1395 613 LINE",
"1393 596 LINE",
"1370 378 LINE",
"1370 367 LINE",
"1338 107 LINE"
);
},
{
closed = 1;
nodes = (
"1338 107 LINE",
"1369 101 OFFCURVE",
"1389 101 OFFCURVE",
"1433 101 CURVE SMOOTH",
"1721 101 OFFCURVE",
"1916 252 OFFCURVE",
"1916 621 CURVE SMOOTH",
"1916 623 OFFCURVE",
"1916 625 OFFCURVE",
"1916 627 CURVE SMOOTH",
"1914 1059 OFFCURVE",
"1625 1299 OFFCURVE",
"1098 1299 CURVE SMOOTH",
"494 1299 OFFCURVE",
"159 966 OFFCURVE",
"156 379 CURVE SMOOTH",
"156 376 OFFCURVE",
"156 373 OFFCURVE",
"156 370 CURVE SMOOTH",
"156 -99 OFFCURVE",
"447 -361 OFFCURVE",
"982 -361 CURVE SMOOTH",
"1312 -361 OFFCURVE",
"1565 -290 OFFCURVE",
"1725 -158 CURVE",
"1733 -105 LINE",
"1580 -251 OFFCURVE",
"1327 -329 OFFCURVE",
"984 -329 CURVE SMOOTH",
"468 -329 OFFCURVE",
"193 -79 OFFCURVE",
"193 371 CURVE SMOOTH",
"193 373 OFFCURVE",
"193 376 OFFCURVE",
"193 378 CURVE SMOOTH",
"196 952 OFFCURVE",
"513 1266 OFFCURVE",
"1096 1266 CURVE SMOOTH",
"1603 1266 OFFCURVE",
"1876 1039 OFFCURVE",
"1879 628 CURVE SMOOTH",
"1879 626 OFFCURVE",
"1879 623 OFFCURVE",
"1879 621 CURVE SMOOTH",
"1879 272 OFFCURVE",
"1705 135 OFFCURVE",
"1430 135 CURVE SMOOTH",
"1394 135 OFFCURVE",
"1378 137 OFFCURVE",
"1361 139 CURVE"
);
}
);
width = 2052;
},
{
layerId = "3B7D2D6B-4C7F-469B-8FA8-9D341C52EB57";
paths = (
{
closed = 1;
nodes = (
"1050 57 OFFCURVE",
"1127 149 OFFCURVE",
"1163 276 CURVE",
"1266 276 LINE",
"1187 437 LINE",
"1155 371 OFFCURVE",
"1097 342 OFFCURVE",
"1033 342 CURVE SMOOTH",
"971 342 OFFCURVE",
"933 378 OFFCURVE",
"933 448 CURVE SMOOTH",
"933 452 OFFCURVE",
"933 456 OFFCURVE",
"933 459 CURVE SMOOTH",
"933 550 OFFCURVE",
"972 622 OFFCURVE",
"1064 622 CURVE SMOOTH",
"1158 622 OFFCURVE",
"1186 573 OFFCURVE",
"1184 506 CURVE SMOOTH",
"1184 498 OFFCURVE",
"1184 490 OFFCURVE",
"1183 481 CURVE",
"1295 679 LINE",
"1193 679 LINE",
"1176 814 OFFCURVE",
"1117 897 OFFCURVE",
"947 897 CURVE SMOOTH",
"695 897 OFFCURVE",
"573 677 OFFCURVE",
"573 402 CURVE SMOOTH",
"573 398 OFFCURVE",
"573 395 OFFCURVE",
"573 391 CURVE SMOOTH",
"573 171 OFFCURVE",
"692 57 OFFCURVE",
"871 57 CURVE SMOOTH"
);
},
{
closed = 1;
nodes = (
"1496 149 LINE",
"1558 871 LINE",
"1219 871 LINE",
"1218 856 LINE",
"1200 651 LINE",
"1196 609 LINE",
"1171 366 LINE",
"1177 315 LINE",
"1154 66 LINE"
);
},
{
closed = 1;
nodes = (
"1154 66 LINE",
"1214 60 OFFCURVE",
"1258 62 OFFCURVE",
"1305 62 CURVE SMOOTH",
"1778 62 OFFCURVE",
"2021 225 OFFCURVE",
"2021 627 CURVE SMOOTH",
"2021 636 OFFCURVE",
"2021 645 OFFCURVE",
"2021 654 CURVE SMOOTH",
"2021 1100 OFFCURVE",
"1695 1360 OFFCURVE",
"1118 1360 CURVE SMOOTH",
"483 1360 OFFCURVE",
"72 1016 OFFCURVE",
"72 408 CURVE SMOOTH",
"72 400 OFFCURVE",
"72 393 OFFCURVE",
"72 385 CURVE SMOOTH",
"72 -130 OFFCURVE",
"416 -379 OFFCURVE",
"1015 -379 CURVE SMOOTH",
"1327 -379 OFFCURVE",
"1518 -335 OFFCURVE",
"1739 -268 CURVE",
"1809 1 LINE",
"1573 -82 OFFCURVE",
"1373 -133 OFFCURVE",
"1032 -133 CURVE SMOOTH",
"623 -133 OFFCURVE",
"382 28 OFFCURVE",
"382 393 CURVE SMOOTH",
"382 398 OFFCURVE",
"382 404 OFFCURVE",
"382 409 CURVE SMOOTH",
"382 852 OFFCURVE",
"645 1115 OFFCURVE",
"1101 1115 CURVE SMOOTH",
"1515 1115 OFFCURVE",
"1711 955 OFFCURVE",
"1711 653 CURVE SMOOTH",
"1711 644 OFFCURVE",
"1711 635 OFFCURVE",
"1711 627 CURVE SMOOTH",
"1711 426 OFFCURVE",
"1624 322 OFFCURVE",
"1499 322 CURVE SMOOTH",
"1458 322 OFFCURVE",
"1441 323 OFFCURVE",
"1418 328 CURVE"
);
}
);
width = 2083;
},
{
layerId = "D1180855-BCFE-435D-BBAD-373D6E72A0DF";
paths = (
{
closed = 1;
nodes = (
"630 68 OFFCURVE",
"675 119 OFFCURVE",
"703 204 CURVE",
"731 204 LINE",
"718 316 LINE",
"699 249 OFFCURVE",
"668 209 OFFCURVE",
"617 209 CURVE SMOOTH",
"565 209 OFFCURVE",
"544 244 OFFCURVE",
"544 310 CURVE SMOOTH",
"544 344 OFFCURVE",
"547 377 OFFCURVE",
"575 653 CURVE SMOOTH",
"585 752 OFFCURVE",
"617 796 OFFCURVE",
"674 796 CURVE SMOOTH",
"724 796 OFFCURVE",
"752 755 OFFCURVE",
"752 686 CURVE SMOOTH",
"752 676 OFFCURVE",
"752 667 OFFCURVE",
"751 657 CURVE",
"793 797 LINE",
"758 797 LINE",
"748 880 OFFCURVE",
"709 934 OFFCURVE",
"619 934 CURVE SMOOTH",
"490 934 OFFCURVE",
"426 839 OFFCURVE",
"405 635 CURVE SMOOTH",
"377 355 OFFCURVE",
"374 324 OFFCURVE",
"374 279 CURVE SMOOTH",
"374 141 OFFCURVE",
"422 68 OFFCURVE",
"533 68 CURVE SMOOTH"
);
},
{
closed = 1;
nodes = (
"849 78 LINE",
"935 922 LINE",
"776 922 LINE",
"775 913 LINE",
"762 755 LINE",
"758 728 LINE",
"713 279 LINE",
"718 256 LINE",
"695 78 LINE"
);
},
{
closed = 1;
nodes = (
"695 78 LINE",
"741 69 OFFCURVE",
"801 64 OFFCURVE",
"857 66 CURVE SMOOTH",
"1067 72 OFFCURVE",
"1165 164 OFFCURVE",
"1190 399 CURVE SMOOTH",
"1203 527 OFFCURVE",
"1218 693 OFFCURVE",
"1225 786 CURVE SMOOTH",
"1252 1151 OFFCURVE",
"1038 1334 OFFCURVE",
"697 1334 CURVE SMOOTH",
"332 1334 OFFCURVE",
"155 1136 OFFCURVE",
"114 747 CURVE SMOOTH",
"104 654 OFFCURVE",
"76 350 OFFCURVE",
"69 256 CURVE SMOOTH",
"40 -127 OFFCURVE",
"251 -318 OFFCURVE",
"628 -318 CURVE SMOOTH",
"813 -318 OFFCURVE",
"949 -272 OFFCURVE",
"1031 -222 CURVE",
"1052 -79 LINE",
"977 -127 OFFCURVE",
"815 -186 OFFCURVE",
"643 -186 CURVE SMOOTH",
"333 -186 OFFCURVE",
"192 -24 OFFCURVE",
"215 264 CURVE SMOOTH",
"222 350 OFFCURVE",
"250 634 OFFCURVE",
"262 758 CURVE SMOOTH",
"288 1017 OFFCURVE",
"402 1204 OFFCURVE",
"688 1204 CURVE SMOOTH",
"976 1204 OFFCURVE",
"1103 1036 OFFCURVE",
"1081 789 CURVE SMOOTH",
"1073 704 OFFCURVE",
"1055 509 OFFCURVE",
"1045 414 CURVE SMOOTH",
"1028 251 OFFCURVE",
"975 199 OFFCURVE",
"881 199 CURVE SMOOTH",
"853 199 OFFCURVE",
"840 199 OFFCURVE",
"812 199 CURVE"
);
}
);
width = 1284;
},
{
layerId = "13EBB120-61C6-43BE-BE80-275AFBEF3308";
paths = (
{
closed = 1;
nodes = (
"1113 70 OFFCURVE",
"1207 162 OFFCURVE",
"1255 281 CURVE",
"1313 281 LINE",
"1280 433 LINE",
"1244 318 OFFCURVE",
"1139 239 OFFCURVE",
"1015 239 CURVE SMOOTH",
"889 239 OFFCURVE",
"815 302 OFFCURVE",
"815 433 CURVE SMOOTH",
"815 436 OFFCURVE",
"815 439 OFFCURVE",
"815 442 CURVE SMOOTH",
"817 611 OFFCURVE",
"899 730 OFFCURVE",
"1065 730 CURVE SMOOTH",
"1200 730 OFFCURVE",
"1286 653 OFFCURVE",
"1285 502 CURVE SMOOTH",
"1285 495 OFFCURVE",
"1285 487 OFFCURVE",
"1285 479 CURVE",
"1350 682 LINE",
"1290 682 LINE",
"1263 809 OFFCURVE",
"1181 892 OFFCURVE",
"1002 892 CURVE SMOOTH",
"742 892 OFFCURVE",
"607 692 OFFCURVE",
"605 418 CURVE SMOOTH",
"605 415 OFFCURVE",
"605 411 OFFCURVE",
"605 408 CURVE SMOOTH",
"605 186 OFFCURVE",
"732 70 OFFCURVE",
"924 70 CURVE SMOOTH"
);
},
{
closed = 1;
nodes = (
"1441 129 LINE",
"1509 869 LINE",
"1315 869 LINE",
"1314 857 LINE",
"1295 633 LINE",
"1295 603 LINE",
"1271 372 LINE",
"1270 334 LINE",
"1242 85 LINE"
);
},
{
closed = 1;
nodes = (
"1242 85 LINE",
"1288 79 OFFCURVE",
"1322 80 OFFCURVE",
"1368 80 CURVE SMOOTH",
"1754 80 OFFCURVE",
"1975 238 OFFCURVE",
"1975 624 CURVE SMOOTH",
"1975 630 OFFCURVE",
"1975 636 OFFCURVE",
"1975 641 CURVE SMOOTH",
"1974 1081 OFFCURVE",
"1665 1332 OFFCURVE",
"1112 1332 CURVE SMOOTH",
"491 1332 OFFCURVE",
"116 993 OFFCURVE",
"114 404 CURVE SMOOTH",
"114 399 OFFCURVE",
"114 394 OFFCURVE",
"114 388 CURVE SMOOTH",
"114 -116 OFFCURVE",
"433 -374 OFFCURVE",
"1003 -374 CURVE SMOOTH",
"1323 -374 OFFCURVE",
"1548 -318 OFFCURVE",
"1735 -225 CURVE",
"1771 -48 LINE",
"1576 -160 OFFCURVE",
"1322 -222 OFFCURVE",
"1033 -222 CURVE SMOOTH",
"554 -222 OFFCURVE",
"297 -21 OFFCURVE",
"297 393 CURVE SMOOTH",
"297 396 OFFCURVE",
"297 401 OFFCURVE",
"297 405 CURVE SMOOTH",
"298 899 OFFCURVE",
"587 1185 OFFCURVE",
"1102 1185 CURVE SMOOTH",
"1559 1185 OFFCURVE",
"1791 994 OFFCURVE",
"1792 641 CURVE SMOOTH",
"1792 636 OFFCURVE",
"1792 629 OFFCURVE",
"1792 624 CURVE SMOOTH",
"1792 354 OFFCURVE",
"1665 235 OFFCURVE",
"1470 235 CURVE SMOOTH",
"1431 235 OFFCURVE",
"1415 236 OFFCURVE",
"1394 240 CURVE"
);
}
);
width = 2074;
},
{
layerId = "C57162E4-21E6-4CBA-854D-82A45BE477A0";
paths = (
{
closed = 1;
nodes = (
"909 78 OFFCURVE",
"1009 175 OFFCURVE",
"1037 312 CURVE",
"1047 312 LINE",
"1035 355 LINE",
"999 209 OFFCURVE",
"899 111 OFFCURVE",
"763 111 CURVE SMOOTH",
"624 111 OFFCURVE",
"550 189 OFFCURVE",
"550 333 CURVE SMOOTH",
"550 373 OFFCURVE",
"557 442 OFFCURVE",
"569 558 CURVE SMOOTH",
"589 755 OFFCURVE",
"668 870 OFFCURVE",
"833 870 CURVE SMOOTH",
"959 870 OFFCURVE",
"1057 790 OFFCURVE",
"1058 632 CURVE SMOOTH",
"1058 624 OFFCURVE",
"1058 616 OFFCURVE",
"1058 608 CURVE",
"1081 641 LINE",
"1070 641 LINE",
"1082 803 OFFCURVE",
"987 902 OFFCURVE",
"834 902 CURVE SMOOTH",
"648 902 OFFCURVE",
"555 783 OFFCURVE",
"533 555 CURVE SMOOTH",
"522 441 OFFCURVE",
"514 370 OFFCURVE",
"514 328 CURVE SMOOTH",
"514 169 OFFCURVE",
"601 78 OFFCURVE",
"753 78 CURVE SMOOTH"
);
},
{
closed = 1;
nodes = (
"1039 94 LINE",
"1119 886 LINE",
"1083 886 LINE",
"1083 886 LINE",
"1065 681 LINE",
"1063 665 LINE",
"1028 313 LINE",
"1029 301 LINE",
"1004 93 LINE"
);
},
{
closed = 1;
nodes = (
"1004 93 LINE",
"1036 87 OFFCURVE",
"1053 85 OFFCURVE",
"1097 85 CURVE SMOOTH",
"1314 85 OFFCURVE",
"1427 200 OFFCURVE",
"1456 484 CURVE SMOOTH",
"1466 580 OFFCURVE",
"1472 668 OFFCURVE",
"1475 702 CURVE SMOOTH",
"1505 1100 OFFCURVE",
"1261 1320 OFFCURVE",
"862 1320 CURVE SMOOTH",
"405 1320 OFFCURVE",
"203 1066 OFFCURVE",
"163 607 CURVE SMOOTH",
"154 507 OFFCURVE",
"141 370 OFFCURVE",
"134 272 CURVE SMOOTH",
"107 -124 OFFCURVE",
"355 -346 OFFCURVE",
"767 -346 CURVE SMOOTH",
"1012 -346 OFFCURVE",
"1201 -285 OFFCURVE",
"1327 -181 CURVE",
"1335 -133 LINE",
"1215 -242 OFFCURVE",
"1026 -313 OFFCURVE",
"771 -313 CURVE SMOOTH",
"375 -313 OFFCURVE",
"144 -100 OFFCURVE",
"170 270 CURVE SMOOTH",
"177 365 OFFCURVE",
"191 501 OFFCURVE",
"200 612 CURVE SMOOTH",
"234 1046 OFFCURVE",
"432 1287 OFFCURVE",
"859 1287 CURVE SMOOTH",
"1242 1287 OFFCURVE",
"1472 1078 OFFCURVE",
"1440 703 CURVE SMOOTH",
"1437 672 OFFCURVE",
"1430 582 OFFCURVE",
"1420 484 CURVE SMOOTH",
"1393 212 OFFCURVE",
"1287 117 OFFCURVE",
"1094 117 CURVE SMOOTH",
"1061 117 OFFCURVE",
"1044 119 OFFCURVE",
"1024 124 CURVE"
);
}
);
width = 1598;
},
{
layerId = "D1B4C6CF-B771-4849-A887-0D6177A69D8B";
paths = (
{
closed = 1;
nodes = (
"842 60 OFFCURVE",
"899 146 OFFCURVE",
"928 257 CURVE",
"1001 257 LINE",
"948 386 LINE",
"928 338 OFFCURVE",
"893 313 OFFCURVE",
"851 313 CURVE SMOOTH",
"805 313 OFFCURVE",
"782 342 OFFCURVE",
"782 391 CURVE SMOOTH",
"782 416 OFFCURVE",
"783 444 OFFCURVE",
"795 541 CURVE SMOOTH",
"805 623 OFFCURVE",
"826 676 OFFCURVE",
"890 676 CURVE SMOOTH",
"949 676 OFFCURVE",
"968 640 OFFCURVE",
"968 585 CURVE SMOOTH",
"968 578 OFFCURVE",
"968 567 OFFCURVE",
"967 557 CURVE",
"1053 726 LINE",
"974 726 LINE",
"962 843 OFFCURVE",
"918 920 OFFCURVE",
"783 920 CURVE SMOOTH",
"585 920 OFFCURVE",
"510 753 OFFCURVE",
"483 514 CURVE SMOOTH",
"472 418 OFFCURVE",
"469 371 OFFCURVE",
"469 343 CURVE SMOOTH",
"469 157 OFFCURVE",
"550 60 OFFCURVE",
"697 60 CURVE SMOOTH"
);
},
{
closed = 1;
nodes = (
"1211 113 LINE",
"1295 899 LINE",
"999 899 LINE",
"999 899 LINE",
"982 704 LINE",
"979 665 LINE",
"939 333 LINE",
"942 292 LINE",
"920 70 LINE"
);
},
{
closed = 1;
nodes = (
"920 70 LINE",
"979 62 OFFCURVE",
"1048 60 OFFCURVE",
"1104 62 CURVE SMOOTH",
"1470 67 OFFCURVE",
"1624 193 OFFCURVE",
"1659 486 CURVE SMOOTH",
"1671 586 OFFCURVE",
"1676 663 OFFCURVE",
"1678 714 CURVE SMOOTH",
"1691 1121 OFFCURVE",
"1413 1345 OFFCURVE",
"935 1345 CURVE SMOOTH",
"410 1345 OFFCURVE",
"143 1089 OFFCURVE",
"85 665 CURVE SMOOTH",
"69 546 OFFCURVE",
"58 408 OFFCURVE",
"55 350 CURVE SMOOTH",
"31 -122 OFFCURVE",
"311 -344 OFFCURVE",
"846 -344 CURVE SMOOTH",
"1107 -344 OFFCURVE",
"1269 -299 OFFCURVE",
"1413 -249 CURVE",
"1456 -11 LINE",
"1309 -69 OFFCURVE",
"1122 -121 OFFCURVE",
"865 -121 CURVE SMOOTH",
"476 -121 OFFCURVE",
"303 35 OFFCURVE",
"323 363 CURVE SMOOTH",
"326 413 OFFCURVE",
"333 535 OFFCURVE",
"359 670 CURVE SMOOTH",
"406 913 OFFCURVE",
"543 1123 OFFCURVE",
"921 1123 CURVE SMOOTH",
"1264 1123 OFFCURVE",
"1422 961 OFFCURVE",
"1413 716 CURVE SMOOTH",
"1411 674 OFFCURVE",
"1405 610 OFFCURVE",
"1391 501 CURVE SMOOTH",
"1374 368 OFFCURVE",
"1322 298 OFFCURVE",
"1223 298 CURVE SMOOTH",
"1188 298 OFFCURVE",
"1174 299 OFFCURVE",
"1146 306 CURVE"
);
}
);
width = 1722;
},
{
layerId = "F908E90C-D8C5-4664-8A98-C6332077FED2";
paths = (
{
closed = 1;
nodes = (
"877 69 OFFCURVE",
"946 141 OFFCURVE",
"984 243 CURVE",
"1027 243 LINE",
"1005 375 LINE",
"978 284 OFFCURVE",
"909 224 OFFCURVE",
"821 224 CURVE SMOOTH",
"732 224 OFFCURVE",
"685 273 OFFCURVE",
"685 372 CURVE SMOOTH",
"685 390 OFFCURVE",
"685 412 OFFCURVE",
"700 548 CURVE SMOOTH",
"715 681 OFFCURVE",
"766 763 OFFCURVE",
"882 763 CURVE SMOOTH",
"975 763 OFFCURVE",
"1032 704 OFFCURVE",
"1032 594 CURVE SMOOTH",
"1032 586 OFFCURVE",
"1032 577 OFFCURVE",
"1031 568 CURVE",
"1085 740 LINE",
"1037 740 LINE",
"1019 845 OFFCURVE",
"958 913 OFFCURVE",
"824 913 CURVE SMOOTH",
"624 913 OFFCURVE",
"536 765 OFFCURVE",
"510 523 CURVE SMOOTH",
"495 386 OFFCURVE",
"495 364 OFFCURVE",
"495 340 CURVE SMOOTH",
"495 164 OFFCURVE",
"582 69 OFFCURVE",
"734 69 CURVE SMOOTH"
);
},
{
closed = 1;
nodes = (
"1145 104 LINE",
"1238 896 LINE",
"1060 896 LINE",
"1059 885 LINE",
"1042 694 LINE",
"1038 666 LINE",
"997 326 LINE",
"1000 295 LINE",
"971 82 LINE"
);
},
{
closed = 1;
nodes = (
"971 82 LINE",
"1018 74 OFFCURVE",
"1066 72 OFFCURVE",
"1118 73 CURVE SMOOTH",
"1413 76 OFFCURVE",
"1537 195 OFFCURVE",
"1573 457 CURVE SMOOTH",
"1591 588 OFFCURVE",
"1597 650 OFFCURVE",
"1599 697 CURVE SMOOTH",
"1617 1113 OFFCURVE",
"1359 1333 OFFCURVE",
"907 1333 CURVE SMOOTH",
"418 1333 OFFCURVE",
"165 1062 OFFCURVE",
"112 571 CURVE SMOOTH",
"95 416 OFFCURVE",
"90 346 OFFCURVE",
"90 267 CURVE SMOOTH",
"90 -133 OFFCURVE",
"339 -345 OFFCURVE",
"811 -345 CURVE SMOOTH",
"1065 -345 OFFCURVE",
"1242 -293 OFFCURVE",
"1382 -220 CURVE",
"1407 -64 LINE",
"1272 -144 OFFCURVE",
"1078 -205 OFFCURVE",
"822 -205 CURVE SMOOTH",
"440 -205 OFFCURVE",
"254 -35 OFFCURVE",
"254 274 CURVE SMOOTH",
"254 346 OFFCURVE",
"259 405 OFFCURVE",
"278 577 CURVE SMOOTH",
"320 956 OFFCURVE",
"502 1195 OFFCURVE",
"901 1195 CURVE SMOOTH",
"1269 1195 OFFCURVE",
"1451 1009 OFFCURVE",
"1435 694 CURVE SMOOTH",
"1433 654 OFFCURVE",
"1425 576 OFFCURVE",
"1408 464 CURVE SMOOTH",
"1383 296 OFFCURVE",
"1322 217 OFFCURVE",
"1181 217 CURVE SMOOTH",
"1147 217 OFFCURVE",
"1133 218 OFFCURVE",
"1108 220 CURVE"
);
}
);
width = 1690;
}
);
unicode = 0040;
},
{
glyphname = bracketleft;
lastChange = "2021-12-01 12:49:26 +0000";
layers = (
{
layerId = "97B58FCF-3A12-4579-9B1E-E0D00032C06B";
paths = (
{
closed = 1;
nodes = (
"352 -241 LINE",
"352 -210 LINE",
"160 -210 LINE",
"160 1321 LINE",
"352 1321 LINE",
"352 1352 LINE",
"123 1352 LINE",
"123 -241 LINE"
);
}
);
width = 384;
},
{
layerId = "DF0EE8E4-AB0C-48FB-AB57-676AC09C8CC1";
paths = (
{
closed = 1;
nodes = (
"496 -239 LINE",
"496 0 LINE",
"373 0 LINE",
"373 1113 LINE",
"496 1113 LINE",
"496 1352 LINE",
"78 1352 LINE",
"78 -239 LINE"
);
}
);
width = 528;
},
{
layerId = "825A4CEE-7199-41F6-ACE2-F406C7380F94";
paths = (
{
closed = 1;
nodes = (
"696 -231 LINE",
"696 -197 LINE",
"274 -197 LINE",
"274 1313 LINE",
"696 1313 LINE",
"696 1347 LINE",
"236 1347 LINE",
"236 -231 LINE"
);
}
);
width = 788;
},
{
layerId = "3B7D2D6B-4C7F-469B-8FA8-9D341C52EB57";
paths = (
{
closed = 1;
nodes = (
"707 -265 LINE",
"707 2 LINE",
"490 2 LINE",
"490 1082 LINE",
"707 1082 LINE",
"707 1349 LINE",
"134 1349 LINE",
"134 -265 LINE"
);
}
);
width = 771;
},
{
layerId = "D1180855-BCFE-435D-BBAD-373D6E72A0DF";
paths = (
{
closed = 1;
nodes = (
"424 -240 LINE",
"424 -101 LINE",
"265 -101 LINE",
"265 1213 LINE",
"424 1213 LINE",
"424 1352 LINE",
"101 1352 LINE",
"101 -240 LINE"
);
}
);
width = 456;
},
{
layerId = "13EBB120-61C6-43BE-BE80-275AFBEF3308";
paths = (
{
closed = 1;
nodes = (
"702 -248 LINE",
"702 -80 LINE",
"391 -80 LINE",
"391 1181 LINE",
"702 1181 LINE",
"702 1348 LINE",
"185 1348 LINE",
"185 -248 LINE"
);
}
);
width = 780;
},
{
layerId = "C57162E4-21E6-4CBA-854D-82A45BE477A0";
paths = (
{
closed = 1;
nodes = (
"530 -236 LINE",
"530 -203 LINE",
"223 -203 LINE",
"223 1317 LINE",
"530 1317 LINE",
"530 1350 LINE",
"186 1350 LINE",
"186 -236 LINE"
);
}
);
width = 590;
},
{
layerId = "D1B4C6CF-B771-4849-A887-0D6177A69D8B";
paths = (
{
closed = 1;
nodes = (
"602 -252 LINE",
"602 1 LINE",
"432 1 LINE",
"432 1098 LINE",
"602 1098 LINE",
"602 1351 LINE",
"106 1351 LINE",
"106 -252 LINE"
);
}
);
width = 650;
},
{
layerId = "F908E90C-D8C5-4664-8A98-C6332077FED2";
paths = (
{
closed = 1;
nodes = (
"563 -244 LINE",
"563 -96 LINE",
"325 -96 LINE",
"325 1203 LINE",
"563 1203 LINE",
"563 1351 LINE",
"143 1351 LINE",
"143 -244 LINE"
);
}
);
width = 618;
}
);
leftKerningGroup = parenleft;
rightKerningGroup = parenleft;
unicode = 005B;
},
{
glyphname = backslash;
lastChange = "2021-12-01 12:49:26 +0000";
layers = (
{
layerId = "97B58FCF-3A12-4579-9B1E-E0D00032C06B";
paths = (
{
closed = 1;
nodes = (
"86 1352 LINE",
"50 1352 LINE",
"368 -241 LINE",
"404 -241 LINE"
);
}
);
width = 454;
},
{
layerId = "DF0EE8E4-AB0C-48FB-AB57-676AC09C8CC1";
paths = (
{
closed = 1;
nodes = (
"271 1352 LINE",
"0 1352 LINE",
"341 -239 LINE",
"612 -239 LINE"
);
}
);
width = 612;
},
{
layerId = "825A4CEE-7199-41F6-ACE2-F406C7380F94";
paths = (
{
closed = 1;
nodes = (
"126 1317 LINE",
"82 1317 LINE",
"928 -221 LINE",
"972 -221 LINE"
);
}
);
width = 1054;
},
{
layerId = "3B7D2D6B-4C7F-469B-8FA8-9D341C52EB57";
paths = (
{
closed = 1;
nodes = (
"324 1349 LINE",
"-48 1349 LINE",
"951 -265 LINE",
"1325 -265 LINE"
);
}
);
width = 1277;
},
{
layerId = "D1180855-BCFE-435D-BBAD-373D6E72A0DF";
paths = (
{
closed = 1;
nodes = (
"184 1352 LINE",
"25 1352 LINE",
"354 -240 LINE",
"514 -240 LINE"
);
}
);
width = 539;
},
{
layerId = "13EBB120-61C6-43BE-BE80-275AFBEF3308";
paths = (
{
closed = 1;
nodes = (
"235 1333 LINE",
"17 1333 LINE",
"930 -243 LINE",
"1149 -243 LINE"
);
}
);
width = 1166;
},
{
layerId = "C57162E4-21E6-4CBA-854D-82A45BE477A0";
paths = (
{
closed = 1;
nodes = (
"112 1335 LINE",
"72 1335 LINE",
"654 -231 LINE",
"694 -231 LINE"
);
}
);
width = 766;
},
{
layerId = "D1B4C6CF-B771-4849-A887-0D6177A69D8B";
paths = (
{
closed = 1;
nodes = (
"284 1351 LINE",
"-24 1351 LINE",
"661 -252 LINE",
"969 -252 LINE"
);
}
);
width = 945;
},
{
layerId = "F908E90C-D8C5-4664-8A98-C6332077FED2";
paths = (
{
closed = 1;
nodes = (
"202 1343 LINE",
"21 1343 LINE",
"647 -242 LINE",
"829 -242 LINE"
);
}
);
width = 850;
}
);
unicode = 005C;
},
{
glyphname = bracketright;
lastChange = "2021-12-01 12:49:26 +0000";
layers = (
{
layerId = "97B58FCF-3A12-4579-9B1E-E0D00032C06B";
paths = (
{
closed = 1;
nodes = (
"261 1352 LINE",
"32 1352 LINE",
"32 1321 LINE",
"224 1321 LINE",
"224 -210 LINE",
"32 -210 LINE",
"32 -241 LINE",
"261 -241 LINE"
);
}
);
width = 384;
},
{
layerId = "DF0EE8E4-AB0C-48FB-AB57-676AC09C8CC1";
paths = (
{
closed = 1;
nodes = (
"450 1352 LINE",
"32 1352 LINE",
"32 1113 LINE",
"155 1113 LINE",
"155 0 LINE",
"32 0 LINE",
"32 -239 LINE",
"450 -239 LINE"
);
}
);
width = 528;
},
{
layerId = "825A4CEE-7199-41F6-ACE2-F406C7380F94";
paths = (
{
closed = 1;
nodes = (
"552 1347 LINE",
"92 1347 LINE",
"92 1313 LINE",
"514 1313 LINE",
"514 -197 LINE",
"92 -197 LINE",
"92 -231 LINE",
"552 -231 LINE"
);
}
);
width = 788;
},
{
layerId = "3B7D2D6B-4C7F-469B-8FA8-9D341C52EB57";
paths = (
{
closed = 1;
nodes = (
"637 1349 LINE",
"64 1349 LINE",
"64 1082 LINE",
"281 1082 LINE",
"281 2 LINE",
"64 2 LINE",
"64 -265 LINE",
"637 -265 LINE"
);
}
);
width = 771;
},
{
layerId = "D1180855-BCFE-435D-BBAD-373D6E72A0DF";
paths = (
{
closed = 1;
nodes = (
"355 1352 LINE",
"32 1352 LINE",
"32 1213 LINE",
"191 1213 LINE",
"191 -101 LINE",
"32 -101 LINE",
"32 -240 LINE",
"355 -240 LINE"
);
}
);
width = 456;
},
{
layerId = "13EBB120-61C6-43BE-BE80-275AFBEF3308";
paths = (
{
closed = 1;
nodes = (
"595 1348 LINE",
"78 1348 LINE",
"78 1181 LINE",
"389 1181 LINE",
"389 -80 LINE",
"78 -80 LINE",
"78 -248 LINE",
"595 -248 LINE"
);
}
);
width = 780;
},
{
layerId = "C57162E4-21E6-4CBA-854D-82A45BE477A0";
paths = (
{
closed = 1;
nodes = (
"404 1350 LINE",
"60 1350 LINE",
"60 1317 LINE",
"367 1317 LINE",
"367 -203 LINE",
"60 -203 LINE",
"60 -236 LINE",
"404 -236 LINE"
);
}
);
width = 590;
},
{
layerId = "D1B4C6CF-B771-4849-A887-0D6177A69D8B";
paths = (
{
closed = 1;
nodes = (
"544 1351 LINE",
"48 1351 LINE",
"48 1098 LINE",
"218 1098 LINE",
"218 1 LINE",
"48 1 LINE",
"48 -252 LINE",
"544 -252 LINE"
);
}
);
width = 650;
},
{
layerId = "F908E90C-D8C5-4664-8A98-C6332077FED2";
paths = (
{
closed = 1;
nodes = (
"475 1351 LINE",
"55 1351 LINE",
"55 1203 LINE",
"293 1203 LINE",
"293 -96 LINE",
"55 -96 LINE",
"55 -244 LINE",
"475 -244 LINE"
);
}
);
width = 618;
}
);
leftKerningGroup = parenright;
rightKerningGroup = parenright;
unicode = 005D;
},
{
glyphname = asciicircum;
lastChange = "2021-12-01 12:49:26 +0000";
layers = (
{
layerId = "97B58FCF-3A12-4579-9B1E-E0D00032C06B";
paths = (
{
closed = 1;
nodes = (
"64 628 LINE",
"99 628 LINE",
"238 1247 LINE",
"245 1247 LINE",
"384 628 LINE",
"419 628 LINE",
"271 1278 LINE",
"212 1278 LINE"
);
}
);
width = 483;
},
{
layerId = "DF0EE8E4-AB0C-48FB-AB57-676AC09C8CC1";
paths = (
{
closed = 1;
nodes = (
"10 618 LINE",
"254 618 LINE",
"336 1127 LINE",
"344 1127 LINE",
"426 618 LINE",
"670 618 LINE",
"540 1278 LINE",
"139 1278 LINE"
);
}
);
width = 680;
},
{
layerId = "825A4CEE-7199-41F6-ACE2-F406C7380F94";
paths = (
{
closed = 1;
nodes = (
"94 605 LINE",
"140 605 LINE",
"525 1246 LINE",
"551 1246 LINE",
"936 605 LINE",
"982 605 LINE",
"574 1278 LINE",
"502 1278 LINE"
);
}
);
width = 1076;
},
{
layerId = "3B7D2D6B-4C7F-469B-8FA8-9D341C52EB57";
paths = (
{
closed = 1;
nodes = (
"24 596 LINE",
"373 596 LINE",
"585 1076 LINE",
"605 1076 LINE",
"815 596 LINE",
"1164 596 LINE",
"847 1278 LINE",
"341 1278 LINE"
);
}
);
width = 1188;
},
{
layerId = "D1180855-BCFE-435D-BBAD-373D6E72A0DF";
paths = (
{
closed = 1;
nodes = (
"37 623 LINE",
"177 623 LINE",
"287 1167 LINE",
"295 1167 LINE",
"405 623 LINE",
"545 623 LINE",
"406 1278 LINE",
"176 1278 LINE"
);
}
);
width = 582;
},
{
layerId = "13EBB120-61C6-43BE-BE80-275AFBEF3308";
paths = (
{
closed = 1;
nodes = (
"59 601 LINE",
"259 601 LINE",
"557 1153 LINE",
"576 1153 LINE",
"874 601 LINE",
"1073 601 LINE",
"709 1278 LINE",
"424 1278 LINE"
);
}
);
width = 1132;
},
{
layerId = "C57162E4-21E6-4CBA-854D-82A45BE477A0";
paths = (
{
closed = 1;
nodes = (
"85 617 LINE",
"126 617 LINE",
"387 1245 LINE",
"405 1245 LINE",
"666 617 LINE",
"707 617 LINE",
"429 1278 LINE",
"363 1278 LINE"
);
}
);
width = 792;
},
{
layerId = "D1B4C6CF-B771-4849-A887-0D6177A69D8B";
paths = (
{
closed = 1;
nodes = (
"17 607 LINE",
"314 607 LINE",
"461 1092 LINE",
"475 1092 LINE",
"621 607 LINE",
"917 607 LINE",
"694 1278 LINE",
"240 1278 LINE"
);
}
);
width = 934;
},
{
layerId = "F908E90C-D8C5-4664-8A98-C6332077FED2";
paths = (
{
closed = 1;
nodes = (
"48 612 LINE",
"218 612 LINE",
"421 1160 LINE",
"435 1160 LINE",
"639 612 LINE",
"809 612 LINE",
"557 1278 LINE",
"299 1278 LINE"
);
}
);
width = 857;
}
);
unicode = 005E;
},
{
glyphname = underscore;
lastChange = "2021-12-01 12:49:26 +0000";
layers = (
{
layerId = "97B58FCF-3A12-4579-9B1E-E0D00032C06B";
paths = (
{
closed = 1;
nodes = (
"520 -131 LINE",
"520 -101 LINE",
"52 -101 LINE",
"52 -131 LINE"
);
}
);
width = 572;
},
{
layerId = "DF0EE8E4-AB0C-48FB-AB57-676AC09C8CC1";
paths = (
{
closed = 1;
nodes = (
"599 -259 LINE",
"599 -15 LINE",
"16 -15 LINE",
"16 -259 LINE"
);
}
);
width = 615;
},
{
layerId = "825A4CEE-7199-41F6-ACE2-F406C7380F94";
paths = (
{
closed = 1;
nodes = (
"1180 -160 LINE",
"1180 -128 LINE",
"90 -128 LINE",
"90 -160 LINE"
);
}
);
width = 1270;
},
{
layerId = "3B7D2D6B-4C7F-469B-8FA8-9D341C52EB57";
paths = (
{
closed = 1;
nodes = (
"1095 -338 LINE",
"1095 -36 LINE",
"41 -36 LINE",
"41 -338 LINE"
);
}
);
width = 1136;
},
{
layerId = "D1180855-BCFE-435D-BBAD-373D6E72A0DF";
paths = (
{
closed = 1;
nodes = (
"560 -195 LINE",
"560 -58 LINE",
"34 -58 LINE",
"34 -195 LINE"
);
}
);
width = 594;
},
{
layerId = "13EBB120-61C6-43BE-BE80-275AFBEF3308";
paths = (
{
closed = 1;
nodes = (
"1138 -249 LINE",
"1138 -82 LINE",
"66 -82 LINE",
"66 -249 LINE"
);
}
);
width = 1203;
},
{
layerId = "C57162E4-21E6-4CBA-854D-82A45BE477A0";
paths = (
{
closed = 1;
nodes = (
"856 -147 LINE",
"856 -115 LINE",
"77 -115 LINE",
"77 -147 LINE"
);
}
);
width = 933;
},
{
layerId = "D1B4C6CF-B771-4849-A887-0D6177A69D8B";
paths = (
{
closed = 1;
nodes = (
"847 -299 LINE",
"847 -26 LINE",
"29 -26 LINE",
"29 -299 LINE"
);
}
);
width = 876;
},
{
layerId = "F908E90C-D8C5-4664-8A98-C6332077FED2";
paths = (
{
closed = 1;
nodes = (
"849 -223 LINE",
"849 -71 LINE",
"50 -71 LINE",
"50 -223 LINE"
);
}
);
width = 899;
}
);
unicode = 005F;
},
